<svg xmlns="http://www.w3.org/2000/svg" xmlns:xlink="http://www.w3.org/1999/xlink" viewBox="0 0 229.47 230"><defs><style>.cls-1{isolation:isolate;}.cls-2{fill:url(#linear-gradient);}.cls-3{fill:#bdd0fb;}.cls-10,.cls-22,.cls-4,.cls-47,.cls-9{fill:#fff;}.cls-4{mix-blend-mode:soft-light;}.cls-5{fill:#91b3fa;}.cls-6{fill:url(#linear-gradient-2);}.cls-7{fill:url(#linear-gradient-3);}.cls-8{fill:#7d97f4;}.cls-10,.cls-11{opacity:0.6;}.cls-12{fill:url(#linear-gradient-4);}.cls-13{fill:url(#linear-gradient-5);}.cls-14{fill:url(#linear-gradient-6);}.cls-15{fill:url(#linear-gradient-7);}.cls-16{fill:url(#linear-gradient-8);}.cls-17{fill:#e9605a;}.cls-18{fill:url(#linear-gradient-9);}.cls-19{fill:url(#linear-gradient-10);}.cls-20{fill:url(#linear-gradient-11);}.cls-21{fill:url(#linear-gradient-12);}.cls-22{opacity:0.37;}.cls-23{fill:url(#linear-gradient-13);}.cls-24{fill:url(#linear-gradient-14);}.cls-25{fill:url(#linear-gradient-15);}.cls-26{fill:url(#linear-gradient-16);}.cls-27{fill:url(#linear-gradient-17);}.cls-28{fill:url(#linear-gradient-18);}.cls-29{fill:url(#linear-gradient-19);}.cls-30{fill:url(#linear-gradient-20);}.cls-31{fill:url(#linear-gradient-21);}.cls-32{fill:url(#linear-gradient-22);}.cls-33{fill:url(#linear-gradient-23);}.cls-34{fill:url(#linear-gradient-24);}.cls-35{fill:url(#linear-gradient-25);}.cls-36{fill:url(#linear-gradient-26);}.cls-37{fill:url(#linear-gradient-27);}.cls-38{fill:url(#linear-gradient-28);}.cls-39{fill:url(#linear-gradient-29);}.cls-40{fill:url(#linear-gradient-30);}.cls-41{fill:url(#linear-gradient-31);}.cls-42{fill:url(#linear-gradient-32);}.cls-43{fill:url(#linear-gradient-33);}.cls-44{fill:url(#linear-gradient-34);}.cls-45{fill:url(#linear-gradient-35);}.cls-46{fill:url(#linear-gradient-36);}.cls-47{opacity:0.27;}.cls-48{fill:url(#linear-gradient-37);}.cls-49{fill:url(#linear-gradient-38);}.cls-50{fill:url(#linear-gradient-39);}.cls-51{fill:url(#linear-gradient-40);}.cls-52{fill:url(#linear-gradient-41);}.cls-53{fill:url(#linear-gradient-42);}.cls-54{fill:url(#linear-gradient-43);}.cls-55{fill:url(#linear-gradient-44);}.cls-56{fill:url(#linear-gradient-45);}.cls-57{fill:url(#linear-gradient-46);}.cls-58{fill:url(#linear-gradient-47);}.cls-59{fill:url(#linear-gradient-48);}.cls-60{fill:url(#linear-gradient-49);}.cls-61{fill:url(#linear-gradient-50);}.cls-62{fill:url(#linear-gradient-51);}.cls-63{fill:url(#linear-gradient-52);}.cls-64{fill:url(#linear-gradient-53);}.cls-65{fill:url(#linear-gradient-54);}</style><linearGradient id="linear-gradient" x1="259.12" y1="297.63" x2="55.23" y2="44.4" gradientUnits="userSpaceOnUse"><stop offset="0" stop-color="#dae3fe"/><stop offset="1" stop-color="#e9effd"/></linearGradient><linearGradient id="linear-gradient-2" x1="139.9" y1="-7.73" x2="119.96" y2="243.66" gradientUnits="userSpaceOnUse"><stop offset="0" stop-color="#4f52ff"/><stop offset="1" stop-color="#4042e2"/></linearGradient><linearGradient id="linear-gradient-3" x1="40" y1="195.25" x2="58.27" y2="124.65" xlink:href="#linear-gradient-2"/><linearGradient id="linear-gradient-4" x1="107.79" y1="40.53" x2="47.94" y2="142.67" gradientUnits="userSpaceOnUse"><stop offset="0" stop-color="#fe7062"/><stop offset="1" stop-color="#ff928e"/></linearGradient><linearGradient id="linear-gradient-5" x1="118.74" y1="46.95" x2="58.9" y2="149.09" xlink:href="#linear-gradient-4"/><linearGradient id="linear-gradient-6" x1="127.95" y1="72.13" x2="49.21" y2="181.92" xlink:href="#linear-gradient-4"/><linearGradient id="linear-gradient-7" x1="140.65" y1="59.79" x2="80.81" y2="161.93" xlink:href="#linear-gradient-4"/><linearGradient id="linear-gradient-8" x1="142.06" y1="84.84" x2="82.21" y2="186.98" xlink:href="#linear-gradient-4"/><linearGradient id="linear-gradient-9" x1="149.49" y1="-16.9" x2="87.31" y2="64.9" gradientUnits="userSpaceOnUse"><stop offset="0" stop-color="#09005d"/><stop offset="1" stop-color="#1a0f91"/></linearGradient><linearGradient id="linear-gradient-10" x1="156.31" y1="-11.71" x2="94.13" y2="70.09" xlink:href="#linear-gradient-9"/><linearGradient id="linear-gradient-11" x1="148.47" y1="-6.71" x2="105.54" y2="72.13" xlink:href="#linear-gradient-2"/><linearGradient id="linear-gradient-12" x1="200.07" y1="164.83" x2="178.89" y2="207.19" gradientUnits="userSpaceOnUse"><stop offset="0" stop-color="#ff928e"/><stop offset="1" stop-color="#fe7062"/></linearGradient><linearGradient id="linear-gradient-13" x1="-2126.57" y1="182.68" x2="-2150.52" y2="217.48" gradientTransform="matrix(-1, 0, 0, 1, -1916.99, 0)" xlink:href="#linear-gradient-9"/><linearGradient id="linear-gradient-14" x1="-2125.7" y1="183.27" x2="-2149.65" y2="218.07" gradientTransform="matrix(-1, 0, 0, 1, -1916.99, 0)" xlink:href="#linear-gradient-9"/><linearGradient id="linear-gradient-15" x1="-2124.67" y1="183.99" x2="-2148.62" y2="218.79" gradientTransform="matrix(-1, 0, 0, 1, -1916.99, 0)" xlink:href="#linear-gradient-9"/><linearGradient id="linear-gradient-16" x1="-2122.87" y1="185.22" x2="-2146.82" y2="220.02" gradientTransform="matrix(-1, 0, 0, 1, -1916.99, 0)" xlink:href="#linear-gradient-9"/><linearGradient id="linear-gradient-17" x1="-2121.68" y1="186.04" x2="-2145.63" y2="220.84" gradientTransform="matrix(-1, 0, 0, 1, -1916.99, 0)" xlink:href="#linear-gradient-9"/><linearGradient id="linear-gradient-18" x1="-2120.95" y1="186.54" x2="-2144.9" y2="221.35" gradientTransform="matrix(-1, 0, 0, 1, -1916.99, 0)" xlink:href="#linear-gradient-9"/><linearGradient id="linear-gradient-19" x1="-2127.8" y1="181.83" x2="-2151.75" y2="216.63" gradientTransform="matrix(-1, 0, 0, 1, -1916.99, 0)" xlink:href="#linear-gradient-9"/><linearGradient id="linear-gradient-20" x1="196.21" y1="121.83" x2="186.66" y2="159.2" xlink:href="#linear-gradient-12"/><linearGradient id="linear-gradient-21" x1="-2125.29" y1="136.8" x2="-2142.11" y2="161.24" gradientTransform="matrix(-1, 0, 0, 1, -1916.99, 0)" xlink:href="#linear-gradient-9"/><linearGradient id="linear-gradient-22" x1="-2124.69" y1="137.22" x2="-2141.51" y2="161.66" gradientTransform="matrix(-1, 0, 0, 1, -1916.99, 0)" xlink:href="#linear-gradient-9"/><linearGradient id="linear-gradient-23" x1="-2123.96" y1="137.72" x2="-2140.78" y2="162.16" gradientTransform="matrix(-1, 0, 0, 1, -1916.99, 0)" xlink:href="#linear-gradient-9"/><linearGradient id="linear-gradient-24" x1="-2122.7" y1="138.59" x2="-2139.51" y2="163.03" gradientTransform="matrix(-1, 0, 0, 1, -1916.99, 0)" xlink:href="#linear-gradient-9"/><linearGradient id="linear-gradient-25" x1="-2121.86" y1="139.16" x2="-2138.68" y2="163.6" gradientTransform="matrix(-1, 0, 0, 1, -1916.99, 0)" xlink:href="#linear-gradient-9"/><linearGradient id="linear-gradient-26" x1="-2121.35" y1="139.51" x2="-2138.17" y2="163.96" gradientTransform="matrix(-1, 0, 0, 1, -1916.99, 0)" xlink:href="#linear-gradient-9"/><linearGradient id="linear-gradient-27" x1="-2126.16" y1="136.2" x2="-2142.98" y2="160.64" gradientTransform="matrix(-1, 0, 0, 1, -1916.99, 0)" xlink:href="#linear-gradient-9"/><linearGradient id="linear-gradient-28" x1="170.94" y1="191.17" x2="124.43" y2="236.85" xlink:href="#linear-gradient-12"/><linearGradient id="linear-gradient-29" x1="-2085.92" y1="196.58" x2="-2102.77" y2="221.06" gradientTransform="matrix(-1, 0, 0, 1, -1916.99, 0)" xlink:href="#linear-gradient-9"/><linearGradient id="linear-gradient-30" x1="-2085.45" y1="197" x2="-2102.25" y2="221.42" gradientTransform="matrix(-1, 0, 0, 1, -1916.99, 0)" xlink:href="#linear-gradient-9"/><linearGradient id="linear-gradient-31" x1="-2084.86" y1="197.5" x2="-2101.69" y2="221.95" gradientTransform="matrix(-1, 0, 0, 1, -1916.99, 0)" xlink:href="#linear-gradient-9"/><linearGradient id="linear-gradient-32" x1="-2083.86" y1="198.38" x2="-2100.6" y2="222.71" gradientTransform="matrix(-1, 0, 0, 1, -1916.99, 0)" xlink:href="#linear-gradient-9"/><linearGradient id="linear-gradient-33" x1="-2083.19" y1="198.95" x2="-2099.94" y2="223.3" gradientTransform="matrix(-1, 0, 0, 1, -1916.99, 0)" xlink:href="#linear-gradient-9"/><linearGradient id="linear-gradient-34" x1="-2082.77" y1="199.3" x2="-2099.59" y2="223.75" gradientTransform="matrix(-1, 0, 0, 1, -1916.99, 0)" xlink:href="#linear-gradient-9"/><linearGradient id="linear-gradient-35" x1="-2086.61" y1="196" x2="-2103.39" y2="220.38" gradientTransform="matrix(-1, 0, 0, 1, -1916.99, 0)" xlink:href="#linear-gradient-9"/><linearGradient id="linear-gradient-36" x1="121.22" y1="161.65" x2="91.73" y2="206.5" xlink:href="#linear-gradient-9"/><linearGradient id="linear-gradient-37" x1="200.89" y1="46.82" x2="158.95" y2="125.31" xlink:href="#linear-gradient-9"/><linearGradient id="linear-gradient-38" x1="-406.23" y1="133.15" x2="-419.37" y2="133.15" gradientTransform="matrix(-1, 0, 0, 1, -363.75, 0)" gradientUnits="userSpaceOnUse"><stop offset="0" stop-color="#febbba"/><stop offset="1" stop-color="#ff928e"/></linearGradient><linearGradient id="linear-gradient-39" x1="-693.23" y1="196.61" x2="-692.89" y2="234.71" gradientTransform="translate(738.48)" xlink:href="#linear-gradient-9"/><linearGradient id="linear-gradient-40" x1="-701.17" y1="221.37" x2="-696.86" y2="221.37" gradientTransform="translate(738.48)" xlink:href="#linear-gradient-38"/><linearGradient id="linear-gradient-41" x1="-706.05" y1="237.78" x2="-703.1" y2="158.77" gradientTransform="translate(738.48)" xlink:href="#linear-gradient-9"/><linearGradient id="linear-gradient-42" x1="-714.44" y1="196.8" x2="-714.1" y2="234.9" gradientTransform="translate(738.48)" xlink:href="#linear-gradient-9"/><linearGradient id="linear-gradient-43" x1="-716.72" y1="221.14" x2="-712.99" y2="221.14" gradientTransform="translate(738.48)" xlink:href="#linear-gradient-38"/><linearGradient id="linear-gradient-44" x1="-713.33" y1="237.51" x2="-710.38" y2="158.49" gradientTransform="translate(738.48)" xlink:href="#linear-gradient-9"/><linearGradient id="linear-gradient-45" x1="-379.72" y1="251.21" x2="-384.7" y2="217.15" gradientTransform="matrix(-1, 0, 0, 1, -363.75, 0)" xlink:href="#linear-gradient-12"/><linearGradient id="linear-gradient-46" x1="-361.89" y1="248.6" x2="-366.87" y2="214.55" gradientTransform="matrix(-1, 0, 0, 1, -363.75, 0)" xlink:href="#linear-gradient-12"/><linearGradient id="linear-gradient-47" x1="-731.64" y1="139.48" x2="-702.83" y2="139.48" gradientTransform="translate(738.48)" xlink:href="#linear-gradient-38"/><linearGradient id="linear-gradient-48" x1="70.27" y1="92.98" x2="61.23" y2="106.83" xlink:href="#linear-gradient-9"/><linearGradient id="linear-gradient-49" x1="-704.9" y1="137.09" x2="-696.21" y2="137.09" gradientTransform="translate(738.48)" xlink:href="#linear-gradient-38"/><linearGradient id="linear-gradient-50" x1="-594.58" y1="183.96" x2="-585.89" y2="183.96" gradientTransform="matrix(-0.85, -0.53, -0.53, 0.85, -350.96, -339.45)" xlink:href="#linear-gradient-38"/><linearGradient id="linear-gradient-51" x1="-709.73" y1="111.62" x2="-698.7" y2="111.62" gradientTransform="translate(738.48)" xlink:href="#linear-gradient-38"/><linearGradient id="linear-gradient-52" x1="-5437.53" y1="-2128.91" x2="-5441.66" y2="-2142.5" gradientTransform="translate(5665.64 1676.16) rotate(-5.84)" xlink:href="#linear-gradient-38"/><linearGradient id="linear-gradient-53" x1="-5441.25" y1="-2152.59" x2="-5437.81" y2="-2132.93" gradientTransform="translate(5665.64 1676.16) rotate(-5.84)" xlink:href="#linear-gradient-9"/><linearGradient id="linear-gradient-54" x1="-5441.75" y1="-2128.97" x2="-5445.46" y2="-2141.2" gradientTransform="translate(5665.64 1676.16) rotate(-5.84)" xlink:href="#linear-gradient-38"/></defs><g class="cls-1"><g id="Layer_2" data-name="Layer 2"><g id="Illustration"><path class="cls-2" d="M203,197.77a81.75,81.75,0,0,1-12.62,10.62c-41.15,29.53-89.85,20.92-100.2,18.82C74.93,224.11,45.39,218.11,24,193-8.29,155-3.25,95.12,21.81,55.6c4.58-7.23,28.8-47.35,78-53.78,29.79-3.9,64.52,4,89.66,25C242.28,71.07,238.52,160.4,203,197.77Z"/><path class="cls-3" d="M23.6,1.75A1.35,1.35,0,0,1,25.69.27C36.3,8.19,62.41,32.53,62,80.3c-.48,59.94,14.28,80.11,31.11,91.53a66.53,66.53,0,0,1-37.49-24.18C17,97.6,30.75,23.8,23.6,1.75Z"/><path class="cls-4" d="M33,19.39c2,6.44,3.77,12.92,5.35,19.46s3,13.1,4.23,19.71,2.25,13.25,3,19.91,1.32,13.36,1.82,20.08,1,13.48,2.23,20.22A68.23,68.23,0,0,0,56,138.31c.79,1.52,1.62,3,2.52,4.5s1.82,2.9,2.79,4.32a70.89,70.89,0,0,0,22.39,20.93,1.3,1.3,0,0,0,1.38-2.21h0c-1.4-.89-2.78-1.8-4.13-2.77-.68-.48-1.33-1-2-1.47s-1.31-1-1.94-1.54a69,69,0,0,1-7.18-6.81A75.21,75.21,0,0,1,58.56,137a66.6,66.6,0,0,1-3.78-9.12,74.38,74.38,0,0,1-2.42-9.62c-1.21-6.53-1.76-13.22-2.34-19.93s-1.23-13.45-2.15-20.15q-.67-5-1.52-10c-.28-1.67-.59-3.33-.89-5s-.65-3.31-1-5q-2.07-9.91-4.76-19.7c-1.82-6.5-3.81-13-6.05-19.32a.34.34,0,0,0-.44-.21A.35.35,0,0,0,33,19.39Z"/><path class="cls-5" d="M56.67,186.62a3.39,3.39,0,0,1-5.28,1.92C40.67,180.75,12.33,156,9.84,110.31,7.74,71.73,2.93,51,.1,41.76a2.12,2.12,0,0,1,3.29-2.33C21.53,52.88,77.21,102,56.67,186.62Z"/><path class="cls-4" d="M53.44,187l-.15.1a.94.94,0,0,1-1.28-.37c-.28-.51-28.32-52.07-33.66-105.58a.93.93,0,0,1,.84-1,.94.94,0,0,1,1,.84c5.31,53.12,33.17,104.36,33.45,104.87A.93.93,0,0,1,53.44,187Z"/><path class="cls-6" d="M58.43,30H193.62a14,14,0,0,1,14,13.29l8.13,166.39a10.33,10.33,0,0,1-10.13,10.85L50.66,223.35a9.8,9.8,0,0,1-10-9.8L42.53,45.9A15.89,15.89,0,0,1,58.43,30Z"/><path class="cls-5" d="M73.31,220h0L56,219.77a10.66,10.66,0,0,1-10.49-10.62V183a.35.35,0,0,1,.34-.35.35.35,0,0,1,.35.35v26.18a10,10,0,0,0,9.8,9.93l17.34.22a.35.35,0,0,1,.34.36A.34.34,0,0,1,73.31,220Z"/><path class="cls-7" d="M45.82,175.21a.35.35,0,0,1-.34-.35v-4.24a.34.34,0,0,1,.34-.34.35.35,0,0,1,.35.34v4.24A.35.35,0,0,1,45.82,175.21Z"/><path class="cls-8" d="M58.84,28.42c18.46,2.5,81.95,10.24,134.43,6.22a4.26,4.26,0,0,1,4.6,4l8.62,167.26a4.92,4.92,0,0,1-4.62,5.17c-22.08,1.31-113,6.36-145.41,3A3.9,3.9,0,0,1,53,210.2L53.61,33A4.61,4.61,0,0,1,58.84,28.42Z"/><path class="cls-3" d="M60.82,33.52c17.77,2.41,78.86,9.87,129.37,6a4.1,4.1,0,0,1,4.42,3.87l8.22,159.85a4.72,4.72,0,0,1-4.44,5c-21.24,1.26-108.73,6.12-139.94,2.85a3.75,3.75,0,0,1-3.35-3.71L55.78,38A4.45,4.45,0,0,1,60.82,33.52Z"/><path class="cls-9" d="M85.25,100.69h0l-11.72-.12A3,3,0,0,1,70.39,98l-1-9.84a2,2,0,0,1,.48-1.53,2.48,2.48,0,0,1,1.72-.85h0c1-.06,2.38-.18,3.85-.31,3.1-.26,7-.59,9.12-.62h0a3.16,3.16,0,0,1,3.13,2.22c.61,2.25.56,6.51.44,11.06A2.8,2.8,0,0,1,85.25,100.69Zm-.67-15.15h0c-2.14,0-6,.35-9.08.62l-3.85.31h0a1.74,1.74,0,0,0-1.24.6,1.31,1.31,0,0,0-.32,1l1,9.83a2.35,2.35,0,0,0,2.43,2l11.72.11h0a2.1,2.1,0,0,0,2.21-1.89c.11-4.49.17-8.7-.42-10.86A2.47,2.47,0,0,0,84.58,85.54Z"/><path class="cls-10" d="M72.88,87.58c2.46-.16,7.81-.71,10.35-.74a2.28,2.28,0,0,1,2.27,1.57c.49,1.81.42,5.42.34,8.75A2,2,0,0,1,83.78,99l-9.37-.09A2.16,2.16,0,0,1,72.2,97l-.83-7.86A1.54,1.54,0,0,1,72.88,87.58Z"/><g class="cls-11"><path class="cls-9" d="M95.11,90.6a.34.34,0,0,0-.35.49L96.52,96a.81.81,0,0,0,.71.5H179.7a.52.52,0,0,0,.52-.54l-.1-3.3a.56.56,0,0,0-.55-.54Z"/></g><path class="cls-12" d="M73.37,89.13h0a1.81,1.81,0,0,1,2.49.67L78.17,94a.58.58,0,0,0,1,0l5.73-12.76a.64.64,0,0,1,1.23.27A25.21,25.21,0,0,1,78.82,99s-3.43-1.33-6.2-7.41A1.89,1.89,0,0,1,73.37,89.13Z"/><path class="cls-9" d="M85.25,125.8h0l-11.72-.11a3,3,0,0,1-3.11-2.59l-1-9.83a2,2,0,0,1,.48-1.53,2.48,2.48,0,0,1,1.72-.85h0c1-.06,2.38-.18,3.86-.31,3.09-.26,7-.59,9.11-.62h0a3.16,3.16,0,0,1,3.13,2.22c.61,2.25.56,6.51.44,11A2.79,2.79,0,0,1,85.25,125.8ZM71.61,111.59a1.74,1.74,0,0,0-1.24.6,1.31,1.31,0,0,0-.32,1l1,9.83a2.35,2.35,0,0,0,2.43,2l11.72.11h0a2.1,2.1,0,0,0,2.21-1.89c.11-4.49.17-8.7-.42-10.86a2.44,2.44,0,0,0-2.5-1.7c-2.14,0-6,.35-9.07.61-1.47.13-2.87.25-3.86.32Z"/><path class="cls-10" d="M72.88,112.7c2.46-.17,7.81-.71,10.35-.74a2.28,2.28,0,0,1,2.27,1.57c.49,1.81.42,5.42.34,8.75a2,2,0,0,1-2.06,1.79L74.41,124a2.17,2.17,0,0,1-2.21-1.82l-.83-7.86A1.54,1.54,0,0,1,72.88,112.7Z"/><g class="cls-11"><path class="cls-9" d="M95.11,115.72a.34.34,0,0,0-.35.49l1.76,4.85a.8.8,0,0,0,.71.51H179.7a.52.52,0,0,0,.52-.54l-.1-3.3a.58.58,0,0,0-.55-.55Z"/></g><path class="cls-13" d="M73.37,114.25h0a1.8,1.8,0,0,1,2.49.67l2.31,4.14a.58.58,0,0,0,1,0l5.73-12.77a.64.64,0,0,1,1.23.28,25.21,25.21,0,0,1-7.34,17.54s-3.43-1.34-6.2-7.42A1.88,1.88,0,0,1,73.37,114.25Z"/><path class="cls-9" d="M85.25,150.92h0l-11.72-.11a3,3,0,0,1-3.11-2.59l-1-9.83a2,2,0,0,1,.48-1.53,2.48,2.48,0,0,1,1.72-.85h0c1-.07,2.38-.18,3.86-.31,3.09-.26,7-.59,9.11-.62h0a3.16,3.16,0,0,1,3.13,2.22c.61,2.24.56,6.51.44,11A2.79,2.79,0,0,1,85.25,150.92ZM71.61,136.7a1.78,1.78,0,0,0-1.24.61,1.31,1.31,0,0,0-.32,1l1,9.83a2.36,2.36,0,0,0,2.43,2l11.72.11h0a2.11,2.11,0,0,0,2.21-1.9c.11-4.49.17-8.69-.42-10.85a2.46,2.46,0,0,0-2.5-1.71c-2.14,0-6,.36-9.07.62-1.47.13-2.87.25-3.86.31Z"/><path class="cls-10" d="M72.88,137.82c2.46-.17,7.81-.71,10.35-.74a2.26,2.26,0,0,1,2.27,1.57c.49,1.81.42,5.42.34,8.75a2,2,0,0,1-2.06,1.78l-9.37-.09a2.15,2.15,0,0,1-2.21-1.82l-.83-7.85A1.52,1.52,0,0,1,72.88,137.82Z"/><g class="cls-11"><path class="cls-9" d="M95.11,140.84a.34.34,0,0,0-.35.49l1.78,4.85a.83.83,0,0,0,.72.5H181a.52.52,0,0,0,.52-.53l-.1-3.31a.57.57,0,0,0-.55-.54Z"/></g><path class="cls-14" d="M73.37,139.36h0a1.81,1.81,0,0,1,2.49.68l2.31,4.14a.58.58,0,0,0,1,0l5.73-12.77a.64.64,0,0,1,1.23.28,25.22,25.22,0,0,1-7.34,17.54s-3.43-1.34-6.2-7.42A1.89,1.89,0,0,1,73.37,139.36Z"/><path class="cls-9" d="M85.25,176h0l-11.72-.11a3,3,0,0,1-3.11-2.59l-1-9.83a2,2,0,0,1,.48-1.53,2.48,2.48,0,0,1,1.72-.85h0l3.85-.31c3.1-.27,7-.59,9.12-.62h0a3.16,3.16,0,0,1,3.13,2.22c.61,2.24.56,6.51.44,11.05A2.8,2.8,0,0,1,85.25,176Zm-.67-15.15h0c-2.14,0-6,.36-9.08.62-1.47.13-2.86.24-3.85.31h0a1.82,1.82,0,0,0-1.24.6,1.35,1.35,0,0,0-.32,1l1,9.83a2.34,2.34,0,0,0,2.43,2l11.72.12h0a2.11,2.11,0,0,0,2.21-1.9c.11-4.49.17-8.7-.42-10.85A2.47,2.47,0,0,0,84.58,160.89Z"/><path class="cls-10" d="M72.88,162.94c2.46-.17,7.81-.71,10.35-.74a2.26,2.26,0,0,1,2.27,1.57c.49,1.81.42,5.42.34,8.75a2,2,0,0,1-2.06,1.78l-9.37-.09a2.15,2.15,0,0,1-2.21-1.82l-.83-7.86A1.52,1.52,0,0,1,72.88,162.94Z"/><g class="cls-11"><path class="cls-9" d="M95.11,166a.34.34,0,0,0-.34.49l1.83,4.86a.83.83,0,0,0,.72.5h86.23a.51.51,0,0,0,.52-.53L184,168a.56.56,0,0,0-.54-.54Z"/></g><path class="cls-15" d="M73.37,164.48h0a1.81,1.81,0,0,1,2.49.68l2.31,4.14a.58.58,0,0,0,1,0l5.73-12.77a.64.64,0,0,1,1.23.28,25.24,25.24,0,0,1-7.34,17.54s-3.43-1.34-6.2-7.42A1.89,1.89,0,0,1,73.37,164.48Z"/><path class="cls-9" d="M86.66,201.1h0L74.91,201a3,3,0,0,1-3.12-2.58l-1-9.84a2,2,0,0,1,.48-1.53,2.5,2.5,0,0,1,1.72-.85h0c1-.06,2.38-.18,3.85-.31,3.1-.26,7-.59,9.13-.62h0a3.17,3.17,0,0,1,3.14,2.22c.6,2.25.55,6.51.43,11.06A2.79,2.79,0,0,1,86.66,201.1ZM86,186h0c-2.15,0-6,.35-9.08.61-1.47.13-2.87.25-3.86.32h0a1.77,1.77,0,0,0-1.24.6,1.35,1.35,0,0,0-.32,1l1,9.83a2.36,2.36,0,0,0,2.43,2l11.72.11h0a2.09,2.09,0,0,0,2.2-1.89c.12-4.49.17-8.7-.41-10.86A2.49,2.49,0,0,0,86,186Z"/><path class="cls-10" d="M74.28,188c2.46-.16,7.81-.71,10.35-.74a2.27,2.27,0,0,1,2.27,1.57c.49,1.81.43,5.42.34,8.75a2,2,0,0,1-2.06,1.79l-9.37-.09a2.16,2.16,0,0,1-2.21-1.82l-.82-7.86A1.53,1.53,0,0,1,74.28,188Z"/><g class="cls-11"><path class="cls-9" d="M97.06,191a.34.34,0,0,0-.34.49l1.83,4.86a.85.85,0,0,0,.72.5h86.09a.51.51,0,0,0,.51-.54l-.1-3.3a.56.56,0,0,0-.55-.54Z"/></g><path class="cls-16" d="M74.78,189.54h0a1.8,1.8,0,0,1,2.48.67l2.31,4.15a.58.58,0,0,0,1-.05l5.74-12.76a.64.64,0,0,1,1.22.27,25.19,25.19,0,0,1-7.33,17.54S76.79,198,74,191.94A1.88,1.88,0,0,1,74.78,189.54Z"/><path class="cls-17" d="M64.64,57.8c0-3.74,2.92-6.52,6.89-6.52s6.9,2.76,6.9,6.52-2.93,6.52-6.9,6.52S64.64,61.55,64.64,57.8Zm10.84,0a3.95,3.95,0,1,0-4,4A3.84,3.84,0,0,0,75.48,57.8Z"/><path class="cls-17" d="M80.62,51.5h5.73c4.12,0,7,2.49,7,6.3s-2.83,6.3-7,6.3H80.62ZM86.2,61.71c2.51,0,4.15-1.49,4.15-3.91s-1.64-3.9-4.15-3.9H83.54v7.81Z"/><path class="cls-17" d="M94.7,57.8c0-3.74,2.92-6.52,6.89-6.52s6.9,2.76,6.9,6.52-2.93,6.52-6.9,6.52S94.7,61.55,94.7,57.8Zm10.84,0a3.95,3.95,0,1,0-4,4A3.84,3.84,0,0,0,105.54,57.8Z"/><path class="cls-17" d="M122.24,60.67c0,2.17-1.73,3.43-5,3.43h-6.52V51.5h6.16c3.15,0,4.77,1.32,4.77,3.28a3,3,0,0,1-1.67,2.77A3.11,3.11,0,0,1,122.24,60.67Zm-8.66-7v3h2.9c1.42,0,2.2-.51,2.2-1.5s-.78-1.47-2.2-1.47Zm5.73,6.66c0-1.06-.81-1.57-2.33-1.57h-3.4v3.12H117C118.5,61.91,119.31,61.44,119.31,60.36Z"/><path class="cls-17" d="M132.48,64.1l-2.43-3.51h-2.68V64.1h-2.92V51.5h5.46c3.37,0,5.47,1.75,5.47,4.57a4.08,4.08,0,0,1-2.59,4l2.83,4Zm-2.73-10.22h-2.38v4.39h2.38c1.78,0,2.68-.83,2.68-2.2S131.53,53.88,129.75,53.88Z"/><path class="cls-17" d="M147.44,61.76V64.1h-9.76V51.5h9.53v2.34h-6.63v2.74h5.85v2.27h-5.85v2.91Z"/><path class="cls-17" d="M161.32,51.5V64.1h-2.39l-6.29-7.65V64.1h-2.88V51.5h2.41l6.27,7.65V51.5Z"/><path class="cls-17" d="M163.51,57.8c0-3.74,2.92-6.52,6.9-6.52S177.3,54,177.3,57.8s-2.93,6.52-6.89,6.52S163.51,61.55,163.51,57.8Zm10.84,0a3.94,3.94,0,1,0-3.94,4A3.84,3.84,0,0,0,174.35,57.8Z"/><path class="cls-17" d="M178.61,56a1.75,1.75,0,0,1,3.5,0,1.75,1.75,0,1,1-3.5,0Zm0,6.46a1.75,1.75,0,0,1,3.5,0,1.75,1.75,0,1,1-3.5,0Z"/><path class="cls-18" d="M134.41,3.28C129.52-.11,125.28,0,122.29.84a6,6,0,0,0-4.24,6.26l1.29,14.07,15.34,1.36S144,10,134.41,3.28Zm-6.75,11.35a3.83,3.83,0,1,1,3.83-3.82A3.82,3.82,0,0,1,127.66,14.63Z"/><path class="cls-5" d="M120.87,15.23a.35.35,0,0,1-.34-.31l-.21-2.24a.36.36,0,0,1,.32-.38.35.35,0,0,1,.38.31l.2,2.24a.35.35,0,0,1-.31.38Zm-.4-4.39a.34.34,0,0,1-.34-.31L120,8.82a5.68,5.68,0,0,1,4-5.94,11.38,11.38,0,0,1,5.59-.23.35.35,0,0,1-.13.68,10.76,10.76,0,0,0-5.26.21,5,5,0,0,0-3.53,5.22l.16,1.7a.35.35,0,0,1-.32.38Z"/><path class="cls-19" d="M98.41,30.27V23.19a4.31,4.31,0,0,1,4.46-4.31l48.77,1.67a4.19,4.19,0,0,1,4.05,3.94l.41,6.8Z"/><path class="cls-5" d="M116.59,21.52H114.5a.35.35,0,0,1-.35-.35.34.34,0,0,1,.35-.34h2.09a.35.35,0,0,1,.35.34A.35.35,0,0,1,116.59,21.52Z"/><path class="cls-5" d="M101.05,28a.35.35,0,0,1-.35-.35V24.81a4,4,0,0,1,4-4h7.71a.35.35,0,0,1,.35.34.35.35,0,0,1-.35.35h-7.71a3.3,3.3,0,0,0-3.3,3.29v2.86A.34.34,0,0,1,101.05,28Z"/><path class="cls-20" d="M83.13,27.68h85.28a6.3,6.3,0,0,1,6.21,5.23l.07.42a5.41,5.41,0,0,1-5.33,6.34H81.86A3.51,3.51,0,0,1,78.35,36l.19-3.92A4.58,4.58,0,0,1,83.13,27.68Z"/><path class="cls-21" d="M220,229.77a9.27,9.27,0,0,0,9.44-9.27V179.27a9.87,9.87,0,0,0-9.77-9.88c-16.26-.18-49.79-.19-77.22,2.12a7.42,7.42,0,0,0-6.79,7.14l-2.57,39.86a9.44,9.44,0,0,0,9.25,9.78Z"/><path class="cls-9" d="M220,183.73c.07,3.51,0,9.08-.12,12.67a3.17,3.17,0,0,1-3.54,3.08L203,197.91a3.16,3.16,0,0,1-2.77-3.62l1.64-11a3.17,3.17,0,0,1,3.14-2.7h11.86A3.16,3.16,0,0,1,220,183.73Z"/><path class="cls-22" d="M185,204.49l-11.16,1.21A2.52,2.52,0,0,1,171.1,203l2.44-33.2c4.68-.15,9.29-.25,13.74-.33V202A2.5,2.5,0,0,1,185,204.49Z"/><path class="cls-9" d="M180.46,198.74a1.12,1.12,0,0,1-1.12,1.06h-.06a1.12,1.12,0,0,1-1.06-1.18l1.69-29,2.25,0Z"/><path class="cls-23" d="M213.82,194.19a.37.37,0,0,0,.37-.35l.58-9.13a.38.38,0,0,0-.35-.39.36.36,0,0,0-.4.35l-.58,9.12a.37.37,0,0,0,.35.4Z"/><path class="cls-24" d="M212.62,194.19a.38.38,0,0,0,.38-.36l.3-9.3a.37.37,0,0,0-.36-.39.36.36,0,0,0-.39.36l-.3,9.3a.38.38,0,0,0,.36.39Z"/><path class="cls-25" d="M211,194.19a.38.38,0,0,1-.36-.39c.15-3.13.43-9.09.44-9.29a.38.38,0,0,1,.75,0c0,.16-.37,7.79-.44,9.32a.38.38,0,0,1-.37.36Zm.07-9.68h0Z"/><path class="cls-26" d="M208.53,194.56a.75.75,0,0,0,.75-.72c.32-9,.26-9.21.22-9.35a.75.75,0,0,0-1.46.3c0,.54-.14,5.78-.26,9a.75.75,0,0,0,.72.77Z"/><path class="cls-27" d="M206.91,194.19a.37.37,0,0,0,.37-.37v-9.13a.37.37,0,1,0-.74,0v9.13A.37.37,0,0,0,206.91,194.19Z"/><path class="cls-28" d="M205.6,194.19a.37.37,0,0,0,.37-.37c.08-3.17.24-8.35.39-9a.37.37,0,0,0,0-.39.37.37,0,0,0-.52-.1c-.2.13-.4.26-.6,9.45a.38.38,0,0,0,.36.38Z"/><path class="cls-29" d="M215.83,195a.76.76,0,0,0,.75-.71l.49-9.58a.74.74,0,0,0-.7-.79.76.76,0,0,0-.79.71l-.5,9.58a.75.75,0,0,0,.71.79Z"/><path class="cls-30" d="M222.24,163.36v-29a6.93,6.93,0,0,0-6.86-6.94c-11.42-.13-35-.14-54.23,1.49a5.2,5.2,0,0,0-4.77,5l-1.8,28a6.62,6.62,0,0,0,6.49,6.86l54.54,1A6.51,6.51,0,0,0,222.24,163.36Z"/><path class="cls-9" d="M215.63,137.54c0,2.46,0,6.37-.09,8.9a2.23,2.23,0,0,1-2.49,2.16l-9.4-1.1a2.23,2.23,0,0,1-1.94-2.55l1.15-7.69a2.24,2.24,0,0,1,2.21-1.9h8.32A2.24,2.24,0,0,1,215.63,137.54Z"/><path class="cls-22" d="M191.07,152.12l-7.84.85a1.78,1.78,0,0,1-1.95-1.89L183,127.76c3.29-.1,6.53-.18,9.66-.23v22.83A1.77,1.77,0,0,1,191.07,152.12Z"/><path class="cls-9" d="M187.86,148.08a.79.79,0,0,1-.79.74h0a.79.79,0,0,1-.75-.83l1.19-20.35,1.58,0Z"/><path class="cls-31" d="M211.28,144.88a.25.25,0,0,0,.26-.24l.41-6.41a.27.27,0,1,0-.53,0l-.4,6.4a.26.26,0,0,0,.24.28Z"/><path class="cls-32" d="M210.44,144.88a.27.27,0,0,0,.27-.25l.21-6.53a.26.26,0,0,0-.25-.27.26.26,0,0,0-.28.25l-.21,6.53a.26.26,0,0,0,.25.27Z"/><path class="cls-33" d="M209.31,144.88a.25.25,0,0,1-.25-.27c.1-2.2.3-6.38.31-6.52a.25.25,0,0,1,.26-.26.26.26,0,0,1,.26.26c0,.11-.25,5.47-.31,6.54a.26.26,0,0,1-.26.25Zm.05-6.79h0Z"/><path class="cls-34" d="M207.57,145.15a.53.53,0,0,0,.52-.51c.23-6.33.19-6.47.16-6.57a.53.53,0,0,0-.64-.37.54.54,0,0,0-.39.58c0,.38-.1,4.06-.18,6.32a.53.53,0,0,0,.51.55Z"/><path class="cls-35" d="M206.43,144.88a.25.25,0,0,0,.26-.26v-6.41a.26.26,0,0,0-.26-.26.26.26,0,0,0-.26.26v6.41A.26.26,0,0,0,206.43,144.88Z"/><path class="cls-36" d="M205.51,144.88a.26.26,0,0,0,.26-.25c0-2.23.17-5.87.28-6.3a.31.31,0,0,0,0-.28.27.27,0,0,0-.37-.07c-.14.09-.28.18-.42,6.64a.26.26,0,0,0,.25.26Z"/><path class="cls-37" d="M212.69,145.47a.53.53,0,0,0,.53-.5l.35-6.73a.53.53,0,0,0-1-.06l-.35,6.73a.53.53,0,0,0,.5.56Z"/><path class="cls-38" d="M181.41,223.15v-29c0-3.8-2.64-6.9-5.93-6.94-9.87-.12-30.22-.13-46.87,1.49a5,5,0,0,0-4.12,5l-1.55,28c-.12,3.7,2.41,6.8,5.61,6.87l47.13,1C178.83,229.72,181.41,226.79,181.41,223.15Z"/><path class="cls-9" d="M175.7,197.32c0,2.47,0,6.38-.08,8.9a2,2,0,0,1-2.15,2.16l-8.12-1.1a2.19,2.19,0,0,1-1.68-2.54l1-7.7a2,2,0,0,1,1.9-1.9h7.2A2.09,2.09,0,0,1,175.7,197.32Z"/><path class="cls-22" d="M154.48,211.9l-6.78.85a1.65,1.65,0,0,1-1.68-1.89l1.48-23.31c2.84-.11,5.64-.18,8.34-.24v22.84A1.69,1.69,0,0,1,154.48,211.9Z"/><path class="cls-9" d="M151.7,207.86a.74.74,0,0,1-.68.75h0a.74.74,0,0,1-.64-.83l1-20.35,1.37,0Z"/><path class="cls-39" d="M171.94,204.67a.25.25,0,0,0,.23-.25l.35-6.41a.26.26,0,0,0-.21-.28.23.23,0,0,0-.24.25l-.36,6.41a.27.27,0,0,0,.22.28Z"/><path class="cls-40" d="M171.22,204.67a.25.25,0,0,0,.23-.26l.18-6.53a.26.26,0,0,0-.22-.27c-.15,0-.23.11-.24.25L171,204.4a.26.26,0,0,0,.22.27Z"/><path class="cls-41" d="M170.24,204.67a.26.26,0,0,1-.22-.28c.09-2.19.26-6.38.27-6.52a.23.23,0,1,1,.45,0c0,.11-.22,5.47-.27,6.55a.24.24,0,0,1-.22.25Zm0-6.8h0Z"/><path class="cls-42" d="M168.73,204.93a.49.49,0,0,0,.46-.51c.19-6.32.16-6.47.13-6.56a.44.44,0,0,0-.55-.37.52.52,0,0,0-.33.58c0,.38-.09,4.06-.16,6.32a.5.5,0,0,0,.44.54Z"/><path class="cls-43" d="M167.75,204.67a.25.25,0,0,0,.23-.26V198a.23.23,0,1,0-.46,0v6.41A.25.25,0,0,0,167.75,204.67Z"/><path class="cls-44" d="M167,204.67a.25.25,0,0,0,.22-.26c0-2.23.15-5.86.24-6.3a.29.29,0,0,0,0-.27.21.21,0,0,0-.31-.08c-.13.1-.25.18-.37,6.64a.26.26,0,0,0,.22.27Z"/><path class="cls-45" d="M173.16,205.25a.5.5,0,0,0,.46-.5l.3-6.73a.51.51,0,0,0-.43-.55.5.5,0,0,0-.48.5l-.3,6.73a.5.5,0,0,0,.43.55Z"/><path class="cls-46" d="M128,158.89,72.14,219.7a6,6,0,0,0,.71,8.7l.44.35a5.52,5.52,0,0,0,7.78-1l50.83-65.65Z"/><ellipse class="cls-47" cx="159" cy="125.22" rx="45.21" ry="44.39" transform="translate(-39.81 87.31) rotate(-27.43)"/><path class="cls-48" d="M136.24,81.37c-24.66,12.8-34.46,42.8-21.9,67s42.75,33.47,67.41,20.68,34.46-42.8,21.9-67S160.9,68.58,136.24,81.37Zm42.17,81.26c-21,10.91-46.79,3-57.51-17.64s-2.35-46.26,18.69-57.18,46.78-3,57.5,17.64S199.44,151.71,178.41,162.63Z"/><path class="cls-5" d="M120.42,151.89a.14.14,0,0,1-.13-.06c-.66-1-1.3-2-1.9-3a.13.13,0,1,1,.23-.13c.59,1,1.22,2,1.89,3a.13.13,0,0,1,0,.18Zm-6.06-12.42a.13.13,0,0,1-.14-.09,45.43,45.43,0,0,1-1.86-9.45,46.32,46.32,0,0,1,5.53-26.26,47.74,47.74,0,0,1,45.57-24.62.14.14,0,0,1,.12.14.13.13,0,0,1-.14.12,47.46,47.46,0,0,0-45.32,24.49,46,46,0,0,0-5.5,26.11,44.86,44.86,0,0,0,1.85,9.39.13.13,0,0,1-.09.16Z"/><path class="cls-5" d="M78,227.92c-2.42.33-4.11-.29-5-1.87a4.43,4.43,0,0,1,.6-5.13l6.6-7.52a.11.11,0,0,1,.15,0,.11.11,0,0,1,0,.16l-6.59,7.51a4.21,4.21,0,0,0-.58,4.88c.87,1.51,2.5,2.1,4.88,1.75h0a.1.1,0,0,1,.12.09.1.1,0,0,1-.09.12Z"/><path class="cls-5" d="M82.31,211.27l-.09,0a.11.11,0,0,1,0-.15l.86-1a.11.11,0,0,1,.15,0,.11.11,0,0,1,0,.16l-.85,1Z"/><path class="cls-49" d="M55.62,131.18s0,15.2-6.66,14c-4.07-.76-6.48-17.13-6.48-17.13s4.21-9.38,4.68-6.31C50.58,144,53.12,126.94,55.62,131.18Z"/><path class="cls-50" d="M37.72,221.38s-.5,2.85-.74,5.66a1.94,1.94,0,0,0,1.85,2.11c3.76.16,11.79.46,14.67.33a.63.63,0,0,0,.56-.86h0a1.45,1.45,0,0,0-.73-.77l-13.26-6.09Z"/><path class="cls-51" d="M37.31,219.7l.41,3.41s2.32,1.08,3.91-.14l-1-3.79Z"/><path class="cls-52" d="M37.62,155.66c-.18.89-.94,44.39,3.71,63.89a.66.66,0,0,1-.39.77,11.63,11.63,0,0,1-3.79.77,1.15,1.15,0,0,1-1.13-.82c-1.33-4.52-7.69-27.18-8.53-48.83-.92-24.19,0-.83,0-.83l.55-15Z"/><path class="cls-53" d="M22.47,222.86a20.66,20.66,0,0,0-1.58,5.26,1.18,1.18,0,0,0,1,1.42c1.24.12,3.15.28,4.68.27a1.19,1.19,0,0,0,1.17-1.32A10,10,0,0,0,25.45,223Z"/><path class="cls-54" d="M21.76,218.48l.95,5.15a3.3,3.3,0,0,0,2.78.19L25,218.28Z"/><path class="cls-55" d="M19.21,157c-3.8,22.95.83,56.73,2.39,63.34a1,1,0,0,0,.83.78,7,7,0,0,0,3-.12.93.93,0,0,0,.68-.87c.21-5.34-.16-38.15,3.38-51.12a3,3,0,0,1,1.14-1.63l6.87-4.89.53-7.9Z"/><path class="cls-56" d="M43.86,114.37a64.42,64.42,0,0,0-24.39,2.13c-3.39,19.82-.59,42.69-.59,42.69,8.82,2.31,18.77-1.42,18.77-1.42,1.47-8.28,7.58-27.41,7.58-27.41,2.79-.35,5.4,1.06,4.8-2.81S45.61,114.55,43.86,114.37Z"/><path class="cls-57" d="M23.84,127.54l-4.37-11S8.83,123.73,7.08,132.9a25.24,25.24,0,0,1,9.25,2.49C17.12,131.05,23.84,127.54,23.84,127.54Z"/><path class="cls-58" d="M34.07,137.92s-12.29,6.74-16.33,1c-.83-1.2-1.59-2.79-1.38-3.92a23.3,23.3,0,0,0-9.28-2.07c-.53,2.77-.26,5.12,1.76,8.9,5.4,10.1,26.81-.93,26.81-.93Z"/><path class="cls-59" d="M34.63,142.35l5.22-18.25a.54.54,0,0,1,.45-.38c1-.11,3.69-.42,6.86-.69a78.51,78.51,0,0,1,10.89-.36.54.54,0,0,1,.44.77c-1.51,3-7.7,15.43-10.8,19.49a.55.55,0,0,1-.43.21L35.14,143A.54.54,0,0,1,34.63,142.35Z"/><path class="cls-5" d="M47.9,121.47l3.72-.62a.27.27,0,0,1,.29.35l-.37,1.11a.25.25,0,0,1-.21.18l-3.58.48a.26.26,0,0,1-.3-.32l.23-1A.28.28,0,0,1,47.9,121.47Z"/><path class="cls-8" d="M45.11,124.62l.31-1.6a.35.35,0,0,1,.32-.29l7.51-.77a.37.37,0,0,1,.4.46l-.48,2a.37.37,0,0,1-.34.29l-7.34.37A.37.37,0,0,1,45.11,124.62Z"/><path class="cls-60" d="M35.14,141a1,1,0,0,1-1.11-.83,12.8,12.8,0,0,1-.36-4.26c.37-1.32,1.08-3,3.44-2.65a34.48,34.48,0,0,1,5.16,1.38,1.35,1.35,0,0,1-1.94,1.16l1.12.87s-.16,1.38-1.68.64l1,1.15a1.21,1.21,0,0,1-1.77.4C38,138.2,37.5,140.76,35.14,141Z"/><path class="cls-61" d="M52.47,135.18s2.75-2.68,3.15-4,.69-3.14-1.51-4.08a35.36,35.36,0,0,0-5.1-1.57,1.35,1.35,0,0,0,1,2l-1.41.14S48,129,49.71,129.13l-1.49.42a1.2,1.2,0,0,0,1.28,1.28C50.84,130.81,49.54,133.88,52.47,135.18Z"/><path class="cls-62" d="M32.41,105.67l-3.63,10.49a.37.37,0,0,0,.17.45,8.51,8.51,0,0,0,8.84-.59,1.78,1.78,0,0,0,.82-1.27l1.18-9.08Z"/><path class="cls-63" d="M43.23,103.08s-1.17,8.4-3.36,10.56-6.06-.92-8.1-5.44l2.3-8.32Z"/><path class="cls-64" d="M34.25,105.09a.32.32,0,0,0,.38-.29,7.74,7.74,0,0,1,.48-2.55s-.31-.79,2.1.2,6,2.46,7.94,1.17,3.32-6.73-1.79-5.22a.31.31,0,0,1-.4-.29,3.17,3.17,0,0,0-2.4-3.29,2.93,2.93,0,0,0-3.28,1.11.29.29,0,0,1-.47,0,3.57,3.57,0,0,0-4.51-.87c-1.78,1-2,2.2-1.85,2.91a.32.32,0,0,1-.41.34,1.85,1.85,0,0,0-2.3.94c-1.06,1.65.81,2.8,1.37,3.09a.32.32,0,0,1,.17.24c.08.79.56,4.24,2.49,6a.32.32,0,0,0,.51-.15l1-3.31a.31.31,0,0,1,.36-.22Z"/><path class="cls-65" d="M34.35,105.73s-1.16-3.24-2.29-2,.68,3.42,2.14,3.73Z"/></g></g></g></svg>