<svg xmlns="http://www.w3.org/2000/svg" viewBox="0 0 201.57 208.21"><defs><style>.cls-1{fill:#4046b3;}</style></defs><g id="Layer_2" data-name="Layer 2"><g id="Capa_1" data-name="Capa 1"><path class="cls-1" d="M94.71,181.31l-6.81.35L88.75,198H7.19l7.25-139.4c6.78-3.1,13.05-6.24,13.05-17.61,0-8.65-3.73-23.24-10.54-29.37l.42-4.76H26c5.07,4.29,13.16,6.82,22,6.82s16.91-2.53,22-6.82h8.61L79,11.59C72.18,17.72,68.45,32.31,68.45,41,68.45,52.61,75,55.61,82,58.79l1.37.64.49-1,4.46-.23-.21-4-3.27-1.51C78.07,49.5,75.27,48.22,75.27,41c0-8.62,4.21-21.82,9.11-24.94l1.75-1.11L84.82,0H67.24l-1,1C62.59,4.59,55.58,6.83,48,6.83S33.35,4.59,29.69,1l-1-1H11.12L9.8,14.91,11.55,16c4.91,3.12,9.11,16.32,9.11,24.94,0,7.26-2.8,8.54-9.55,11.63L7.84,54.1,0,204.8H95.94Z"/><rect class="cls-1" x="34.31" y="40.96" width="37.55" height="6.83"/><path class="cls-1" d="M184.5,54.56H134.3a3.46,3.46,0,0,0-3.44,3.9A19.23,19.23,0,0,1,131,60.7a17.9,17.9,0,1,1-35.79,0,17.42,17.42,0,0,1,.16-2.24,3.48,3.48,0,0,0-3.45-3.91H37.73A3.48,3.48,0,0,0,34.25,58V87.41a3.48,3.48,0,0,0,2.58,3.36l24.73,6.59V180.9A3.48,3.48,0,0,0,65,184.38h59.74a3.48,3.48,0,0,0,0-6.95H68.51V94.7a3.48,3.48,0,0,0-2.58-3.36L41.2,84.74V61.5H88.29a24.84,24.84,0,0,0,49.66,0H181V84.84l-21.44,6.53a3.49,3.49,0,0,0-2.46,3.33V128a3.48,3.48,0,0,0,7,0V97.27l21.43-6.53A3.49,3.49,0,0,0,188,87.41V58A3.47,3.47,0,0,0,184.5,54.56Z"/><path class="cls-1" d="M65,78.65a3.42,3.42,0,0,0-3.41,3.42v29.38a3.42,3.42,0,1,0,6.83,0V82.07A3.42,3.42,0,0,0,65,78.65Z"/><path class="cls-1" d="M160.61,78.65a3.42,3.42,0,0,0-3.42,3.42v29.38a3.42,3.42,0,1,0,6.83,0V82.07A3.42,3.42,0,0,0,160.61,78.65Z"/><path class="cls-1" d="M160.61,126.29a41,41,0,1,0,41,41A41,41,0,0,0,160.61,126.29Zm0,75.1a34.14,34.14,0,1,1,34.13-34.14A34.18,34.18,0,0,1,160.61,201.39Z"/><path class="cls-1" d="M175.53,147a3.42,3.42,0,0,0-4.44,1.9l-11.94,29.86L145.67,168a3.41,3.41,0,0,0-4.26,5.33L158.48,187a3.4,3.4,0,0,0,2.13.75,3.7,3.7,0,0,0,.87-.11,3.44,3.44,0,0,0,2.3-2l13.65-34.14A3.41,3.41,0,0,0,175.53,147Z"/></g></g></svg>