<svg xmlns="http://www.w3.org/2000/svg" viewBox="0 0 591.81 596.8"><defs><style>.cls-1{fill:#eae0de;isolation:isolate;}.cls-2{fill:#fdfdfd;}.cls-3{fill:#727172;}.cls-4{fill:#040404;}</style></defs><g id="Layer_2" data-name="Layer 2"><g id="Layer_1-2" data-name="Layer 1"><circle class="cls-1" cx="300.23" cy="302.89" r="285.09"/><path class="cls-2" d="M0,318.89C11.68,104.22,197.71-.17,305.9,9c0,0,1.69-7.17,3-7.27C316.1,1.19,323,3.19,330,4.14c22.62,3.07,44.45,9.5,66,16.88a45.82,45.82,0,0,1,6.4,2.64c2,1,4.59.89,6.19,3.37a6.88,6.88,0,0,1-1.81,0,288.38,288.38,0,0,0-53.18-13.35c-10.27-1.5-20.42-4.26-31-3.26l-1.8-.08c-3.56-2-7.26-1.38-11-.64l-16.73-.12a1.52,1.52,0,0,0-2.26.09l-2,0c-4-.79-8-1.1-12,.59l-5.75.32c-1.85-.49-3.68-.85-5.24.73l-5,.39c-.9-.78-1.56-.58-2,.51l-4.74.45a1.43,1.43,0,0,0-2.26.53l-2.75.33c-1.23-.51-2.37-.57-3.25.66l-2.75.34c-1.25-.56-2.41-.7-3.24.7l-1.76.28a5.74,5.74,0,0,0-1.93-.22c-15.72,3.93-31.45,7.81-46.34,14.41-4.41,2-9.06,3.43-13,6.83,3.65,2.07,6.36-.36,9.27-.87,1.83-.32,3.65-2,5.13.54a285.13,285.13,0,0,0-39.88,16.64c-8.21,4.22-16.13,9-24.18,13.49-1.75-2.57.9-2.82,2.06-3.66C135.68,58,142.14,53.5,149,48.62c-2.43-.91-3.46.27-4.5.9a294.53,294.53,0,0,0-39,28c-8.43,7.14-17,14.26-23.7,23.22-7.24,7.8-14.55,15.54-21,24a1.78,1.78,0,0,0-1.56,2.35l-.06.07c-1.73.19-2.43,1.72-3.25,2.85a351.38,351.38,0,0,0-44.78,83.22c-3.3,8.82-4.43,18.27-8.45,26.83-.57,1.22-.69,2.28.48,4.12,1.22-4.09,2.09-7.4,3.18-10.63,4.78-14.21,9.49-28.46,16.15-41.93q7.57-15.36,15.91-30.35c.6-1.08.67-4.77,4-3.1-.48,3.55-2.67,6.34-4.22,9.4a362.12,362.12,0,0,0-20.81,48.95,1.82,1.82,0,0,0-.7,2.66l-.35,1.72a1.49,1.49,0,0,0-.72,2.27l-2.12,7.37c-1,.63-1.5,1.44-.88,2.63l-1.24,5.34c-1.34,2-2.47,4.1-1.68,6.67L9.23,248c-.91.38-1,1.21-1.13,2C4,270.28.64,290.67,1.15,311.51,1.21,314,2.3,316.75,0,318.89Z"/><path class="cls-2" d="M191.72,567.34c-75,0-180.9-155.14-180.9-245.45,3.6-.14-8.52-2.68-8.47-4.66.16-6,.4-12.07.61-18.11,0-.5.31-1.07.76-.78s.74,1,1.1,1.58l-.06,10c-1.35,4.6.06,9.14.19,13.72a205.14,205.14,0,0,0,7.17,48.84c.72,2.64.89,5.63,3.36,7.59,1.33-2.29-1.26-5.23,1.84-6.76l1.37,6.31c-.51,1-.46,1.75.62,2.26l.28,1.75a1.45,1.45,0,0,0,.66,2.25l.36,1.75a1.47,1.47,0,0,0,.63,2.25c.23,1.31.37,2.64.7,3.91a269.65,269.65,0,0,0,32.27,75.93c-.13,1.49.31,2.61,1.93,2.95l0,.06c-.08,1.47.31,2.62,2,2.88l.07.08a6.88,6.88,0,0,0,.7,2.26c7,9,13.91,18.06,21.67,26.43,10.09,10.87,20.28,21.64,32.57,30.13l4.6,3.53a2,2,0,0,0,2.07,1.92L122.8,542c.19,1.34,1,1.75,2.28,1.66l5.13,4a2.46,2.46,0,0,0,2.86,2l8.69,5.75c.37,1.25,1.48,1.69,2.45,2.32,20.53,13.36,42.57,23.64,65.54,32C216.14,592.11,185.79,563.76,191.72,567.34Z"/><path class="cls-3" d="M591.81,266.91c-3,1-2.92,3.59-3.2,6-.73,6.56-1.3,13.15-2.92,19.59-.4,1.59-.49,3.84-2.32,3.89-2.41.07-2.91-2.39-3.26-4.31-1.74-9.39-3.7-18.76-5-28.21-2.92-21.91-10-42.64-17.21-63.37A146.76,146.76,0,0,0,546,174.41c-.81-1.39-.2-5.95-4.33-3.1a26.17,26.17,0,0,1-2.37-3.62c-4.88-11-10.51-21.58-18.32-30.85-6.5-7.72-13.1-15.37-19.66-23-.51-.61-1.32-1-1.18-2,1.26.54,12.92,11.18,14.2,12,4.12,2.63,7.13,6.29,10.38,9.8,3.69,4,6.71,8.63,10.35,12.38a97.9,97.9,0,0,1,9.29,11.7c.6.83,1.75,2.1,1,3.15-3.21,4.49.38,7.52,2.28,10.74,4.93,8.37,10,16.69,15.24,24.83a57.47,57.47,0,0,1,5.64,11.42c.49,1.31,1.13,2.5,2.88,1.62.81-.41,2.68-1,2.25-1.22-2.56-1.51-.44-3.93-1.49-5.77-1.28-2.25-2.68-4.64-2.62-7.44,4.76,7,7.59,14.87,9.72,23l-3.46-2.39c5.1,13.41,5.93,26.82,10.51,39.18l1.39-.31q.33-2.89.67-5.78c3.16,2.74,1.06,7.23,3.42,10.24Z"/><path class="cls-3" d="M322.68,10.4c10.54-1,20.69,1.76,31,3.26A288.38,288.38,0,0,1,406.82,27a6.88,6.88,0,0,0,1.81,0c-1.6-2.48-4.23-2.34-6.19-3.37A45.82,45.82,0,0,0,396,21c-21.55-7.38-43.38-13.81-66-16.88-7-.95-13.94-2.95-21.13-2.43-1.32.1-2.77.2-3-1.71h3c3.31,2.59,7.61,2,11.05,2C335.36,1.8,350,5.39,364.73,9.14c20.31,5.17,40.23,11.51,59,21,1.12.56,2.59.74,3.1,2.2.16,2.92-1.4,2.15-3.11,1.58-4.85-1.61-9.74-3.08-14.61-4.61l-.35.9,7,3.86.06-.07c-11.76-1.62-23-5-34.78-8.86,2.13-1.54,4.84.12,5.49-2.95-3-.4-5.67-2.89-8.84-.81-1.91,1.25,1.15,2,.23,3.46-6.76-1.43-13.43-4.05-20.53-4C349.54,20.85,342,18,334,18.37c-3.72.16-7.66-1.58-11.69-1.43-1.46.06-3.19.1-3.44-2.35s1-2.51,2.74-2.44C322.77,12.2,322.7,11.24,322.68,10.4Z"/><path class="cls-3" d="M228.93,596.8c-5.94-3.58-12.79-4.69-19.18-7-23-8.4-45-18.68-65.54-32-1-.63-2.08-1.07-2.45-2.32,1.61-1.74,3.19-.84,4.87,0,4.47,2.12,9,4.14,13.49,6.19.94.43,2.19.75,2.6-.36.52-1.39-.87-1.31-1.8-1.59a19.05,19.05,0,0,1-9-5.13c10.67,3.91,21.14,8.13,31.59,12.41,1,.4,3.06-.7,2.76,1.51-.23,1.71-1.22,2.21-3.19,1.41-2.27-.91-1.63,1-1.41,2.23-2.37.44-4.1-1.8-6.42-1.54-1.74-1.9-4.77-1.77-6.29-4,2.13-1.41,3.6,2.29,5.95.7-2.15-2.37-5-3.48-7.71-4.32-3.28-1-1.2,1.37-1.11,2.42-.6.4-1.83.19-1.62,1.23.05.25,1.65,1.86,2.59.07l.08.08c.67,4.05,4.54,3.45,7,4.84,18.44,10.45,38.41,17.11,58.51,23.4,1.05.33,2.5.06,2.25,1.88Z"/><path class="cls-2" d="M234.92,596.8c.25-1.82-1.2-1.55-2.25-1.88-20.1-6.29-40.07-12.95-58.51-23.4l1.07-1c2.32-.26,4.05,2,6.42,1.54l13.95,5.31c.48.42.89,1,1.45,1.22,13.95,4.47,27.9,9,42.3,11.82,9.5,1.83,19,4.18,28.78,4l9.81,1.13,0,1.25Z"/><path class="cls-3" d="M4.82,299.92c-.36-.54-.6-1.26-1.1-1.58s-.74.28-.76.78c-.21,6-.45,12.07-.61,18.11-.05,2,1.25,4.52-2.35,4.66v-3c2.3-2.14,1.21-4.94,1.15-7.38C.64,290.67,4,270.28,8.1,250c.16-.82.22-1.65,1.13-2,1.29,4.6.08,9.34.73,14l.07-.06c-2.88,5.54-2.39,11.7-3,17.61C6.3,286.29,6.47,293.2,4.82,299.92Z"/><path class="cls-4" d="M277.94,595.55l-9.81-1.13c-.1-2.61,1.9-1.74,3.17-1.78,5-.19,9.79,1.22,14.8,1.05,15.47-.52,31,1.08,46.45-1,2-.27,2.85.55,2.08,2.59l-4.76.37c-1.5-.88-1.5-.88-2,1.15h-4c-1.16-1.88-3-.94-4.51-.95-9.78-.09-19.57-.16-29.34,0C286,595.93,282,593.57,277.94,595.55Z"/><path class="cls-3" d="M277.94,595.55c4.08-2,8.06.38,12.11.31,9.77-.17,19.56-.1,29.34,0,1.5,0,3.35-.93,4.51.95h-46Z"/><path class="cls-3" d="M327.89,596.8c.48-2,.48-2,2-1.15l0,1.15Z"/><path class="cls-4" d="M10,261.93c-.65-4.64.56-9.38-.73-14l.43-2.73c1.83-1.91,1.79-4.28,1.68-6.67l1.24-5.34c1.22-.57,1.59-1.42.88-2.63l2.12-7.37c1-.5,1.76-1.11.72-2.27l.35-1.72a1.69,1.69,0,0,0,.7-2.66,362.12,362.12,0,0,1,20.81-48.95c1.55-3.06,3.74-5.85,4.22-9.4l-.17-.19c2.13-1,2.87-2.9,3.32-5,5.09-5.33,7.71-12.19,11.38-18.4,1.33-2.24,3.38-4.39,2.25-7.43l.06-.07c1.41-.2,1.77-1.08,1.56-2.35,6.44-8.5,13.75-16.24,21-24,2,.23,3.58-.95,4.91-2C97.53,90.08,108.26,81.28,119,72.52c.64-.69,2.5-.78,1.19-2.42l-.21.13c1.72,1.33,2.56,0,3.5-1.13l.59-.54c1.57-.08,2.77-.62,3-2.39l.15.17c8-4.51,16-9.27,24.18-13.49a285.13,285.13,0,0,1,39.88-16.64c3,0,5.5-1.5,7.75-3a71.57,71.57,0,0,1,14.32-7.51c8.3-3.3,17-5.72,24.82-10.14l1.76-.28c1.32.88,2.45.86,3.24-.7l2.75-.34c1.31.9,2.44.91,3.25-.66l2.75-.33c1,1.1,1.69.42,2.26-.53l4.74-.45c.93.87,1.56.57,2-.51l5-.39c1.89.8,3.72,1.15,5.24-.73l5.75-.32c4,.47,8.11,2.19,12-.59l2,0c-.05.77.28,1.32,1.08,1.27s1.07-.66,1.18-1.36l16.73.12c3.5,2.86,7.28,1.13,11,.64l1.8.08c0,.84.09,1.8-1.12,1.75-1.76-.07-3,0-2.74,2.44s2,2.41,3.44,2.35c4-.15,8,1.59,11.69,1.43,8-.34,15.59,2.48,23.5,2.42,7.1-.05,13.77,2.57,20.53,4,.92-1.47-2.14-2.21-.23-3.46,3.17-2.08,5.86.41,8.84.81-.65,3.07-3.36,1.41-5.49,2.95,11.75,3.83,23,7.24,34.78,8.86,1.51,3.13,4.42,2.47,6.94,2.88-2-1.74-4.49-2.35-7-2.81l-7-3.86.35-.9c4.87,1.53,9.76,3,14.61,4.61,1.71.57,3.27,1.34,3.11-1.58a201.42,201.42,0,0,1,25.85,13.89c.19,1.84,1.57,1.9,2.95,2a5.55,5.55,0,0,1,3.05,2c1.46,2.05,2.6,4.47,4.44,6.09,6.65,5.86,13.54,11.46,20.34,17.16l-.92.8a4.61,4.61,0,0,1-3.21-1c-10.35-8.47-22.47-14.06-34-20.66a5.75,5.75,0,0,0-2.92-.34c-2.37.07-4.52-.18-6.45-1.87a5.15,5.15,0,0,0-4.69-1.1c-3.46.94-6.39-.58-9.47-1.63-1.29-.45-2.36-2-4-.94l-2.76-1.16C406.67,39,395.52,38.46,386.6,32.9c-.72-.45-2.91-.12-3.94,1.38,1.4,1.72,3.83,2.58,4.22,5.09-13.4-4.79-25.77-12.43-39.9-15.17-26.62-5.17-53.33-6-80.16-1.06-30.4,5.62-59,16.25-87.39,28.35-25.26,10.78-46.38,27.33-68,43.55C91,110.43,76.14,130.16,64.61,152.7l.16.17c-1.24.24-1.55.92-1,2l.13-.11c-1-.25-1.19.55-1.53,1.16-2,1-1.79,3.3-2.63,5-1.15,2.27.91,1.78,2,2-5.26,8.15-11.09,15.94-15.34,24.71-8.17,12.07-8.66,26.3-11.21,39.94-.09.45.23.58,1,.11,1.17-2.83,2.58-6,3.73-9.19.8-2.23,1.54-1.71,2.54-.25-5.17,12.85-9.91,25.85-13.11,39.37-1.07.48-1.8,1.07-.75,2.26l-.42,2.71c-.88.59-1.65,1.2-.6,2.29l-.3,1.72a2,2,0,0,0-.71,3.27l-.33,2.72c-1,.56-1.7,1.19-.59,2.29l-.44,3.71c-.92.57-1.68,1.18-.59,2.28l-1.53,17c-1.27.74-1,2-1,3.12.14,12.24-1.09,24.54,1.43,36.8,1-11.4-1.13-22.88,2.09-34.06a5.53,5.53,0,0,0-.41-4.81l.34-3.74c1.43-.84,1.61-1.94.67-3.27l.38-3.71,2.06-.15-.08,11.87c-1.2,4.38-.58,8.85-.57,13.27,0,7.36.49,14.7,3.15,21.7l.45,10c-.85,1.47-1,2.84.54,4l.34,5.63c-.58,1.28-.88,2.51.68,3.37l.35,3.62c-.58,1.69-1,3.37.82,4.63l.3,2.76c-.87,1.19-.84,2.21.56,3l.34,3.61a7.88,7.88,0,0,0,1.77,7.65l.32,1.75a4.58,4.58,0,0,0,1.77,5.23c1.57,5.17,2.67,10.48,5,15.42-.23,2.3,2.35,5,2.54,4.62,1.76-4.08,3.35.2,4.84-.17.66,1,1.33,2.07,2,3.11a13.39,13.39,0,0,1-.1,2.3c-6.31.69-3.06,5.13-2.28,7.35,4.46,12.78,10.62,24.79,19.46,35.1,2.91,3.4,4.1,8.41,8.91,10.13l0,0c.16,1.93.75,3.55,3,4l1,1.16a8.76,8.76,0,0,0,5.42,6.44l0,.06c-.27,1.31.11,2.18,1.58,2.32l0,.05a3.25,3.25,0,0,0,2.87,3l.06.09c-.46,3,3.8,3.73,3.22,6.77-1.86.52-3.58-1.92-5.79,0a93.45,93.45,0,0,0,11.62,12.08c21.08,20.86,45,37.66,72.16,49.62.6.27,1.24.48,1.86.72,2.38,1,4.81,4.84,7.09-.13l1.85.9c.28,1.52,1.14,1.88,2.5,1.25a1.62,1.62,0,0,1,.81.34c.5,1.92,2,2.23,3.66,2.32a81.19,81.19,0,0,1,13,7.07c.89,2.23,2.9,2.59,4.91,3l1.41.64c1.94,2.65,4.36,4.21,7.82,3.43l1.73.32c7.9,4.18,16.41,6.07,25.26,6.71l1.75.21c4.43,2.52,9,4.39,14.23,2.85l2.73.27c1,4.08-2.24,2.42-3.65,2.45-7.05.14-13.9-1.81-20.72-3.15-6.58-1.3-13.38-1.79-19.76-3.77-7.49-2.31-15.41-2.9-22.68-6.45-2.29-1.12-5.85-3.38-9.54-1.85,1.95,2.3,4.39,2.93,6.6,3.93,2.73,1.24,1.91,2.06-.27,2.78L181.65,572c-.22-1.22-.86-3.14,1.41-2.23,2,.8,3,.3,3.19-1.41.3-2.21-1.78-1.11-2.76-1.51-10.45-4.28-20.92-8.5-31.59-12.41a19.05,19.05,0,0,0,9,5.13c.93.28,2.32.2,1.8,1.59-.41,1.11-1.66.79-2.6.36-4.5-2-9-4.07-13.49-6.19-1.68-.8-3.26-1.7-4.87,0l-8.69-5.75c-.19-1.76-1.54-1.88-2.86-2l-5.13-4c-.11-1.44-1-1.81-2.28-1.66l-2.94-2.06c.06-1.46-.57-2.16-2.07-1.92l-4.6-3.53c.18-4.71-4-6.67-6.45-9.47-6.24-7-12.95-13.57-19.46-20.32a.78.78,0,0,0-1.37.08l.14.11c-.76-5.13-5.53-7.23-8.25-10.88-5.89-6.78-11.6-13.75-19.55-18.34l-.07-.08c-.15-1.32-.26-2.66-2-2.88l0-.06c-.13-1.32-.18-2.69-1.93-2.95a269.65,269.65,0,0,1-32.27-75.93c-.33-1.27-.47-2.6-.7-3.91,1-1.1.39-1.72-.63-2.25l-.36-1.75c1.05-1.12.36-1.73-.66-2.25l-.28-1.75c1-1.09.31-1.7-.62-2.26l-1.37-6.31a17,17,0,0,0-.86-7.22c-3.3-12.17-6.67-24.29-7.88-36.95-.62-6.47-2.51-12.82-3.82-19.22l.06-10C6.47,293.2,6.3,286.29,7,279.48c.62-5.91.13-12.07,3-17.61.82,5-.34,9.92-1,15.95,2.61-5.3,1.24-10.1,2.6-14.47C11.94,262.37,10.72,262.19,10,261.93ZM270.62,14.57a53.41,53.41,0,0,0-25.52,3C254,20,261.94,13.91,270.62,14.57ZM8.59,302.36c-.52-7.2,1.34-14.17,1.2-21.35C7.1,288.14,7.52,295.3,8.59,302.36Z"/><path class="cls-4" d="M433.65,402.73c-17.67-.48-35.22-3.26-52.64-7.08-2.79-.61-4-2-4.46-4.51-2.67-14.87-4.48-29.86-6.23-44.85-.45-3.88,2.59-6.53,7.68-7.29,4.11-.61,4.54,2.13,5.59,5.27,6.47,19.23,16.71,35.71,36.65,43.33,12.05,4.61,24.18,3.58,34-5.61,11.11-10.37,10.35-29.7-.95-42.47-9.14-10.32-20.3-18.12-31.67-25.71-10.62-7.09-21.56-13.76-30.94-22.59-28.61-26.94-23.2-67.29,11.44-86.21,16.79-9.17,34.43-11.65,53-7.93,9.93,2,19.78,4.31,29.73,6.17,3.16.6,4.07,2.21,4.24,5,.89,14.6,1.74,29.21,2.82,43.8.24,3.25-1.23,4.14-3.92,4.37-6.35.52-7.56-.65-9.33-6.58-4.31-14.39-10.43-27.75-23.56-36.45-12.11-8-28.38-6.38-36.92,3.59-7.21,8.42-7.29,22.32-.18,33,8.25,12.33,20.27,20.47,32.05,28.87,12.56,8.94,26.4,16.09,37.13,27.59,17.87,19.16,22.55,55.85-2.93,78.28C469.85,397.46,452.79,402.67,433.65,402.73Z"/><path class="cls-4" d="M179,306.89c-6,.27-12,.5-17.94.83-1.89.1-3.84.5-4.13-2.19-.25-2.37,1.1-3,3.28-3.31,6.81-1.09,7.41-1.71,7.58-8.66.25-10,.15-20,.34-30,0-2.55-.73-3.59-3.38-3.56-9.82.1-19.65.06-29.47,0-2.46,0-3.59.92-3.54,3.57.2,10.16.37,20.32.28,30.48,0,5.09,2.08,7.79,7.15,8.09,2.22.12,4.12.64,3.89,3.36-.26,3.15-2.69,2.29-4.57,2.14a250.25,250.25,0,0,0-34.42-.08c-2,.12-4.63,1.27-5.08-2.13s2.23-3,4.31-3.22c4.6-.52,6.9-2.7,7.12-7.73.8-18.15.19-36.29.32-54.43a187.29,187.29,0,0,0-.33-19c-.44-4.57-2.29-7-7-7.14-2.37-.05-5-.2-4.4-3.75.51-3.26,3-1.93,4.72-1.79a200.37,200.37,0,0,0,34.38,0c2-.18,4.74-1.1,5.06,2.26.3,3.18-2.39,3.27-4.46,3.42-4.75.36-6.64,2.77-6.61,7.48.08,9-.1,18-.32,27-.08,2.84,1,3.79,3.79,3.77q14.49-.12,29,.06c2.85,0,3.74-1.08,3.67-3.85-.23-9-.38-18-.29-27,0-4.75-1.95-7.09-6.66-7.47-2.07-.16-4.66-.2-4.44-3.43.25-3.63,3.05-2.39,4.93-2.22a195.58,195.58,0,0,0,33.88,0c1.79-.15,4.28-1.22,4.85,1.85s-1.67,3.61-4,3.74c-5.21.32-7.1,3.1-7.07,8.19q.18,35.73,0,71.45c0,5.3,2,8.19,7.28,8.57,2.19.16,4.13.48,3.83,3.32-.34,3.22-2.63,2-4.54,2-5.66-.09-11.31,0-17,0Z"/><path class="cls-4" d="M292.91,307.92c-10.66,0-21.32,0-32,0-2,0-4.66.64-4.75-2.8-.07-3,2.17-2.7,4.16-2.94,4.52-.55,6.83-2.56,6.89-7.75q.39-36,0-71.94c-.06-5.52-2.08-8-7.4-8.21a10.56,10.56,0,0,1-1.49-.1c-1.86-.32-2.36-1.57-2.22-3.28.16-1.91,1.19-2.45,3-2.38,21.6.87,43.18-.24,64.77-.6,2.32,0,3.34.58,3.74,2.81q1.5,8.31,3.26,16.57c.3,1.44.55,2.72-1.17,3.24-1.5.46-3,.47-3.94-1.16-1.11-2-2.12-4.13-3.18-6.2-3.11-6.11-8.15-9-14.95-8.87-4.49.07-9,.21-13.46.28-3.93.06-5.64,1.94-5.6,5.93q.15,14.47-.09,29c-.05,2.8,1.11,3.94,3.69,4.16a78.72,78.72,0,0,0,15.95-.18c4.56-.55,6.21-4.06,7.45-7.74.64-1.93,1.25-3.64,3.61-3.15s1.58,2.53,1.59,4.1c0,7.33.05,14.66.09,22,0,1.52.13,3.18-1.81,3.59s-2.71-.93-3.26-2.42c-1.28-3.46-2.43-7.35-6.56-8.11a44.94,44.94,0,0,0-18.83.2c-1.54.38-1.91,1.62-1.89,3.1q.23,14.73.37,29.46c0,3.54,1.73,5.5,5.3,6a64.82,64.82,0,0,0,21.35-.06c8.64-1.66,11.87-8.94,15-16,1-2.18,1.75-3.61,4.64-3.17,2.49.38,2.74,1.54,2.07,3.34a221.58,221.58,0,0,0-6.89,21.27c-.75,2.93-4,1.87-6.05,1.9-10.49.2-21,.09-31.48.09Z"/><path class="cls-3" d="M195.6,577.35c2.18-.72,3-1.54.27-2.78-2.21-1-4.65-1.63-6.6-3.93,3.69-1.53,7.25.73,9.54,1.85,7.27,3.55,15.19,4.14,22.68,6.45,6.38,2,13.18,2.47,19.76,3.77,6.82,1.34,13.67,3.29,20.72,3.15,1.41,0,4.68,1.63,3.65-2.45,2.93-1.3,5.76,1.47,8.7.21-1.76-2.75-5.42-.76-7.41-3l-.09-1.73c9.48,3.66,19.34,4.29,29.38,4.09,4.25-.09,8.51.55,12.77.85,12,3.83,24.4,2,36.54,1.4,11.06-.59,22-3,33-4.69,1.67,2.71,4.1,1.21,6.15.94,4-.5,7.88-2.18,12.93-1.2-7.08,4.16-14.22,5.95-21.22,7.88-12.89,3.57-26.13,5.42-39.35,7.35a9.68,9.68,0,0,1-2.42-.28c.77-2-.11-2.86-2.08-2.59-15.45,2.08-31,.48-46.45,1-5,.17-9.84-1.24-14.8-1.05-1.27,0-3.27-.83-3.17,1.78-9.8.15-19.28-2.2-28.78-4C225,587.61,211,583,197.05,578.57,196.49,578.39,196.08,577.77,195.6,577.35Z"/><path class="cls-4" d="M378.54,580.59c-11,1.64-22,4.1-33,4.69-12.14.64-24.5,2.43-36.54-1.4,6.7.52,12.46-2.76,18.55-4.66,8.84,1.35,17.41-.83,26.05-2,7.33-1,14.61-3.22,21.94-3.36,12.33-.24,23.39-4.2,34.31-9.15a3.37,3.37,0,0,0,1.44-1.28c1.39-2.39,3.82-3.11,6.18-3.64,4.06-.91,7.32-3.24,10.67-5.46,11.36-4.16,22.84-7.95,33.81-13.21,8.71-4.17,16.35-10,24.89-14.37,1.26-.64,2.32-1.83,4.59-1.25a77.19,77.19,0,0,1-17.69,16A261.45,261.45,0,0,1,378.54,580.59Z"/><path class="cls-4" d="M569.56,195c-.06,2.8,1.34,5.19,2.62,7.44,1.05,1.84-1.07,4.26,1.49,5.77.43.25-1.44.81-2.25,1.22-1.75.88-2.39-.31-2.88-1.62a57.47,57.47,0,0,0-5.64-11.42c-5.29-8.14-10.31-16.46-15.24-24.83-1.9-3.22-5.49-6.25-2.28-10.74.75-1.05-.4-2.32-1-3.15a97.9,97.9,0,0,0-9.29-11.7c-3.64-3.75-6.66-8.4-10.35-12.38-3.25-3.51-6.26-7.17-10.38-9.8-1.28-.81-12.94-11.45-14.2-12l-.12-.1a1.85,1.85,0,0,0-1.93-1.88L496,107.69c-.33-2-.84-3.75-3.45-3.38l-.09-.09c-.63-3.86-3.93-4.74-6.8-6.08l0,0c.23-2.23-1.79-3-2.85-4.39-.56-.74-1.78-1.5-1-2.39.46-.5,1.84-.17,2.8-.22,33.2,23.69,58.7,54.14,78.56,89.53a1.71,1.71,0,0,0,1.1,2.55L567.5,190c-1,1.39-.27,1.92,1.07,2.14Z"/><path class="cls-3" d="M483.5,73.41c-6.8-5.7-13.69-11.3-20.34-17.16-1.84-1.62-3-4-4.44-6.09,7.41,3.47,14,8.28,20.51,13.1A272.84,272.84,0,0,1,518,98.66a2.41,2.41,0,0,1,.5,2c-9-6-15.1-15.41-24.58-21.38-.64,3.31,2.72,3.94,3.16,6.14-4.09,0-7.24-1.68-9.17-5.39.84-.31,1.26-.82.63-1.66a.8.8,0,0,0-.77-.07c-.72.48,0,1,0,1.59-2.18.83-5.22-1.52-6.73,1.81-3.94-.58-6.71-3.44-9.77-5.49a305.1,305.1,0,0,0-50.16-27.44c-1.15-.49-2.66-.58-3.21-2.07,1.65-1.07,2.72.49,4,.94,3.08,1,6,2.57,9.47,1.63a5.15,5.15,0,0,1,4.69,1.1c1.93,1.69,4.08,1.94,6.45,1.87a5.75,5.75,0,0,1,2.92.34c11.49,6.6,23.61,12.19,34,20.66a4.61,4.61,0,0,0,3.21,1c.15,1.23.8,2.48,2,1.49S484.22,74,483.5,73.41Zm8.27,3.33a4.31,4.31,0,0,0-1-.68c-.15,0-.43.29-.65.45a6.28,6.28,0,0,0,.94.78C491.13,77.34,491.43,77,491.77,76.74Z"/><path class="cls-3" d="M79.79,468c-4.81-1.72-6-6.73-8.91-10.13-8.84-10.31-15-22.32-19.46-35.1-.78-2.22-4-6.66,2.28-7.35a13.39,13.39,0,0,0,.1-2.3c3.3,1.1,3.41,5.61,7.83,6.81C56.28,406.1,51.54,392.72,49,378.23c2.86,1.81,3.06,4.51,3.64,6.77,4.16,16.22,10.24,31.67,16.95,47,5.78,13.2,14.36,24.32,22.69,35.69,9.51,13,21.21,24,33.19,34.64a3.89,3.89,0,0,1,1.45,2.51l.1-.08c-1.91.8-2.9-1.36-5.32-1.4,1.17,4.08,5.9,5.17,7.19,9-3.82,1.18-5.42-2.06-7-3.75-14.22-15.24-27.86-31-39.14-48.6-4.32-6.73-8.29-13.71-12.29-20.65-4.64-8.06-10.05-15.83-18.16-22.3a16.5,16.5,0,0,0,2.11,9.17,269.69,269.69,0,0,0,24.31,39.13C79.34,466.14,80.09,466.84,79.79,468Zm33.61,26.2-.78-1.11c-.21.18-.64.44-.6.54a5.61,5.61,0,0,0,.64,1.11Z"/><path class="cls-3" d="M386.88,39.37c-.39-2.51-2.82-3.37-4.22-5.09,1-1.5,3.22-1.83,3.94-1.38,8.92,5.56,20.07,6.06,28.51,12.64-6.91-1.36-12.89-5.32-19.69-7l-3.3-.82c-1.24-.88-2.39-2.06-4.19-1.36.61,1.64,2.14,1.63,3.22,2.29,1.3,1.37,3.09,1.74,4.72,2.48,22.76,10.23,43.38,24,62.59,39.69a249.27,249.27,0,0,1,20.41,19.1c6.82,7,13.76,13.93,20.3,21.2,4,4.41,7.37,9.36,11.8,15.07-7.33-3.08-10.26-9-14.4-13.45A277.36,277.36,0,0,0,455,86.17a271.75,271.75,0,0,0-27-17.41c-.78-.43-1.41-.85-1.06-1.88l-.06.09c10,4.08,18.5,11,29,17.06-1.85-4.94-5.27-6.2-7.93-8.06-11.15-7.84-22.06-16.13-33.85-22.9a162.47,162.47,0,0,0-19.52-9.39A24.82,24.82,0,0,1,386.88,39.37Zm71.21,44.75A1.58,1.58,0,0,0,456.31,83c-.26,0-.95.13-.7.89A1.59,1.59,0,0,0,457.4,85C457.65,85,458.47,84.89,458.09,84.12Zm5.06,4.38c-.22-.81-.55-1.37-1.29-1.36a3.31,3.31,0,0,0-1.29.36c.14.84.56,1.53,1.53,1.48C462.46,89,462.81,88.66,463.15,88.5Zm.77,2a7.81,7.81,0,0,0,1.23.48,1.64,1.64,0,0,0,.33-.69,9.1,9.1,0,0,0-1.17-.71Z"/><path class="cls-3" d="M286.15,389c-.35-2.15-3.62-4.44.29-6.4.66.12-.31,3.09,1.61.93.71-.81,1.27-1.76,1.9-2.64,4.41-.57,6.29-2.74,6.68-7.8-2.14.67-2.59,3.42-4.84,3.89-2.66.32-2.56-2.08-3.31-3.77-1.42,2.22.36,4.93-1.76,6.66l-1-4.72c-.93,2.12-1.57,3.44-2.09,4.81-1.22,3.22-2.37,6.37-6.37,2.44-1.73-1.7-2.71-.12-3.38,1.16-.88,1.68-2,4-3.84,2.67s.41-3.13,1.18-4.65c1.54-3.06,4.9-5.72,2.18-9.75-.72-1.08-.13-2,.76-2.51s1.6.11,2,.83c1,1.7,2.08,2.19,3.44.56,2.49-3,5.87-1.57,8.83-1.7,3.21-.15,1.63,3,2.44,4.57,1.91-.14,2.44-2.11,3.85-2.86,2-1,4.79-1.26,5.16.77,1.38,7.55,5.23,2.64,6.71,1,3.88-4.25,8.38-4.13,13-2.9,3.16.83,5.41-.25,7.87-1.75a3.59,3.59,0,0,1,5,.58c1.25,1.42,1.44,2.6-.56,3.46l-.73-1.61c-.17.23-.44.45-.5.71-.23,1.11.75.69,1.22.91-.11.89-.38,1.54-1.47,1.05-.38-.1-1-.38-1.09-.25-.58.67.07.91.55,1.18-.09.89-1,1.85.26,2.6l-.15-.4c-1.58-.41-3.46-1.71-3.85,1.33a1.84,1.84,0,0,0-1.13,2.13c-2-.29-2.75-1.66-2.65-3.48.11-2-.31-3.69-2.51-4.2-2.4-.56-4.76-.37-6.14,2a51.42,51.42,0,0,0-3.69,7.48c-.56,1.46-.66,3.18-2.71,2.61s-1.44-2.29-1.25-3.76c.17-1.25,1.44-2.33.46-4.05-3.94,2.86-8.54,4.61-12,8.23-2.08,2.18-6.51.82-7.55,4.79Zm40.5-14.88,1,.3-.12-1c-.6-1.24-.62-3.22-2.86-2.48-.56.19-1.44.84-1.4,1.2C323.54,374.11,325.1,374.17,326.65,374.14Zm-41.85.06c0-1.29-.81-1.6-1.3-1.3-2.08,1.27-4.33,2.52-4.29,5.46,0,.88.67,2,1.31,1.69C282.93,378.76,283.44,376,284.8,374.2Z"/><path class="cls-4" d="M540.72,360.77A87.71,87.71,0,0,1,534,374.61c-3.79,6.79-3.26,14.42-3.19,21.9,0,1.17,1.47,3-.48,3.37s-2.11-1.87-2.26-3.27c-.81-7.34.07-14.63,1.36-21.82a258.58,258.58,0,0,1,6.68-28.48,52.22,52.22,0,0,1,7.52-15.62c1.35.26,1.12,1.38,1.25,2.3a107.67,107.67,0,0,0-9,24.26c-.54,2.15-2.54,5.28-.34,6.21,3.2,1.33,1.94-3.35,3.77-4.5Z"/><path class="cls-3" d="M221.27,360.25c-.37,3.56-2.15,6.64-3.94,9.54-2.34,3.79-2.6,7.75-2.3,11.9.08,1-.69,2.61.89,2.93.74.15,1.84-.62,2.53-1.24,2.64-2.37,5.18-4.85,7.72-7.25.19,4-4.68,11-8.28,11.89-2.66.63-5.06-2.28-5.74-6.06-1.26-7.08.69-13.76,2.26-20.45.47-2-.22-2.58-1.49-3.35,0-1.53-1.37-1.37-2.24-1.84,8.58-1.08,6.7-9.6,10.08-14.38,1.21-1.71,1.69-3.9,4-4.69a.45.45,0,0,1,.37.24,3.79,3.79,0,0,1-.09.81c-.12,6.12-2.26,11.71-4.5,17.27-.61,1.51-1.57,3,.35,4.21Z"/><path class="cls-3" d="M428.11,554.31c-3.35,2.22-6.61,4.55-10.67,5.46-2.36.53-4.79,1.25-6.18,3.64a3.37,3.37,0,0,1-1.44,1.28c-10.92,4.95-22,8.91-34.31,9.15-7.33.14-14.61,2.34-21.94,3.36-8.64,1.19-17.21,3.37-26.05,2,3.69-2.5,8.05-1.5,12-1.84,29.93-2.6,58.39-10.47,85.77-22.6C426.19,554.39,427.05,553.76,428.11,554.31Z"/><path class="cls-4" d="M250.63,373.93c.62-2.09-1.25-3.16-2.11-4.78,6-1,5.68-6.64,7.51-10.48,1-2.06-1.44-1.39-2.59-1.42s-2.62-.62-2.62-1.79c0-1.82,1.66-.79,2.64-1.06,6.91-1.82,13.62-4.38,20.74-5.41,2.76-.4,5.53-1,8.28.67-5.16,1.37-10.47,1.91-15.55,3.47-4.92,1.51-10.08,7.57-10.51,12.58-.19,2.28,1.24,1.92,2.55,1.71,3.75-.62,7.5-1.3,12-2.1-2.08,3.36-5.06,3.46-7.72,4.13a1.58,1.58,0,0,0-2.36.37c-2.6,1-5.91.18-7.78,3.05C251.94,372.37,251.91,374.62,250.63,373.93Z"/><path class="cls-3" d="M42.55,218.27c-1-1.46-1.74-2-2.54.25-1.15,3.23-2.56,6.36-3.73,9.19-.81.47-1.13.34-1-.11,2.55-13.64,3-27.87,11.21-39.94,0,3.09-1.69,5.61-2.78,8.32-1.91,4.73-3.68,9.41-1.21,14.9L59,181l1.76.9Z"/><path class="cls-4" d="M175.1,389.88c-.28,1.22-.57,2.45-.85,3.67-2.35.78-1.26,2.64-1.31,4.14-4.72-1.66-2.27-5.79-1.69-7.93.68-2.5.73-5.12,1.55-7.55,1.28-.55,1.1-1.56.82-2.59a15.66,15.66,0,0,1,.57-2.93c1-2.47,0-3.05-2.25-2.53a33.92,33.92,0,0,1-3.36.88c-1.26.16-2.58-.41-2.68-1.66s1.3-1.37,2.27-1.33c6.55.25,8.86-3.78,9.93-9.4.74-3.88,1.88-7.69,2.88-11.53.28-1.07.51-2.63,2-2.29s1.11,1.91.85,3c-1.35,5.61-2.79,11.2-4.2,16.8,0,.92.07,1.85.1,2.77-3.85,3.17-2.95,8.11-4.55,12.13C172.2,385.63,174.27,387.75,175.1,389.88Z"/><path class="cls-3" d="M183.93,554.15c-2.28,5-4.71,1.12-7.09.13-1.43-4.68-6.21-5.36-9.51-7.66-12.63-8.81-24.25-18.83-35.84-28.92-1.05-.91-2-1.84-1-3.65,11.12,8.7,21.59,18.14,33.16,26.18C170.38,544.91,177.72,548.7,183.93,554.15Z"/><path d="M179.69,371.4c0-.92-.06-1.85-.1-2.77,3.73-.23,6.69-1.48,7.82-5.48a3.54,3.54,0,0,1,2.5-2.24c-.57,1.52-1.15,3-1.72,4.58-.36,1-.09,1.54,1,1.64,1.75.16,1.55-1.28,1.89-2.29,1-2.83,1-2.83-1.07-4.07.73-5,2.29,1.41,3.27-.24a3.05,3.05,0,0,1-.08,2.76c.66-.45.34-1.86,1.65-1.69,1.24,1.38-1.22,5.54,3.39,4.47a1.32,1.32,0,0,1,1.49,1.55c-.09,1.06-1,1.31-1.79,1.27-3.68-.16-5.52,1.17-6.53,5.11-1.35,5.29-2.74,10.44-2.27,15.93.12,1.45.66,3.39-1.54,3.47s-1.66-2-1.7-3.36a47.61,47.61,0,0,1,2.59-15.5c.32-1.05,2-3.31-.41-4.12-1.83-.6-3,.92-3.79,2.48-1.84,3.44-3.15,7.2-6.21,10-.39-3.13,1.77-5.25,3-7.67C182,373.26,182.51,371.86,179.69,371.4Z"/><path class="cls-3" d="M31.23,334.9c-2.66-7-3.12-14.34-3.15-21.7,0-4.42-.63-8.89.57-13.27,2.26,1.33-.21,4.27,2.42,6,0-17.17,4.07-33.38,7.52-49.69-1.48,8.52-3.38,17-4.32,25.58C33.16,292,31.74,302,31.41,312.23,31.16,319.8,31.85,327.35,31.23,334.9Z"/><path class="cls-3" d="M544.92,333c-.13-.92.1-2-1.25-2.3.85-2.48,2.82-2.6,4.81-1.95a4,4,0,0,1,2.77,4.7c-.93,7.21-3.77,13.84-6.77,20.34-1.08,2.35-.85,5.58-3.76,7l-1.4-1.81A37,37,0,0,1,544,348.82c2.59-4.15,3.2-9.2,3.21-14.18C547.16,333,546.25,332.75,544.92,333Z"/><path class="cls-4" d="M540,379.86c0-5.53,3.92-8,8.11-10.18a3.2,3.2,0,0,1,4.37,1.14c1,1.38.48,2.81-.45,4.12-2.61,3.71-6.25,5-10.63,4.65C540.77,379.09,540.33,379.29,540,379.86Z"/><path class="cls-4" d="M588.39,248.67q-.35,2.88-.67,5.78l-1.39.31c-4.58-12.36-5.41-25.77-10.51-39.18l3.46,2.39,4.11,11.59c.44,4.46,1.3,8.8,3.87,12.62.1.58.2,1.17.29,1.76-.87.93-.63,1.58.52,2Z"/><path class="cls-4" d="M194.86,361.6c-1.31-.17-1,1.24-1.65,1.69a3.05,3.05,0,0,0,.08-2.76c.13-.44.26-.88.4-1.32,3-2.22,1.56-5.59,2.14-8.43,1.35-3.88,2.72-7.75,4-11.64.39-1.17.75-2.34,2.28-1.9s1.37,1.62.92,2.8Q199,350.83,194.86,361.6Z"/><path class="cls-3" d="M250.63,373.93c1.28.69,1.31-1.56,2.51-1.06.67,1.83-.46,3.38-.91,5-.59,2.11-1.56,4.6.15,6s4.05-.15,6-1.12,3.75-1.88,6-3c-1.49,4.1-6.62,8.14-10.24,8.52a4.65,4.65,0,0,1-5-3.32C248.09,381.21,247.1,377.15,250.63,373.93Z"/><path class="cls-3" d="M25.28,298.93a5.53,5.53,0,0,1,.41,4.81c-3.22,11.18-1.1,22.66-2.09,34.06-2.52-12.26-1.29-24.56-1.43-36.8,0-1.12-.26-2.38,1-3.12C23.82,298.36,24.3,299.15,25.28,298.93Z"/><path class="cls-4" d="M481,81.7c1.51-3.33,4.55-1,6.73-1.81l.18.15c1.93,3.7,5.08,5.34,9.17,5.38l.32.22c1.13,4.39,5.09,6,8.22,8.47l2.45,2.63c-.37,4-2.76.23-4,1l-.1-.06c-.5-1.73-1.47-2.77-3.44-2.37l-.1-.1c0-3.08-2.53-2.85-4.47-3.4l0,0c-.39-2.19-2-2.83-3.91-3l-.07,0c-.47-2.16-2.07-2.76-4-2.91l0,0c-.15-1.88-1.57-1.9-2.93-2l0,0c-.14-1.43-.69-2.11-2.12-1.13Z"/><path class="cls-4" d="M266.82,578.94l.09,1.73-4-.61c-.6-1-1.45-1-2.39-.54l-5.36-1.22c-.45-1.09-1.05-1.8-2.25-.8l-1.72-.3a1.68,1.68,0,0,0-2.65-.83l-1.62-.27a1.54,1.54,0,0,0-2.37-.74l-9.4-3c-.46-1.86,1.26-1.63,2.13-2.21l2.61.45a1.44,1.44,0,0,0,2.35.65l1.65.22c4.94,2.84,10.52,2.7,15.93,3.39Z"/><path class="cls-3" d="M484.66,91.11c-1,0-2.34-.28-2.8.22-.81.89.41,1.65,1,2.39,1.06,1.39,3.08,2.16,2.85,4.39L465.14,80.63C472.66,82.44,479.38,85.49,484.66,91.11Zm-7.13-1.83a18.87,18.87,0,0,0,2.14.9.79.79,0,0,0,.69-.32c.17-.9-.62-.92-1.15-1C478.87,88.76,478.46,89,477.53,89.28Zm0-1.39-.3-.73-1.06.48c.22.18.43.45.69.52S477.3,88,477.54,87.89Z"/><path class="cls-3" d="M102.82,503.94A93.45,93.45,0,0,1,91.2,491.86c2.21-1.91,3.93.53,5.79,0l0-.05c-.08,2.57,1.49,3.45,4.13,4.1l-1.68-3.51.6-.61a43.09,43.09,0,0,1,9.31,11.93c-3.36-.14-4.29-3.27-6.69-3.62-.34-.55-.87-1.34-1.42-.92-.9.68-.21,1.39.46,1.93C102.09,502,103.06,502.74,102.82,503.94Z"/><path class="cls-4" d="M515.65,382.61a5.7,5.7,0,0,1-.69.7c-2.08,1.46-3.41,5.53-6.69,3.22s-1.19-5.75.29-8c2.25-3.41,3.43-8.64,9.37-7.77-.06.86-.11,1.71-.17,2.57a17.64,17.64,0,0,0-8.13,10.54l4.25-3Z"/><path class="cls-3" d="M61.79,163c-1.12-.26-3.18.23-2-2,.84-1.66.59-3.93,2.63-5,.78,0,1.62,0,1.53-1.16l-.13.11c1.19-.26,2.43-.49,1-2l-.16-.17c1.16,1.64,2,.4,2.48-.48.69-1.15,1.18-1.93,2.55-.77a2,2,0,0,1,.57,2.92C68.32,158.18,64.73,160.24,61.79,163Z"/><path class="cls-3" d="M356.11,379.88c-4.8-4.14-5-10-.47-12.82,1.3-.81,2.49-.92,3.58.22s1,2.19-.31,2.87c-5.43,2.71-2.65,6.05-.81,9.35Z"/><path class="cls-3" d="M223.82,352.63c.74,2.06,2.28,2.53,4.32,2.44,2.82-.11,5.65,0,8.48.1,1.54.07,3.46.59,3.18,2.36-.35,2.25-2.2,1-3.6.8-5.11-.54-10.49-2.84-14.93,1.92l-.43-.47Z"/><path class="cls-3" d="M205.12,380.11c-.2,1-1,1.26-1.8,1.38-1.89.29-3.32-.27-3.6-2.35-.5-3.7-.27-7.25,3.06-9.72,2.25-1.67,4.31-.22,5.74,1.18,1.66,1.61,1.91,3.78-.39,5.44-.41-1.17.67-3-1.48-3.41-3.63.1-4.27,2.55-4.27,5.48-.26.62-1.56.85-.76,1.87C202.71,381.39,204,379.49,205.12,380.11Z"/><path class="cls-3" d="M259.84,574.87c-5.41-.69-11-.55-15.93-3.39l3.14-1c-1.42-1.57-3.8-.45-4.7-2.07C247.77,568.21,256.8,571.51,259.84,574.87Z"/><path class="cls-4" d="M548.81,382.05l1.87-.33c1,.19,1.94.37,2.44-.84l1.36-.23c.24.84.47,1.69.7,2.54a80.83,80.83,0,0,1-8.36,2.62c-3,.6-5.49-.2-6.05-3.78C543.45,383,546.13,383.58,548.81,382.05Z"/><path class="cls-4" d="M223.82,352.63l-3,7.15c-1.92-1.25-1-2.7-.35-4.21,2.24-5.56,4.38-11.15,4.5-17.27,3.17.48,2.11,2.79,1.7,4.48C225.9,346.1,224.79,349.35,223.82,352.63Z"/><path class="cls-3" d="M246.91,580.08c-8.85-.64-17.36-2.53-25.26-6.71C230.18,575.2,238.73,577,246.91,580.08Z"/><path class="cls-4" d="M520.94,373.73c2.5,0,3,1.68,2.79,3.69-.3,3.27-.69,6.52-1.06,9.78-.08.63-.18,1.39-1,1.4-1.07,0-1.35-.9-1.4-1.64-.15-2.12-.12-4.26-.16-6.39a5.63,5.63,0,0,0-.68-5l1-1.69.34.18Z"/><path class="cls-3" d="M555.18,383.19c-.23-.85-.46-1.7-.7-2.54l12.07-6.28C563.71,378.69,559.58,381.12,555.18,383.19Z"/><path class="cls-4" d="M343.11,372.15a15.86,15.86,0,0,1,1-1.64c1.29-1.67,2.26-5.18,4.94-3,2.85,2.35-2,2.3-2.16,4.09-.08.75-.77,1.43-1.17,2.14C343.82,374.85,343.94,372.75,343.11,372.15Z"/><path class="cls-3" d="M343.11,372.15c.83.6.71,2.7,2.6,1.63q1.6,3,3.22,6.05l-1.91.35c-.27-.19-.66-.32-.79-.57-2.17-4.17-5.13-6.19-9.81-3.72l-1.68-.2A14.94,14.94,0,0,1,343.11,372.15Z"/><path class="cls-3" d="M126.93,504.86c5.3,4,11.2,7.29,14.93,13.07l.07-.09c-5.72-3.49-11.53-6.89-14.9-13.06Z"/><path class="cls-4" d="M286.15,389l.88.18c0,.78,0,1.56,0,2.34a53.66,53.66,0,0,0-2.4,16.31l-.13,1.8c-1.13.35-2-.41-2.88-.79l.12-3c1.06-.58,1-1.43.55-2.37.08-1.21.17-2.41.25-3.62,1.75-1.1,1.29-2.71,1-4.28.15-.58.31-1.16.46-1.74,1.12-.93,1-2.07.53-3.26Z"/><path class="cls-3" d="M237.3,570.16c-.87.58-2.59.35-2.13,2.21a22.48,22.48,0,0,1-11.72-5C228.1,568.27,233.08,567.35,237.3,570.16Z"/><path class="cls-4" d="M347,380.18l1.91-.35h0c.54,2.16-1,3.52-2,5.09-2.44,1.58-4.87,3.15-6.83-1.21C343.22,383.88,345.66,383,347,380.18Z"/><path class="cls-3" d="M284.67,407.85a53.66,53.66,0,0,1,2.4-16.31A30.74,30.74,0,0,1,284.67,407.85Z"/><path class="cls-3" d="M28.73,288.06l-2.06.15c-.19-4.17,1.21-8,2.72-11.82C29.83,280.33,30.56,284.26,28.73,288.06Z"/><path class="cls-3" d="M51.8,410c-1.49.37-3.08-3.91-4.84.17-.19.43-2.77-2.32-2.54-4.62C48.12,405,51.09,405.6,51.8,410Z"/><path class="cls-4" d="M334.74,375.69l1.68.2c-2.84,4.13-6.9,4.52-11.35,3.69a1.84,1.84,0,0,1,1.13-2.13c1.31-.35,3.15.82,3.85-1.33l.15.4C331.86,377.06,333.19,375.79,334.74,375.69Z"/><path class="cls-3" d="M262.89,583.14c-5.24,1.54-9.8-.33-14.23-2.85A40.55,40.55,0,0,1,262.89,583.14Z"/><path class="cls-3" d="M505.63,94.11c-3.13-2.44-7.09-4.08-8.22-8.47C501,87.65,504.26,90,505.63,94.11Z"/><path class="cls-3" d="M504.12,97.76c1.2-.79,3.59,3,4-1,2.12,1,2.66,3.09,3.86,5.51C508.11,102,506,100.12,504.12,97.76Z"/><path class="cls-3" d="M519.38,375.55a5.63,5.63,0,0,1,.68,5l-4.41,2-1.77-1.7C515.76,379.17,516.36,376.12,519.38,375.55Z"/><path class="cls-4" d="M290,380.91c-.63.88-1.19,1.83-1.9,2.64-1.92,2.16-.95-.81-1.61-.93.09-.91.18-1.82.28-2.73,2.12-1.73.34-4.44,1.76-6.66.75,1.69.65,4.09,3.31,3.77C291.18,378.3,290.56,379.6,290,380.91Z"/><path class="cls-3" d="M587.26,242.18c-2.57-3.82-3.43-8.16-3.87-12.62A28.17,28.17,0,0,1,587.26,242.18Z"/><path class="cls-3" d="M526.67,108.43c-2.32-1.88-5.59-2.77-6.69-6.12C522.43,102.66,522.43,102.66,526.67,108.43Z"/><path class="cls-4" d="M205.12,380.11c-1.15-.62-2.41,1.28-3.5-.13-.8-1,.5-1.25.76-1.87,2.83-.73,3.56-3.1,4.27-5.48,2.15.42,1.07,2.24,1.48,3.41A8,8,0,0,1,205.12,380.11Z"/><path class="cls-3" d="M548.81,382.05c-2.68,1.53-5.36.93-8,0-.93-.48-2.22-.82-.82-2.17.38-.57.82-.77,1.4-.27C542.92,383.2,546.58,380.46,548.81,382.05Z"/><path class="cls-3" d="M97,491.87c.58-3-3.68-3.79-3.22-6.77a15.29,15.29,0,0,1,6.23,6.7l-.6.61c-.78-.36-1.35-1.57-2.45-.59Z"/><path class="cls-3" d="M195.83,350.78c-.58,2.84.89,6.21-2.14,8.43C191.31,355.61,193.61,353.21,195.83,350.78Z"/><path class="cls-3" d="M485.7,98.14c2.87,1.34,6.17,2.22,6.8,6.08C489.64,102.85,487.15,101.08,485.7,98.14Z"/><path class="cls-3" d="M89.18,479.58a8.76,8.76,0,0,1-5.42-6.44C86.43,474.56,88.48,476.51,89.18,479.58Z"/><path class="cls-3" d="M219.92,573.05c-3.46.78-5.88-.78-7.82-3.43C214.8,570.53,217.77,570.87,219.92,573.05Z"/><path class="cls-3" d="M346.94,384.93c1-1.57,2.53-2.93,2-5.09,1.78.7,1.42,2.51,2,3.85l-.06,2.23C349.48,385.82,348.58,383.93,346.94,384.93Z"/><path class="cls-4" d="M210.68,356.32c.87.47,2.25.31,2.24,1.84l-2.62.31a2.69,2.69,0,0,0-3.37.45l-4,0v-2.26Z"/><path class="cls-4" d="M350.84,385.92l.06-2.23,4.44-1.39,1.55,1.14C355.7,386.28,353.77,387.31,350.84,385.92Z"/><path class="cls-3" d="M37.38,383.14a7.88,7.88,0,0,1-1.77-7.65A10.41,10.41,0,0,1,37.38,383.14Z"/><path class="cls-3" d="M141.86,517.93c3.15.68,3.15.68,6.2,4.34-2.72-1.34-4.73-2.43-6.13-4.43Z"/><path class="cls-3" d="M175.1,389.88c-.83-2.13-2.9-4.25,0-6.35C176.16,385.65,176.69,387.77,175.1,389.88Z"/><path class="cls-3" d="M496,91.83c1.94.55,4.46.32,4.47,3.4C498.51,94.73,496.76,93.94,496,91.83Z"/><path class="cls-3" d="M172.94,397.69c.05-1.5-1-3.36,1.31-4.14.23,1.92,1.43,4.09-1.32,5.26l0,0Z"/><path class="cls-3" d="M39.47,390.12a4.58,4.58,0,0,1-1.77-5.23A6,6,0,0,1,39.47,390.12Z"/><path class="cls-3" d="M281.66,408.86c.93.38,1.75,1.14,2.88.79.51,1.08.24,2-1,2C282,411.51,280.91,410.72,281.66,408.86Z"/><path class="cls-3" d="M210.69,569c-2-.36-4-.72-4.91-3C207.92,566.18,209.73,566.89,210.69,569Z"/><path class="cls-3" d="M32.22,348.89c-1.51-1.14-1.39-2.51-.54-4C33.14,346.06,33,347.44,32.22,348.89Z"/><path class="cls-3" d="M492.59,104.31c2.61-.37,3.12,1.41,3.45,3.38A5.07,5.07,0,0,1,492.59,104.31Z"/><path class="cls-3" d="M492.06,88.8c1.94.17,3.52.81,3.91,3A4.24,4.24,0,0,1,492.06,88.8Z"/><path class="cls-3" d="M520.94,373.73l-.23.31-.35-.18c-1,.51-1.78-.13-2.6-.52.06-.86.11-1.71.17-2.57A4.39,4.39,0,0,1,520.94,373.73Z"/><path class="cls-3" d="M34.41,366.14c-1.86-1.26-1.4-2.94-.82-4.63C35.14,362.82,34.93,364.46,34.41,366.14Z"/><path class="cls-3" d="M82.77,472c-2.2-.4-2.79-2-3-4C81.58,468.77,82.81,469.9,82.77,472Z"/><path class="cls-3" d="M488,85.85c1.93.15,3.53.75,4,2.91C489.89,88.85,488.73,87.64,488,85.85Z"/><path class="cls-3" d="M283.56,395.6c.31,1.57.77,3.18-1,4.28C282,398.23,281.85,396.71,283.56,395.6Z"/><path class="cls-3" d="M93.71,485a3.25,3.25,0,0,1-2.87-3C92.71,482.13,93.86,483,93.71,485Z"/><path class="cls-3" d="M500.58,95.33c2-.4,2.94.64,3.44,2.37C502.19,97.91,501.19,96.9,500.58,95.33Z"/><path class="cls-4" d="M356.11,379.88l2-.38.13.13c0,.85.07,1.71.1,2.56l-1.44,1.25-1.55-1.14C355.59,381.49,355.85,380.68,356.11,379.88Z"/><path class="cls-3" d="M422.82,65A4,4,0,0,1,426.88,67l.06-.09A3.76,3.76,0,0,1,422.89,65Z"/><path class="cls-3" d="M35.27,371.88c-1.4-.77-1.43-1.79-.56-3C36,369.69,36,370.71,35.27,371.88Z"/><path class="cls-3" d="M284.55,390.6c.49,1.19.59,2.33-.53,3.26A2,2,0,0,1,284.55,390.6Z"/><path class="cls-3" d="M192.75,559c-1.65-.09-3.16-.4-3.66-2.32C190.66,556.87,192.21,557.12,192.75,559Z"/><path class="cls-3" d="M206.93,358.92a2.69,2.69,0,0,1,3.37-.45C209.32,359.65,208.14,359.44,206.93,358.92Z"/><path class="cls-3" d="M26.66,269.89a2,2,0,0,1,.71-3.27C27.85,267.86,28.12,269.06,26.66,269.89Z"/><path class="cls-3" d="M202.93,356.62v2.26c-1.26.22-1.94-.35-1.72-1.57C201.37,356.48,202,355.85,202.93,356.62Z"/><path class="cls-3" d="M26.29,291.92c.94,1.33.76,2.43-.67,3.27C25,293.94,24.92,292.78,26.29,291.92Z"/><path class="cls-3" d="M33.24,357.89c-1.56-.86-1.26-2.09-.68-3.37C33.8,355.44,34.14,356.54,33.24,357.89Z"/><path class="cls-3" d="M455.67,48.13c-1.38-.05-2.76-.11-2.95-2A2.46,2.46,0,0,1,455.67,48.13Z"/><path class="cls-3" d="M485,83.83c1.36.1,2.78.12,2.93,2A2.49,2.49,0,0,1,485,83.83Z"/><path class="cls-3" d="M482.86,82.66c1.43-1,2-.3,2.12,1.13C484,83.91,483.19,83.74,482.86,82.66Z"/><path class="cls-3" d="M260.92,369.82a1.58,1.58,0,0,1,2.36-.37C262.64,370.55,261.85,370.61,260.92,369.82Z"/><path class="cls-3" d="M358.33,382.19c0-.85-.07-1.71-.1-2.56C360.16,380.41,359.37,381.29,358.33,382.19Z"/><path class="cls-3" d="M28.69,259.9c-1.05-1.19-.32-1.78.75-2.26A1.48,1.48,0,0,1,28.69,259.9Z"/><path class="cls-3" d="M282.33,403.5c.45.94.51,1.79-.55,2.37C280.51,404.74,281.22,404.08,282.33,403.5Z"/><path class="cls-3" d="M588.07,245.92c-1.15-.4-1.39-1-.52-2C588.6,244.37,588.77,245,588.07,245.92Z"/><path class="cls-3" d="M27.67,264.9c-1.05-1.09-.28-1.7.6-2.29C28.83,263.57,28.74,264.36,27.67,264.9Z"/><path class="cls-3" d="M90.81,482c-1.47-.14-1.85-1-1.58-2.32C90.62,479.82,91,480.71,90.81,482Z"/><path class="cls-3" d="M568.57,192.1c-1.34-.22-2.05-.75-1.07-2.14C568.74,190.23,568.78,191.1,568.57,192.1Z"/><path class="cls-3" d="M564.32,183.19a1.71,1.71,0,0,1-1.1-2.55A1.76,1.76,0,0,1,564.32,183.19Z"/><path class="cls-3" d="M173.62,379.62c.28,1,.46,2-.82,2.59C171.67,380.9,172.53,380.22,173.62,379.62Z"/><path class="cls-3" d="M553.12,380.88c-.5,1.21-1.47,1-2.44.84C551.15,380.45,552,380.15,553.12,380.88Z"/><path class="cls-3" d="M188.28,556.3c-1.36.63-2.22.27-2.5-1.25A2.06,2.06,0,0,1,188.28,556.3Z"/><path class="cls-3" d="M25.74,274.9c-1.11-1.1-.4-1.73.59-2.29C26.89,273.57,26.81,274.36,25.74,274.9Z"/><path class="cls-3" d="M24.71,280.89c-1.09-1.1-.33-1.71.59-2.28A1.41,1.41,0,0,1,24.71,280.89Z"/><path class="cls-3" d="M242.26,571.26a1.44,1.44,0,0,1-2.35-.65C241,569.63,241.68,570.28,242.26,571.26Z"/><path class="cls-3" d="M498.11,109.78a1.85,1.85,0,0,1,1.93,1.88C498.49,112,497.93,111.25,498.11,109.78Z"/><path class="cls-3" d="M244.57,575.36a1.54,1.54,0,0,1,2.37.74C245.77,577.05,245.14,576.3,244.57,575.36Z"/><path class="cls-3" d="M248.56,576.37a1.68,1.68,0,0,1,2.65.83A1.73,1.73,0,0,1,248.56,576.37Z"/><path class="cls-3" d="M252.93,577.5c1.2-1,1.8-.29,2.25.8A1.45,1.45,0,0,1,252.93,577.5Z"/><path class="cls-3" d="M260.54,579.52c.94-.45,1.79-.51,2.39.54C261.88,581,261.21,580.28,260.54,579.52Z"/><path class="cls-3" d="M422.89,65c-.88-.25-2-.14-2.28-1.54A2,2,0,0,1,422.82,65Z"/><path class="cls-4" d="M329.94,373.92c-.48-.27-1.13-.51-.55-1.18.11-.13.71.15,1.09.25Z"/><polygon class="cls-3" points="172.93 398.81 172.85 398.95 172.96 398.85 172.93 398.81"/><path class="cls-3" d="M59.16,127.2c1.13,3-.92,5.19-2.25,7.43-3.67,6.21-6.29,13.07-11.38,18.4-2.71-.36-3.77,1.23-3.32,5l.17.19c-3.31-1.67-3.38,2-4,3.1q-8.31,15-15.91,30.35c-6.66,13.47-11.37,27.72-16.15,41.93-1.09,3.23-2,6.54-3.18,10.63-1.17-1.84-1.05-2.9-.48-4.12,4-8.56,5.15-18,8.45-26.83a351.38,351.38,0,0,1,44.78-83.22C56.73,128.92,57.43,127.39,59.16,127.2Z"/><path class="cls-3" d="M124.1,68.56l-.59.53c-1.79-1.54-2.74-.49-3.5,1.14l.2-.13c-1.5.27-2.92.58-1.18,2.42-10.77,8.76-21.5,17.56-32.35,26.22-1.33,1.05-2.91,2.23-4.91,2,6.69-9,15.27-16.08,23.7-23.22a294.53,294.53,0,0,1,39-28c1-.63,2.07-1.81,4.5-.9-6.86,4.88-13.32,9.42-19.71,14.06-1.16.84-3.81,1.09-2.06,3.66l-.15-.17c-1-1.49-2-.31-2.83.21S122.68,67.74,124.1,68.56Z"/><path class="cls-3" d="M238.18,15.52c-7.85,4.42-16.52,6.84-24.82,10.14A71.57,71.57,0,0,0,199,33.17c-2.25,1.54-4.79,3-7.75,3-1.48-2.54-3.3-.86-5.13-.54-2.91.51-5.62,2.94-9.27.87,4-3.4,8.61-4.87,13-6.83,14.89-6.6,30.62-10.48,46.34-14.41A5.74,5.74,0,0,1,238.18,15.52Z"/><path class="cls-3" d="M288.9,9.69c-3.86,2.78-7.95,1.06-12,.59C280.85,8.59,284.86,8.9,288.9,9.69Z"/><path class="cls-3" d="M320.88,10.32c-3.7.49-7.48,2.22-11-.64C313.62,8.94,317.32,8.34,320.88,10.32Z"/><path class="cls-3" d="M11.34,238.55c.11,2.39.15,4.76-1.68,6.67C8.87,242.65,10,240.57,11.34,238.55Z"/><path class="cls-3" d="M271.18,10.6c-1.52,1.88-3.35,1.53-5.24.73C267.5,9.75,269.33,10.11,271.18,10.6Z"/><path class="cls-3" d="M249.18,13.54c-.81,1.57-1.94,1.56-3.25.66C246.81,13,248,13,249.18,13.54Z"/><path class="cls-3" d="M243.18,14.54c-.79,1.56-1.92,1.58-3.24.7C240.77,13.84,241.93,14,243.18,14.54Z"/><path class="cls-3" d="M13.46,230.58c.71,1.21.34,2.06-.88,2.63C12,232,12.44,231.21,13.46,230.58Z"/><path class="cls-3" d="M16.3,220.94c1,1.16.32,1.77-.72,2.27A1.49,1.49,0,0,1,16.3,220.94Z"/><path class="cls-3" d="M17.35,216.56a1.69,1.69,0,0,1-.7,2.66A1.82,1.82,0,0,1,17.35,216.56Z"/><path class="cls-3" d="M60.78,124.78c.21,1.27-.15,2.15-1.56,2.35A1.78,1.78,0,0,1,60.78,124.78Z"/><path class="cls-3" d="M293.17,9.56c-.11.7-.42,1.31-1.18,1.36s-1.13-.5-1.08-1.27A1.52,1.52,0,0,1,293.17,9.56Z"/><path class="cls-3" d="M260.92,11.72c-.43,1.08-1.06,1.38-2,.51C259.36,11.14,260,10.94,260.92,11.72Z"/><path class="cls-3" d="M254.19,12.68c-.57,1-1.21,1.63-2.26.53A1.43,1.43,0,0,1,254.19,12.68Z"/><path class="cls-3" d="M58.25,475.66c8,4.59,13.66,11.56,19.55,18.34H74.74c4.28,3.72,6.58,8.52,11.31,10.88l-.14-.11c.51,1.06.93.25,1.37-.08C93.79,511.44,100.5,518,106.74,525c2.5,2.8,6.63,4.76,6.45,9.47C100.9,526,90.71,515.22,80.62,504.35,72.86,496,66,486.91,59,477.92A6.88,6.88,0,0,1,58.25,475.66Z"/><path class="cls-3" d="M4.76,309.89c1.31,6.4,3.2,12.75,3.82,19.22,1.21,12.66,4.58,24.78,7.88,36.95a17,17,0,0,1,.86,7.22c-3.1,1.53-.51,4.47-1.84,6.76-2.47-2-2.64-5-3.36-7.59A205.14,205.14,0,0,1,5,323.61C4.82,319,3.41,314.49,4.76,309.89Z"/><path class="cls-3" d="M54.21,469.69c1.75.26,1.8,1.63,1.93,2.95C54.52,472.3,54.08,471.18,54.21,469.69Z"/><path class="cls-3" d="M56.19,472.7c1.73.22,1.84,1.56,2,2.88C56.5,475.32,56.11,474.17,56.19,472.7Z"/><path class="cls-3" d="M130.21,547.63c1.32.15,2.67.27,2.86,2A2.46,2.46,0,0,1,130.21,547.63Z"/><path class="cls-3" d="M20.61,387.6c1,.53,1.67,1.15.63,2.25A1.47,1.47,0,0,1,20.61,387.6Z"/><path class="cls-3" d="M19.59,383.6c1,.52,1.71,1.13.66,2.25A1.45,1.45,0,0,1,19.59,383.6Z"/><path class="cls-3" d="M117.79,538c1.5-.24,2.13.46,2.07,1.92A2,2,0,0,1,117.79,538Z"/><path class="cls-3" d="M122.8,542c1.27-.15,2.17.22,2.28,1.66C123.85,543.74,123,543.33,122.8,542Z"/><path class="cls-3" d="M18.69,379.59c.93.56,1.66,1.17.62,2.26C18.23,381.34,18.18,380.54,18.69,379.59Z"/><path class="cls-4" d="M166.07,565.3c-.09-1-2.17-3.44,1.11-2.42,2.71.84,5.56,2,7.71,4.32-2.35,1.59-3.82-2.11-5.95-.7l-1.82.18-.08-.07C167.46,565.62,166.63,565.56,166.07,565.3Z"/><path class="cls-2" d="M167.12,566.68l1.82-.18c1.52,2.23,4.55,2.1,6.29,4l-1.07,1C171.66,570.13,167.79,570.73,167.12,566.68Z"/><path class="cls-2" d="M166.07,565.3c.56.26,1.39.32,1,1.31-.94,1.78-2.54.17-2.59-.08C164.24,565.49,165.47,565.7,166.07,565.3Z"/><path class="cls-3" d="M270.62,14.57c-8.68-.66-16.58,5.45-25.52,3A53.41,53.41,0,0,1,270.62,14.57Z"/><path class="cls-2" d="M86.05,504.88c-4.73-2.36-7-7.16-11.31-10.88H77.8C80.52,497.65,85.29,499.75,86.05,504.88Z"/><path class="cls-3" d="M8.59,302.36C7.52,295.3,7.1,288.14,9.79,281,9.93,288.19,8.07,295.16,8.59,302.36Z"/><path class="cls-3" d="M10,261.93c.76.26,2,.44,1.67,1.42-1.36,4.37,0,9.17-2.6,14.47.66-6,1.82-10.95,1-15.95Z"/><path class="cls-3" d="M415.82,34c2.51.46,5,1.07,7,2.81-2.52-.41-5.43.25-6.94-2.88Z"/><path class="cls-2" d="M42.21,158c-.45-3.76.61-5.35,3.32-5C45.08,155.12,44.34,157,42.21,158Z"/><path class="cls-2" d="M124.1,68.56c-1.42-.82-.56-1.71.15-2.18s1.79-1.7,2.83-.21C126.87,67.94,125.67,68.48,124.1,68.56Z"/><path class="cls-2" d="M119,72.52c-1.74-1.84-.32-2.15,1.18-2.42C121.53,71.74,119.67,71.83,119,72.52Z"/><path class="cls-2" d="M120,70.23c.76-1.63,1.71-2.68,3.5-1.14C122.57,70.18,121.73,71.56,120,70.23Z"/><path class="cls-2" d="M87.28,504.69c-.44.33-.86,1.14-1.37.08A.78.78,0,0,1,87.28,504.69Z"/><path class="cls-2" d="M64.77,152.87c1.45,1.54.21,1.77-1,2C63.22,153.79,63.53,153.11,64.77,152.87Z"/><path class="cls-2" d="M63.92,154.79c.09,1.18-.75,1.12-1.53,1.16C62.73,155.34,62.93,154.54,63.92,154.79Z"/><path class="cls-4" d="M483.5,73.41c.72.63,2.34,1.24,1.07,2.29s-1.84-.26-2-1.49Z"/><path class="cls-4" d="M487.74,79.89c0-.54-.68-1.11,0-1.59a.8.8,0,0,1,.77.07c.63.84.21,1.35-.63,1.66Z"/><path class="cls-2" d="M491.77,76.74c-.34.26-.64.6-.73.55a6.28,6.28,0,0,1-.94-.78c.22-.16.5-.5.65-.45A4.31,4.31,0,0,1,491.77,76.74Z"/><path class="cls-2" d="M113.4,494.18l-.74.54a5.61,5.61,0,0,1-.64-1.11c0-.1.39-.36.6-.54Z"/><path class="cls-2" d="M391.15,38.65c-1.08-.66-2.61-.65-3.22-2.29,1.8-.7,2.95.48,4.19,1.36Z"/><path class="cls-2" d="M458.09,84.13c.38.76-.44.83-.69.85a1.59,1.59,0,0,1-1.79-1.14c-.25-.76.44-.88.7-.89A1.58,1.58,0,0,1,458.09,84.13Z"/><path class="cls-2" d="M463.15,88.5c-.34.16-.69.47-1,.48-1,0-1.39-.64-1.53-1.48a3.31,3.31,0,0,1,1.29-.36C462.6,87.13,462.93,87.69,463.15,88.5Z"/><path class="cls-2" d="M463.92,90.47l.39-.92a9.1,9.1,0,0,1,1.17.71,1.64,1.64,0,0,1-.33.69A7.81,7.81,0,0,1,463.92,90.47Z"/><path class="cls-2" d="M290,380.91c.61-1.31,1.23-2.61,1.84-3.91,2.25-.47,2.7-3.22,4.84-3.89C296.24,378.17,294.36,380.34,290,380.91Z"/><path class="cls-2" d="M284.8,374.2c-1.36,1.77-1.87,4.56-4.28,5.85-.64.35-1.3-.81-1.31-1.69,0-2.94,2.21-4.19,4.29-5.46C284,372.6,284.79,372.91,284.8,374.2Z"/><path class="cls-4" d="M326.65,374.14c-1.55,0-3.11,0-3.34-2,0-.36.84-1,1.4-1.2,2.24-.74,2.26,1.24,2.86,2.48Z"/><path class="cls-2" d="M330.05,376.12c-.7,2.15-2.54,1-3.85,1.33C326.59,374.41,328.47,375.71,330.05,376.12Z"/><path class="cls-4" d="M332,371.94c-.47-.22-1.45.2-1.22-.91.06-.26.33-.48.5-.71l.73,1.61Z"/><path class="cls-4" d="M327.57,373.42l.12,1-1-.3Z"/><path class="cls-2" d="M544.92,333c1.33-.24,2.24,0,2.24,1.65,0,5-.62,10-3.21,14.18A37,37,0,0,0,539.32,359c-1.83,1.15-.57,5.83-3.77,4.5-2.2-.93-.2-4.06.34-6.21A107.67,107.67,0,0,1,544.92,333Z"/><path class="cls-2" d="M190,360.77c2,1.24,2,1.24,1.07,4.07-.34,1-.14,2.45-1.89,2.29-1.1-.1-1.37-.67-1-1.64.57-1.53,1.15-3.06,1.72-4.58Z"/><path class="cls-4" d="M477.53,89.28c.93-.26,1.34-.52,1.68-.45.53.11,1.32.13,1.15,1a.79.79,0,0,1-.69.32A18.87,18.87,0,0,1,477.53,89.28Z"/><path class="cls-4" d="M477.54,87.89c-.24.11-.49.32-.67.27s-.47-.34-.69-.52l1.06-.48Z"/><path class="cls-4" d="M97,491.82c1.1-1,1.67.23,2.45.59.47,1,.95,2,1.68,3.51C98.44,495.27,96.87,494.39,97,491.82Z"/><path class="cls-2" d="M101.66,501.12c-.67-.54-1.36-1.25-.46-1.93.55-.42,1.08.37,1.42.92Z"/><path class="cls-2" d="M517.76,373.34c.82.39,1.6,1,2.6.52l-1,1.69c-3,.57-3.62,3.62-5.5,5.36l-4.25,3A17.64,17.64,0,0,1,517.76,373.34Z"/><path class="cls-2" d="M206.65,372.63c-.71,2.38-1.44,4.75-4.27,5.48C202.38,375.18,203,372.73,206.65,372.63Z"/></g></g></svg>