<svg xmlns="http://www.w3.org/2000/svg" viewBox="0 0 197.97 197.97"><defs><style>.cls-1{fill:#4046b3;}</style></defs><g id="Layer_2" data-name="Layer 2"><g id="Capa_1" data-name="Capa 1"><path class="cls-1" d="M99,0a99,99,0,1,0,99,99A99.11,99.11,0,0,0,99,0Zm0,191.15A92.16,92.16,0,1,1,191.15,99,92.27,92.27,0,0,1,99,191.15Z"/><path class="cls-1" d="M99,17.07A82,82,0,0,0,17.07,99a3.41,3.41,0,1,0,6.82,0A75.19,75.19,0,0,1,99,23.89a3.41,3.41,0,1,0,0-6.82Z"/><path class="cls-1" d="M100,76.48A5.13,5.13,0,0,0,96.09,78a5.44,5.44,0,0,0-1.63,3.86l-1,51.24a5.3,5.3,0,0,0,5.27,5.48,5.32,5.32,0,0,0,3.91-1.47,5.1,5.1,0,0,0,1.69-3.8l1-51.24A5.31,5.31,0,0,0,100,76.48Z"/><path class="cls-1" d="M105.17,53.88A5.87,5.87,0,0,0,100.9,52l-.72,0A6.13,6.13,0,0,0,94,58v.48a6.13,6.13,0,0,0,6,6.22h.72a6.11,6.11,0,0,0,6.21-6v-.48A5.83,5.83,0,0,0,105.17,53.88Z"/><path class="cls-1" d="M153.6,191.15H105.81a3.41,3.41,0,0,0,0,6.82H153.6a3.41,3.41,0,1,0,0-6.82Z"/></g></g></svg>