<svg xmlns="http://www.w3.org/2000/svg" xmlns:xlink="http://www.w3.org/1999/xlink" viewBox="0 0 260.95 260"><defs><style>.cls-1{isolation:isolate;}.cls-2{fill:url(#linear-gradient);}.cls-3{fill:#bdd0fb;}.cls-4,.cls-7{fill:#f0f0f0;}.cls-4{mix-blend-mode:soft-light;}.cls-5{fill:#91b3fa;}.cls-6{fill:url(#linear-gradient-2);}.cls-8{fill:url(#linear-gradient-3);}.cls-9{fill:url(#linear-gradient-4);}.cls-10,.cls-17,.cls-35,.cls-36{fill:#fff;}.cls-10{opacity:0.78;}.cls-11{fill:url(#linear-gradient-5);}.cls-12{fill:url(#linear-gradient-6);}.cls-13{fill:url(#linear-gradient-7);}.cls-14{fill:url(#linear-gradient-8);}.cls-15{fill:url(#linear-gradient-9);}.cls-16{fill:url(#linear-gradient-10);}.cls-17{opacity:0.72;}.cls-18{fill:url(#linear-gradient-11);}.cls-19{fill:url(#_4);}.cls-20{fill:url(#linear-gradient-12);}.cls-21{fill:url(#linear-gradient-13);}.cls-22{fill:url(#linear-gradient-14);}.cls-23{fill:url(#linear-gradient-15);}.cls-24{fill:url(#linear-gradient-16);}.cls-25{fill:url(#linear-gradient-17);}.cls-26{fill:url(#linear-gradient-18);}.cls-27{fill:url(#linear-gradient-19);}.cls-28{fill:url(#linear-gradient-20);}.cls-29{fill:url(#linear-gradient-21);}.cls-30{fill:url(#linear-gradient-22);}.cls-31{fill:url(#linear-gradient-23);}.cls-32{fill:url(#linear-gradient-24);}.cls-33{fill:url(#linear-gradient-25);}.cls-34{fill:url(#linear-gradient-26);}.cls-36{opacity:0.37;}.cls-37{fill:url(#linear-gradient-27);}.cls-38{fill:url(#linear-gradient-28);}.cls-39{fill:url(#linear-gradient-29);}.cls-40{fill:url(#linear-gradient-30);}.cls-41{fill:url(#linear-gradient-31);}.cls-42{fill:url(#linear-gradient-32);}.cls-43{fill:url(#linear-gradient-33);}.cls-44{fill:url(#linear-gradient-34);}.cls-45{fill:url(#linear-gradient-35);}.cls-46{fill:url(#linear-gradient-36);}.cls-47{fill:url(#linear-gradient-37);}.cls-48{fill:url(#linear-gradient-38);}.cls-49{fill:url(#linear-gradient-39);}.cls-50{fill:url(#linear-gradient-40);}.cls-51{fill:url(#linear-gradient-41);}.cls-52{fill:url(#linear-gradient-42);}.cls-53{fill:url(#linear-gradient-43);}.cls-54{fill:url(#linear-gradient-44);}.cls-55{fill:url(#linear-gradient-45);}</style><linearGradient id="linear-gradient" x1="273.97" y1="293.48" x2="96.97" y2="105.07" gradientUnits="userSpaceOnUse"><stop offset="0" stop-color="#dae3fe"/><stop offset="1" stop-color="#e9effd"/></linearGradient><linearGradient id="linear-gradient-2" x1="3636.85" y1="595.66" x2="3611.99" y2="716.28" gradientTransform="translate(-3521 174.4) rotate(-11.22)" gradientUnits="userSpaceOnUse"><stop offset="0" stop-color="#09005d"/><stop offset="1" stop-color="#1a0f91"/></linearGradient><linearGradient id="linear-gradient-3" x1="182.58" y1="59.21" x2="297.48" y2="-95.24" gradientUnits="userSpaceOnUse"><stop offset="0" stop-color="#4f52ff"/><stop offset="1" stop-color="#4042e2"/></linearGradient><linearGradient id="linear-gradient-4" x1="213.82" y1="101.62" x2="337.51" y2="-112.48" gradientUnits="userSpaceOnUse"><stop offset="0" stop-color="#3e30cb"/><stop offset="1" stop-color="#1d129d"/></linearGradient><linearGradient id="linear-gradient-5" x1="201.54" y1="94.52" x2="325.23" y2="-119.58" xlink:href="#linear-gradient-4"/><linearGradient id="linear-gradient-6" x1="126.7" y1="51.29" x2="250.39" y2="-162.82" xlink:href="#linear-gradient-4"/><linearGradient id="linear-gradient-7" x1="155" y1="67.64" x2="278.69" y2="-146.46" xlink:href="#linear-gradient-4"/><linearGradient id="linear-gradient-8" x1="186.78" y1="86" x2="310.47" y2="-128.1" xlink:href="#linear-gradient-4"/><linearGradient id="linear-gradient-9" x1="165.18" y1="88.66" x2="165.18" y2="150.82" xlink:href="#linear-gradient-4"/><linearGradient id="linear-gradient-10" x1="2151.21" y1="948.13" x2="1976.02" y2="1177.96" gradientTransform="matrix(-0.03, -1, -1, 0.03, 1393.8, 2107.33)" gradientUnits="userSpaceOnUse"><stop offset="0" stop-color="#ff928e"/><stop offset="1" stop-color="#fe7062"/></linearGradient><linearGradient id="linear-gradient-11" x1="2220.88" y1="1001.24" x2="2045.68" y2="1231.06" xlink:href="#linear-gradient-10"/><linearGradient id="_4" x1="193.11" y1="48.59" x2="146.02" y2="107.61" gradientUnits="userSpaceOnUse"><stop offset="0" stop-color="#ff928e"/><stop offset="0.67" stop-color="#fe7b70"/><stop offset="1" stop-color="#fe7062"/></linearGradient><linearGradient id="linear-gradient-12" x1="-7008.38" y1="251.35" x2="-6982.82" y2="251.35" gradientTransform="matrix(-1, 0, 0, 1, -6920.94, 0)" xlink:href="#linear-gradient-3"/><linearGradient id="linear-gradient-13" x1="-7008.38" y1="246.34" x2="-6983.54" y2="246.34" gradientTransform="matrix(-1, 0, 0, 1, -6920.94, 0)" xlink:href="#linear-gradient-2"/><linearGradient id="linear-gradient-14" x1="-7006.02" y1="239.35" x2="-6998.82" y2="239.35" gradientTransform="matrix(-1, 0, 0, 1, -6920.94, 0)" gradientUnits="userSpaceOnUse"><stop offset="0" stop-color="#febbba"/><stop offset="1" stop-color="#ff928e"/></linearGradient><linearGradient id="linear-gradient-15" x1="-7053.99" y1="257.69" x2="-7044.2" y2="257.69" gradientTransform="matrix(-1, 0, 0, 1, -6920.94, 0)" xlink:href="#linear-gradient-3"/><linearGradient id="linear-gradient-16" x1="-7053.92" y1="247.94" x2="-7039.55" y2="247.94" gradientTransform="matrix(-1, 0, 0, 1, -6920.94, 0)" xlink:href="#linear-gradient-2"/><linearGradient id="linear-gradient-17" x1="-7046.45" y1="235.6" x2="-7037.85" y2="235.6" xlink:href="#linear-gradient-14"/><linearGradient id="linear-gradient-18" x1="170.48" y1="36.99" x2="100.78" y2="170.72" gradientTransform="matrix(1, 0, 0, 1, 0, 0)" xlink:href="#linear-gradient-2"/><linearGradient id="linear-gradient-19" x1="22.72" y1="104.78" x2="101.56" y2="104.78" gradientUnits="userSpaceOnUse"><stop offset="0" stop-color="#090056"/><stop offset="1" stop-color="#020039"/></linearGradient><linearGradient id="linear-gradient-20" x1="-7004.07" y1="83.03" x2="-7000.34" y2="63.46" xlink:href="#linear-gradient-14"/><linearGradient id="linear-gradient-21" x1="-6993.98" y1="47.12" x2="-7015.25" y2="63.4" xlink:href="#linear-gradient-14"/><linearGradient id="linear-gradient-22" x1="-7011.16" y1="35.95" x2="-6991.35" y2="61.46" gradientTransform="matrix(-1, 0, 0, 1, -6920.94, 0)" xlink:href="#linear-gradient-2"/><linearGradient id="linear-gradient-23" x1="-6996.62" y1="43.67" x2="-7017.89" y2="59.95" xlink:href="#linear-gradient-14"/><linearGradient id="linear-gradient-24" x1="-247.6" y1="255.97" x2="-295.31" y2="292.38" gradientTransform="translate(421.57 -209.69) rotate(7.86)" xlink:href="#linear-gradient-10"/><linearGradient id="linear-gradient-25" x1="-249.66" y1="253.27" x2="-297.37" y2="289.69" gradientTransform="translate(421.57 -209.69) rotate(7.86)" xlink:href="#linear-gradient-10"/><linearGradient id="linear-gradient-26" x1="-2047.9" y1="46.7" x2="-1912.69" y2="141.03" gradientTransform="matrix(-1, 0, 0, 1, -1885.51, 0)" xlink:href="#linear-gradient-10"/><linearGradient id="linear-gradient-27" x1="-1967.29" y1="103.9" x2="-1984.1" y2="128.32" gradientTransform="matrix(-1, 0, 0, 1, -1885.51, 0)" xlink:href="#linear-gradient-2"/><linearGradient id="linear-gradient-28" x1="-1966.68" y1="104.31" x2="-1983.49" y2="128.74" gradientTransform="matrix(-1, 0, 0, 1, -1885.51, 0)" xlink:href="#linear-gradient-2"/><linearGradient id="linear-gradient-29" x1="-1965.95" y1="104.82" x2="-1982.76" y2="129.24" gradientTransform="matrix(-1, 0, 0, 1, -1885.51, 0)" xlink:href="#linear-gradient-2"/><linearGradient id="linear-gradient-30" x1="-1964.69" y1="105.68" x2="-1981.5" y2="130.11" gradientTransform="matrix(-1, 0, 0, 1, -1885.51, 0)" xlink:href="#linear-gradient-2"/><linearGradient id="linear-gradient-31" x1="-1963.86" y1="106.26" x2="-1980.67" y2="130.68" gradientTransform="matrix(-1, 0, 0, 1, -1885.51, 0)" xlink:href="#linear-gradient-2"/><linearGradient id="linear-gradient-32" x1="-1963.35" y1="106.61" x2="-1980.15" y2="131.03" gradientTransform="matrix(-1, 0, 0, 1, -1885.51, 0)" xlink:href="#linear-gradient-2"/><linearGradient id="linear-gradient-33" x1="-1968.15" y1="103.3" x2="-1984.96" y2="127.73" gradientTransform="matrix(-1, 0, 0, 1, -1885.51, 0)" xlink:href="#linear-gradient-2"/><linearGradient id="linear-gradient-34" x1="-2019.32" y1="21.65" x2="-1918.1" y2="92.27" gradientTransform="matrix(-1, 0, 0, 1, -1885.51, 0)" xlink:href="#linear-gradient-10"/><linearGradient id="linear-gradient-35" x1="-1949.75" y1="70.91" x2="-1962.33" y2="89.19" gradientTransform="matrix(-1, 0, 0, 1, -1885.51, 0)" xlink:href="#linear-gradient-2"/><linearGradient id="linear-gradient-36" x1="-1949.3" y1="71.22" x2="-1961.88" y2="89.5" gradientTransform="matrix(-1, 0, 0, 1, -1885.51, 0)" xlink:href="#linear-gradient-2"/><linearGradient id="linear-gradient-37" x1="-1948.75" y1="71.59" x2="-1961.33" y2="89.88" gradientTransform="matrix(-1, 0, 0, 1, -1885.51, 0)" xlink:href="#linear-gradient-2"/><linearGradient id="linear-gradient-38" x1="-1947.81" y1="72.24" x2="-1960.39" y2="90.53" gradientTransform="matrix(-1, 0, 0, 1, -1885.51, 0)" xlink:href="#linear-gradient-2"/><linearGradient id="linear-gradient-39" x1="-1947.18" y1="72.67" x2="-1959.77" y2="90.96" gradientTransform="matrix(-1, 0, 0, 1, -1885.51, 0)" xlink:href="#linear-gradient-2"/><linearGradient id="linear-gradient-40" x1="-1946.8" y1="72.94" x2="-1959.38" y2="91.22" gradientTransform="matrix(-1, 0, 0, 1, -1885.51, 0)" xlink:href="#linear-gradient-2"/><linearGradient id="linear-gradient-41" x1="-1950.4" y1="70.46" x2="-1962.98" y2="88.74" gradientTransform="matrix(-1, 0, 0, 1, -1885.51, 0)" xlink:href="#linear-gradient-2"/><linearGradient id="linear-gradient-42" x1="165.78" y1="167.2" x2="186.44" y2="264.51" gradientTransform="matrix(-0.99, -0.11, -0.11, 0.99, 214.11, -87.58)" xlink:href="#linear-gradient-14"/><linearGradient id="linear-gradient-43" x1="95.15" y1="101.39" x2="113.38" y2="101.39" xlink:href="#linear-gradient-19"/><linearGradient id="linear-gradient-44" x1="-6444.1" y1="-1299.87" x2="-6411.45" y2="-1383.37" xlink:href="#linear-gradient-14"/><linearGradient id="linear-gradient-45" x1="79.68" y1="119.06" x2="112.33" y2="35.55" gradientTransform="matrix(1, 0, 0, 1, 0, 0)" xlink:href="#linear-gradient-14"/></defs><g class="cls-1"><g id="Layer_2" data-name="Layer 2"><g id="Illustration"><path class="cls-2" d="M220.82,217.89A95.84,95.84,0,0,1,204,231.57c-43.66,29.15-93.56,20.75-109,17.88-24.89-4.63-45.9-7.9-64-24.21C-10,188.17-8,110.86,23.34,63c3.72-5.67,35-52.07,85-58.61,1.22-.16,2.13-.25,2.93-.33C119,3.2,167-1.13,206.07,31.63a116.21,116.21,0,0,1,23,26C259.56,104.83,259.66,177.86,220.82,217.89Z"/><path class="cls-3" d="M200.84,215.84c-12.54-2.45-22.14-21.18-21.23-36.94.94-16.23,12.39-18.48,20.43-38.22,9.13-22.42-1.13-30.59,3.59-63.94,1.06-7.53,7.22-51.08,22.73-53.33,14.34-2.09,38.65,30.84,34,58.26-3.31,19.55-18.91,21.92-22.71,44.72-3.33,20,7.58,24.8,4.54,44.18C238.5,194.15,217.31,219.06,200.84,215.84Z"/><path class="cls-4" d="M197.77,220.92c13-22.84,22.27-62.57,27.71-91.88,5.89-31.73,8.73-58.41,8.76-58.68l-1.08-.11c0,.26-2.87,26.92-8.75,58.6-5.42,29.22-14.61,68.82-27.59,91.53Z"/><path class="cls-5" d="M144.13,167.27c-21.32-6.23-34.79-39.49-26-52.9,5.92-9.07,18.15-3.19,26.85-13.1,11.12-12.65-2.28-29.66,3.16-56.25C152.72,22.4,169.84-1.54,182.94.08c13.71,1.69,26.74,31.84,19.51,53-4.71,13.75-15.53,16.52-15.62,28.46-.12,13.85,14.39,17.27,17,30.16C208.58,134.81,172.34,175.52,144.13,167.27Z"/><path class="cls-6" d="M156.32,174.06a.87.87,0,0,1-.36,0,.81.81,0,0,1-.58-1c15.15-57.87,10.51-120.59,10.46-121.22a.8.8,0,1,1,1.6-.12c.05.63,4.71,63.62-10.5,121.74A.81.81,0,0,1,156.32,174.06Z"/><path class="cls-4" d="M189.05,63.73a.37.37,0,0,1-.25,0,.39.39,0,0,1-.17-.52c6-12,11.89-29.35,5.62-44.06A27.31,27.31,0,0,0,184.1,6.64a.39.39,0,0,1-.14-.52.38.38,0,0,1,.52-.15c.27.16,6.65,3.86,10.48,12.85,3.52,8.27,5.41,22.73-5.64,44.71A.39.39,0,0,1,189.05,63.73Z"/><path class="cls-7" d="M141.48,163a.42.42,0,0,1-.35-.1c-16-15.67-23-28.84-20.85-39.15,1.94-9.16,10.76-12.55,10.85-12.58a.37.37,0,0,1,.49.22.38.38,0,0,1-.22.5c-.09,0-8.53,3.28-10.38,12-2.11,10,4.83,23,20.65,38.43a.39.39,0,0,1,0,.54A.37.37,0,0,1,141.48,163Z"/><path class="cls-8" d="M37,126.59c0,50.64,42.61,91.7,95.17,91.7s97.52-42.85,97.52-93.5-45-89.9-97.52-89.9S37,75.94,37,126.59Z"/><path class="cls-3" d="M222.18,104.29l.17,0a.63.63,0,0,0,.46-.78,79.75,79.75,0,0,0-3.89-10.92.68.68,0,0,0-.86-.34.64.64,0,0,0-.35.84,78.14,78.14,0,0,1,3.83,10.75A.67.67,0,0,0,222.18,104.29Z"/><path class="cls-3" d="M207.63,75.63a.72.72,0,0,0,.4-.12.62.62,0,0,0,.13-.89c-17.63-22.53-46-36-76-36a93.7,93.7,0,0,0-36.76,7.42.63.63,0,0,0-.33.84.66.66,0,0,0,.86.32,92.3,92.3,0,0,1,36.23-7.31c29.53,0,57.54,13.26,74.93,35.47A.64.64,0,0,0,207.63,75.63Z"/><path class="cls-3" d="M49.91,126.59c0,43.84,36.88,79.37,82.37,79.37S216.7,168.87,216.7,125s-38.92-77.83-84.42-77.83S49.91,82.75,49.91,126.59Z"/><path class="cls-3" d="M49.91,126.59c0-43.84,36.88-79.38,82.37-79.38,24.64,0,47.35,10,63,26.07l-63.46,50.88-13,80.73C79.7,198.68,49.91,166,49.91,126.59Z"/><path class="cls-5" d="M61.12,121.07c0,39.56,34,71.64,75.89,71.64s77.77-33.48,77.77-73S178.92,49.43,137,49.43,61.12,81.51,61.12,121.07Z"/><path class="cls-9" d="M195.65,122.47a6.27,6.27,0,0,0,6.7,5.75,6.12,6.12,0,1,0-6.7-5.75Z"/><path class="cls-10" d="M58.63,130.16a6.34,6.34,0,1,0,6-6.46A6.25,6.25,0,0,0,58.63,130.16Z"/><path class="cls-11" d="M144.66,185a6.13,6.13,0,0,0-5.1,7.11,6.32,6.32,0,0,0,7.38,4.91,6.13,6.13,0,0,0,5.1-7.11A6.32,6.32,0,0,0,144.66,185Z"/><path class="cls-12" d="M120,54.9A6.13,6.13,0,0,0,114.9,62a6.32,6.32,0,0,0,7.38,4.91,6.14,6.14,0,0,0,5.1-7.11A6.32,6.32,0,0,0,120,54.9Z"/><path class="cls-10" d="M99.57,188.49c-.64,1.57-.48,3,.36,3.28s2-.83,2.69-2.4.49-3-.35-3.28S100.22,186.92,99.57,188.49Z"/><path class="cls-13" d="M154.69,65.09c-.64,1.57-.48,3,.36,3.28s2-.83,2.7-2.4.48-3-.36-3.28S155.34,63.52,154.69,65.09Z"/><path class="cls-10" d="M70.79,165c-1.4,1-2.05,2.35-1.46,3s2.2.32,3.6-.7,2-2.35,1.45-3S72.18,164,70.79,165Z"/><path class="cls-14" d="M184.39,87.15c-1.39,1-2,2.35-1.45,3s2.19.31,3.59-.7,2.05-2.35,1.46-3S185.79,86.13,184.39,87.15Z"/><path class="cls-10" d="M67.17,95.16c-1.57-.72-3.1-.67-3.41.13s.72,2,2.3,2.75,3.11.67,3.42-.13S68.75,95.89,67.17,95.16Z"/><path class="cls-10" d="M191.26,156.42c-1.58-.72-3.11-.67-3.42.13s.73,2,2.3,2.75,3.11.67,3.42-.13S192.84,157.15,191.26,156.42Z"/><path class="cls-5" d="M93.39,69.06c-1-1.41-2.29-2.13-3-1.6s-.47,2.09.49,3.5,2.3,2.13,3,1.6S94.35,70.47,93.39,69.06Z"/><path class="cls-15" d="M166.43,183.5c-1-1.41-2.3-2.13-3-1.6s-.47,2.09.49,3.5,2.29,2.12,3,1.6S167.39,184.91,166.43,183.5Z"/><path class="cls-16" d="M134.85,124.13l51,24.48a1.45,1.45,0,0,0,2.11-1.3l-.2-6.32a1.46,1.46,0,0,1,2.42-1.09L227,171.15a1.41,1.41,0,0,1-1.27,2.43l-47.45-9.76a1.4,1.4,0,0,1-.72-2.38l5.56-5.28a1.37,1.37,0,0,0-.3-2.22L133.47,126.6a1.38,1.38,0,0,1-.55-1.89h0A1.48,1.48,0,0,1,134.85,124.13Z"/><path class="cls-17" d="M221.24,171a1.24,1.24,0,0,0,1.12-.68,1.18,1.18,0,0,0-.33-1.47L214,162.43a.68.68,0,0,0-.93.09.62.62,0,0,0,.09.89l8.06,6.42c-10.74-2.36-35.9-7.65-36.42-7.7a.66.66,0,0,0-.72.57.64.64,0,0,0,.57.69c.76.12,20,4.15,36.34,7.58A1.33,1.33,0,0,0,221.24,171Z"/><path class="cls-18" d="M129.54,121.72l.1-48a1.46,1.46,0,0,0-2.17-1.21l-5.73,3.08A1.45,1.45,0,0,1,119.61,74l11.86-45.89a1.47,1.47,0,0,1,2.82,0l12.83,45.08a1.44,1.44,0,0,1-1.86,1.71l-7.42-2.33a1.46,1.46,0,0,0-1.91,1.28l-3.48,47.92A1.43,1.43,0,0,1,131,123.1h0A1.43,1.43,0,0,1,129.54,121.72Z"/><path class="cls-17" d="M143.18,68.78a.69.69,0,0,0,.24,0,.62.62,0,0,0,.38-.8c-.24-.7-5.39-19.05-9.73-34.58a1.27,1.27,0,0,0-2.45.06l-2.21,9.85a.64.64,0,0,0,.51.75.65.65,0,0,0,.78-.48l2.21-9.85c2.76,10.28,9.47,34.22,9.66,34.7A.65.65,0,0,0,143.18,68.78Z"/><ellipse class="cls-19" cx="132.71" cy="124.29" rx="6.77" ry="6.53"/><path class="cls-20" d="M62.61,250.12c4.37.38,12,1,18,1.25,3.6.16,5.68-.19,6.87-.67,0,.14,0,.26,0,.38a1.24,1.24,0,0,1-1.18,1.17,212.65,212.65,0,0,1-23.52,0A.89.89,0,0,1,62,251,6.42,6.42,0,0,1,62.61,250.12Z"/><path class="cls-21" d="M80.57,251.37c-6-.26-13.59-.87-18-1.25,4.3-5.28,18-8.84,18-8.84h3.86a16.1,16.1,0,0,1,3,9.42C86.25,251.18,84.17,251.53,80.57,251.37Z"/><path class="cls-22" d="M85.08,235l-.36,7.14a1.63,1.63,0,0,1-1.39,1.54,6.42,6.42,0,0,1-2.9-.24,2,2,0,0,1-1.3-1.49l-1.25-7Z"/><path class="cls-23" d="M129.87,258.36a3.77,3.77,0,0,0,3.12-3v0a3.4,3.4,0,0,1-1.66,3.63,8.53,8.53,0,0,1-4.6.93,4.24,4.24,0,0,1-3.46-2.05v0C124.69,258.82,126.7,258.93,129.87,258.36Z"/><path class="cls-24" d="M120.92,237.18h3.18c4.85-.13,7.89,13.08,8.89,18.2a3.77,3.77,0,0,1-3.12,3c-3.17.57-5.18.46-6.61-.45-2.62-4.46-3.91-11-4.54-14.79C118,238.8,120.92,237.18,120.92,237.18Z"/><path class="cls-25" d="M123.69,230.55l1.77,7a1.92,1.92,0,0,1-1,2.17,6.76,6.76,0,0,1-3.66.88,1.58,1.58,0,0,1-1.3-1.06l-2.59-7.4Z"/><path class="cls-26" d="M61.53,138s15.79,98.71,15.53,99.25a13.15,13.15,0,0,0,9.12.25s-1.43-52.76-4.78-73c0,0,26.95,47.16,35.51,70.66a21.41,21.41,0,0,0,8.16-3s-29-84.9-36.76-96.2Z"/><path class="cls-27" d="M59,69.06a12.07,12.07,0,0,0-3.31.65c-11.57,4-20.66,3-27.65-.16-1.62,2.15-4.22,6.63-5.36,14.14,12.72,9.47,28.71,7,33.94,5.8-1.37,10.16-1.35,26.23,4.24,49.79a1.46,1.46,0,0,0,1.31,1.13c3.57.29,15.53,1,27-1.59a.83.83,0,0,0,.59-1.15l-.1-.25a15.86,15.86,0,0,1-1.25-7.13c.42-7.43,2.41-24.19,6.67-35.69.25.42.48.84.7,1.25.77-7.56,3.67-15,5.71-22.5C84.91,68.06,65.11,68.7,59,69.06Z"/><path class="cls-28" d="M85,55.33s1.16,12.3,2.18,15.94a1.24,1.24,0,0,1-.58,1.42c-1.74,1-5.91,2.61-11.61-.18a2.59,2.59,0,0,1-1.44-2.44l.5-11.88Z"/><path class="cls-29" d="M73.82,39.6s-3.72,8.55-4,13-1.21,7.4,4,8.3,9.56-1.68,11.93-6.15c0,0,3.7-6.88,2.87-9.7S73.82,39.6,73.82,39.6Z"/><path class="cls-30" d="M84,51.57l-.29-.13a.71.71,0,0,1-.35-1c.73-1.41,2.16-4.65.32-5.41s-3.62-1.11-5.4-1.68-4.88-1.08-5.74-2.83a1.81,1.81,0,0,1,.29-1.6l1.52-2.78A7.22,7.22,0,0,1,75.86,34c1.56-1.32,3.41-.16,5.13.15,6.4,1.19,10.63,3.77,10.74,8.2a.35.35,0,0,0,.54.29c.47-.29,1.23-.43,2.24.42,1.76,1.48,1,5.31-2.81,8.47a.35.35,0,0,0,0,.56c.7.46,1.74,1.54-.95,3a9.14,9.14,0,0,1-5.68,1.24.36.36,0,0,1-.29-.43L85.65,52a.35.35,0,0,0-.34-.43Z"/><path class="cls-31" d="M83.81,52.39s1.42-5.46,3.87-3.93-1.27,6.12-3.24,6.32Z"/><path class="cls-32" d="M70.75,41.05c6.08-18,31.33-6.67,23,9.05C85,46.14,74.83,39.8,70.75,41.05Z"/><path class="cls-33" d="M85.63,45.85,69.76,47.93a1.14,1.14,0,0,1-1.06-.43,10.83,10.83,0,0,0-6.9-4.08.32.32,0,0,1,0-.63l9.57-2.24h0c4.89-.41,9.63,1.8,14.32,4.93A.21.21,0,0,1,85.63,45.85Z"/><path class="cls-34" d="M89.08,136.94a6.49,6.49,0,0,0,6.62-6.5V101.51a6.93,6.93,0,0,0-6.85-6.94c-11.41-.12-34.94-.13-54.2,1.49a5.21,5.21,0,0,0-4.76,5l-1.8,28a6.62,6.62,0,0,0,6.49,6.86Z"/><path class="cls-35" d="M89.09,104.64c0,2.46,0,6.37-.08,8.89a2.23,2.23,0,0,1-2.49,2.16l-9.39-1.1a2.22,2.22,0,0,1-1.94-2.54l1.15-7.69a2.23,2.23,0,0,1,2.2-1.9h8.33A2.22,2.22,0,0,1,89.09,104.64Z"/><path class="cls-36" d="M64.56,119.21l-7.84.84a1.76,1.76,0,0,1-1.95-1.88l1.72-23.3c3.28-.1,6.52-.18,9.64-.23v22.81A1.77,1.77,0,0,1,64.56,119.21Z"/><path class="cls-35" d="M61.35,115.17a.79.79,0,0,1-.79.74h-.05a.79.79,0,0,1-.74-.83L61,94.74l1.58,0Z"/><path class="cls-37" d="M84.75,112a.26.26,0,0,0,.26-.25l.41-6.4a.26.26,0,0,0-.24-.28.25.25,0,0,0-.28.24l-.41,6.41a.27.27,0,0,0,.25.28Z"/><path class="cls-38" d="M83.92,112a.26.26,0,0,0,.26-.26l.21-6.52a.27.27,0,0,0-.25-.28.25.25,0,0,0-.27.26l-.22,6.53a.27.27,0,0,0,.26.27Z"/><path class="cls-39" d="M82.78,112a.27.27,0,0,1-.25-.28c.11-2.19.31-6.37.31-6.52a.26.26,0,0,1,.26-.26.26.26,0,0,1,.26.27c0,.11-.25,5.46-.3,6.54a.27.27,0,0,1-.26.25Zm0-6.79h0Z"/><path class="cls-40" d="M81,112.24a.52.52,0,0,0,.53-.51c.22-6.32.18-6.46.16-6.56a.54.54,0,0,0-.65-.37.52.52,0,0,0-.38.58c0,.38-.1,4.06-.18,6.32a.53.53,0,0,0,.51.54Z"/><path class="cls-41" d="M79.91,112a.27.27,0,0,0,.26-.27v-6.4a.27.27,0,0,0-.53,0v6.4A.27.27,0,0,0,79.91,112Z"/><path class="cls-42" d="M79,112a.26.26,0,0,0,.26-.26c0-2.22.17-5.86.27-6.3a.24.24,0,0,0,0-.27.26.26,0,0,0-.36-.07c-.14.09-.28.18-.43,6.63A.28.28,0,0,0,79,112Z"/><path class="cls-43" d="M86.17,112.56a.53.53,0,0,0,.52-.5l.35-6.72a.53.53,0,1,0-1.05-.06L85.64,112a.53.53,0,0,0,.5.55Z"/><path class="cls-44" d="M69.7,95.65a4.87,4.87,0,0,0,5-4.87V69.12a5.19,5.19,0,0,0-5.13-5.2C61,63.83,43.37,63.83,29,65a3.9,3.9,0,0,0-3.57,3.75L24.05,89.73a5,5,0,0,0,4.86,5.14Z"/><path class="cls-35" d="M69.72,71.46c0,1.84,0,4.77-.07,6.66a1.67,1.67,0,0,1-1.86,1.62l-7-.83A1.67,1.67,0,0,1,59.3,77l.87-5.76a1.66,1.66,0,0,1,1.65-1.42h6.23A1.67,1.67,0,0,1,69.72,71.46Z"/><path class="cls-36" d="M51.35,82.37,45.48,83A1.32,1.32,0,0,1,44,81.59l1.29-17.44c2.45-.08,4.88-.14,7.22-.18V81.05A1.32,1.32,0,0,1,51.35,82.37Z"/><path class="cls-35" d="M48.94,79.35a.57.57,0,0,1-.58.55h0a.59.59,0,0,1-.55-.62l.88-15.23,1.18,0Z"/><path class="cls-45" d="M66.47,77a.19.19,0,0,0,.19-.19L67,72a.2.2,0,0,0-.19-.21.19.19,0,0,0-.21.18l-.3,4.8a.18.18,0,0,0,.18.2Z"/><path class="cls-46" d="M65.84,77a.21.21,0,0,0,.2-.2l.16-4.88a.2.2,0,0,0-.19-.2.19.19,0,0,0-.21.19l-.16,4.88a.21.21,0,0,0,.19.21Z"/><path class="cls-47" d="M65,77a.19.19,0,0,1-.19-.2c.08-1.64.23-4.77.23-4.88a.2.2,0,0,1,.4,0c0,.08-.2,4.09-.23,4.9A.21.21,0,0,1,65,77Zm0-5.08Z"/><path class="cls-48" d="M63.69,77.15a.4.4,0,0,0,.39-.38c.17-4.73.14-4.84.12-4.91a.4.4,0,0,0-.48-.28.39.39,0,0,0-.29.44c0,.28-.07,3-.13,4.72a.39.39,0,0,0,.38.41Z"/><path class="cls-49" d="M62.84,77a.19.19,0,0,0,.19-.2V72a.19.19,0,0,0-.19-.19.2.2,0,0,0-.2.19v4.8A.2.2,0,0,0,62.84,77Z"/><path class="cls-50" d="M62.15,77a.21.21,0,0,0,.2-.2c0-1.66.12-4.38.2-4.71a.22.22,0,0,0,0-.21.19.19,0,0,0-.27,0c-.11.07-.21.13-.32,5a.22.22,0,0,0,.19.21Z"/><path class="cls-51" d="M67.52,77.39a.4.4,0,0,0,.4-.37l.26-5a.4.4,0,0,0-.37-.41.41.41,0,0,0-.42.37l-.26,5a.39.39,0,0,0,.37.41Z"/><path class="cls-52" d="M22.12,76.45c1.2-.3,3.89-3.94,4.18-2.61s-.53,3-.41,3.59,1,3.73.31,5.06a52.94,52.94,0,0,0-2.06,5.58c-.18.54-.32,1.24-.88,1.18s-1-.81-1-1.37C22.2,87.65,20.92,76.74,22.12,76.45Z"/><path class="cls-53" d="M108,80.94c-1.48-3.39-6.18-7.51-6.43-7.59-2,7.5-5.64,13.69-6.41,21.25,5,9.27,3.89,20.19.74,25.5a51.14,51.14,0,0,1,4.93,9.33C120.21,117.83,112.53,91.37,108,80.94Z"/><path class="cls-54" d="M83.08,137.83l-16.79-.36s14.64-4.14,15.55-3c0,0,9.08-6,14-14.36a51.14,51.14,0,0,1,4.93,9.33C96.36,132.05,90.5,136.6,83.08,137.83Z"/><path class="cls-55" d="M83.55,134.93s.35,6.69-8.43,5.71c-4.77-.52-12.48-5-12.48-5S82.72,135.61,83.55,134.93Z"/></g></g></g></svg>