<svg xmlns="http://www.w3.org/2000/svg" xmlns:xlink="http://www.w3.org/1999/xlink" viewBox="0 0 260 260.16"><defs><style>.cls-1{isolation:isolate;}.cls-2{fill:url(#linear-gradient);}.cls-3{opacity:0.3;}.cls-4{fill:#bdd0fb;}.cls-5{fill:#91b3fa;}.cls-6{fill:url(#linear-gradient-2);}.cls-7{fill:url(#linear-gradient-3);}.cls-8{fill:url(#linear-gradient-4);}.cls-9{fill:url(#linear-gradient-5);}.cls-10,.cls-18,.cls-35,.cls-36{fill:#fff;}.cls-10{mix-blend-mode:soft-light;}.cls-11,.cls-14{fill:#7d97f4;}.cls-12{fill:url(#linear-gradient-6);}.cls-13{fill:url(#linear-gradient-7);}.cls-14{opacity:0.24;}.cls-15{fill:#1f5aa9;}.cls-16{fill:url(#linear-gradient-8);}.cls-17{fill:url(#linear-gradient-9);}.cls-19{fill:url(#linear-gradient-10);}.cls-20{fill:url(#linear-gradient-11);}.cls-21{fill:url(#linear-gradient-12);}.cls-22{fill:url(#linear-gradient-13);}.cls-23{fill:url(#linear-gradient-14);}.cls-24{fill:url(#linear-gradient-15);}.cls-25{fill:url(#linear-gradient-16);}.cls-26{fill:url(#linear-gradient-17);}.cls-27{fill:url(#linear-gradient-18);}.cls-28{fill:url(#linear-gradient-19);}.cls-29{fill:url(#linear-gradient-20);}.cls-30{fill:url(#linear-gradient-21);}.cls-31{fill:url(#linear-gradient-22);}.cls-32{fill:url(#linear-gradient-23);}.cls-33{fill:url(#linear-gradient-24);}.cls-34{fill:url(#linear-gradient-25);}.cls-35{opacity:0.7;}.cls-36{opacity:0.78;}.cls-37{fill:url(#linear-gradient-26);}.cls-38{fill:url(#linear-gradient-27);}.cls-39{fill:url(#linear-gradient-28);}.cls-40{fill:url(#linear-gradient-29);}.cls-41{fill:url(#linear-gradient-30);}.cls-42{fill:url(#linear-gradient-31);}.cls-43{fill:url(#linear-gradient-32);}.cls-44{fill:url(#linear-gradient-33);}.cls-45{fill:url(#linear-gradient-34);}.cls-46{fill:url(#linear-gradient-35);}.cls-47{fill:url(#linear-gradient-36);}.cls-48{fill:url(#linear-gradient-37);}.cls-49{fill:url(#linear-gradient-38);}.cls-50{fill:url(#linear-gradient-39);}.cls-51{fill:url(#linear-gradient-40);}.cls-52{fill:url(#linear-gradient-41);}.cls-53{fill:url(#linear-gradient-42);}.cls-54{fill:url(#linear-gradient-43);}.cls-55{fill:url(#linear-gradient-44);}.cls-56{fill:url(#linear-gradient-45);}.cls-57{fill:url(#linear-gradient-46);}.cls-58{fill:url(#linear-gradient-47);}.cls-59{fill:url(#linear-gradient-48);}.cls-60{fill:url(#linear-gradient-49);}.cls-61{fill:url(#linear-gradient-50);}</style><linearGradient id="linear-gradient" x1="291.93" y1="334.17" x2="62.2" y2="48.87" gradientUnits="userSpaceOnUse"><stop offset="0" stop-color="#dae3fe"/><stop offset="1" stop-color="#e9effd"/></linearGradient><linearGradient id="linear-gradient-2" x1="71.41" y1="40.22" x2="85.07" y2="40.22" xlink:href="#linear-gradient"/><linearGradient id="linear-gradient-3" x1="61.95" y1="40.21" x2="95.16" y2="40.21" xlink:href="#linear-gradient"/><linearGradient id="linear-gradient-4" x1="21.41" y1="30.41" x2="30.71" y2="30.41" xlink:href="#linear-gradient"/><linearGradient id="linear-gradient-5" x1="14.81" y1="30.39" x2="37.73" y2="30.39" xlink:href="#linear-gradient"/><linearGradient id="linear-gradient-6" x1="-59.15" y1="211.62" x2="69.69" y2="211.62" gradientTransform="translate(65.46 -65.77) rotate(-1.25)" gradientUnits="userSpaceOnUse"><stop offset="0" stop-color="#09005d"/><stop offset="1" stop-color="#1a0f91"/></linearGradient><linearGradient id="linear-gradient-7" x1="118.44" y1="60.53" x2="-49.01" y2="367.52" gradientUnits="userSpaceOnUse"><stop offset="0" stop-color="#4f52ff"/><stop offset="1" stop-color="#4042e2"/></linearGradient><linearGradient id="linear-gradient-8" x1="35.32" y1="212.92" x2="176.23" y2="212.92" xlink:href="#linear-gradient-6"/><linearGradient id="linear-gradient-9" x1="74.6" y1="82.28" x2="65.56" y2="115.62" gradientUnits="userSpaceOnUse"><stop offset="0" stop-color="#ff928e"/><stop offset="1" stop-color="#fe7062"/></linearGradient><linearGradient id="linear-gradient-10" x1="-1539.42" y1="723.64" x2="-1605.84" y2="707.35" gradientTransform="matrix(-1, 0, 0, 1, -4031.62, 0)" xlink:href="#linear-gradient-9"/><linearGradient id="linear-gradient-11" x1="-1541.7" y1="732.96" x2="-1608.12" y2="716.67" gradientTransform="matrix(-1, 0, 0, 1, -4031.62, 0)" xlink:href="#linear-gradient-9"/><linearGradient id="linear-gradient-12" x1="35.77" y1="257.37" x2="58.93" y2="197.76" gradientUnits="userSpaceOnUse"><stop offset="0" stop-color="#febbba"/><stop offset="1" stop-color="#ff928e"/></linearGradient><linearGradient id="linear-gradient-13" x1="35.41" y1="449.14" x2="111.96" y2="-445.44" xlink:href="#linear-gradient-12"/><linearGradient id="linear-gradient-14" x1="38.17" y1="163.06" x2="47.98" y2="163.06" xlink:href="#linear-gradient-12"/><linearGradient id="linear-gradient-15" x1="-3270.12" y1="240.93" x2="-3278.71" y2="255.47" gradientTransform="matrix(-1, 0, 0, 1, -3223.95, 0)" xlink:href="#linear-gradient-6"/><linearGradient id="linear-gradient-16" x1="-4403.42" y1="-690.55" x2="-4412.01" y2="-676.02" gradientTransform="matrix(-0.92, -0.39, -0.39, 0.92, -4287.71, -834.78)" xlink:href="#linear-gradient-6"/><linearGradient id="linear-gradient-17" x1="64.69" y1="166.09" x2="42.39" y2="218.26" gradientTransform="matrix(1, 0, 0, 1, 0, 0)" xlink:href="#linear-gradient-6"/><linearGradient id="linear-gradient-18" x1="48.89" y1="141.16" x2="55.86" y2="141.16" xlink:href="#linear-gradient-12"/><linearGradient id="linear-gradient-19" x1="95.28" y1="134.43" x2="81.19" y2="142.89" xlink:href="#linear-gradient-9"/><linearGradient id="linear-gradient-20" x1="-4745.04" y1="-126.61" x2="-4814.17" y2="-87.01" gradientTransform="translate(1728.42 -4331.74) rotate(-71.03)" xlink:href="#linear-gradient-12"/><linearGradient id="linear-gradient-21" x1="-4740.37" y1="-114.5" x2="-4800.67" y2="-79.96" gradientTransform="translate(1728.42 -4331.74) rotate(-71.03)" xlink:href="#linear-gradient-12"/><linearGradient id="linear-gradient-22" x1="-854.38" y1="585.89" x2="-867.93" y2="566.08" gradientTransform="translate(752.45 -632.53) rotate(-13.74)" xlink:href="#linear-gradient-12"/><linearGradient id="linear-gradient-23" x1="-1113.3" y1="672.62" x2="-1069.16" y2="672.62" gradientTransform="translate(889.87 -810.2) rotate(-16.86)" xlink:href="#linear-gradient-6"/><linearGradient id="linear-gradient-24" x1="118.85" y1="162.74" x2="135.08" y2="143.9" gradientTransform="translate(198.06 -43.59) rotate(61.85)" xlink:href="#linear-gradient-9"/><linearGradient id="linear-gradient-25" x1="136.89" y1="120.35" x2="135.01" y2="149.8" gradientTransform="translate(75.54 -44.49) rotate(25.67)" xlink:href="#linear-gradient-9"/><linearGradient id="linear-gradient-26" x1="135.51" y1="137.1" x2="133.8" y2="149.88" xlink:href="#linear-gradient-9"/><linearGradient id="linear-gradient-27" x1="157.87" y1="211.09" x2="186.94" y2="177.36" gradientTransform="translate(310.92 -49.5) rotate(75.32)" xlink:href="#linear-gradient-9"/><linearGradient id="linear-gradient-28" x1="188.78" y1="163.02" x2="185.96" y2="193.73" gradientTransform="translate(179.85 -80.86) rotate(45)" xlink:href="#linear-gradient-9"/><linearGradient id="linear-gradient-29" x1="187.89" y1="164.55" x2="184.67" y2="188.63" xlink:href="#linear-gradient-9"/><linearGradient id="linear-gradient-30" x1="126.24" y1="198.69" x2="147.54" y2="173.97" gradientTransform="translate(316.42 19.82) rotate(88.09)" xlink:href="#linear-gradient-9"/><linearGradient id="linear-gradient-31" x1="149.39" y1="158.45" x2="146.73" y2="186.49" gradientTransform="translate(188.31 -50.93) rotate(50.65)" xlink:href="#linear-gradient-9"/><linearGradient id="linear-gradient-32" x1="148.62" y1="165.02" x2="146.36" y2="181.85" xlink:href="#linear-gradient-9"/><linearGradient id="linear-gradient-33" x1="-10971.16" y1="130.8" x2="-10961.41" y2="130.8" gradientTransform="matrix(-1, 0.05, 0.05, 1, -10740.99, 680.95)" xlink:href="#linear-gradient-6"/><linearGradient id="linear-gradient-34" x1="-10790.76" y1="-782.47" x2="-10786.8" y2="-782.47" gradientTransform="matrix(-0.99, -0.11, -0.11, 0.99, -10588.49, -179.51)" xlink:href="#linear-gradient-12"/><linearGradient id="linear-gradient-35" x1="-10892.67" y1="-157.22" x2="-10877.37" y2="-157.22" gradientTransform="matrix(-1, 0.03, 0.03, 1, -10677.24, 793.21)" xlink:href="#linear-gradient-6"/><linearGradient id="linear-gradient-36" x1="-10935.58" y1="426.45" x2="-10931.65" y2="426.45" gradientTransform="matrix(-0.99, 0.14, 0.14, 0.99, -10689.68, 1316.92)" xlink:href="#linear-gradient-12"/><linearGradient id="linear-gradient-37" x1="280.41" y1="119.48" x2="216.18" y2="220.37" xlink:href="#linear-gradient-7"/><linearGradient id="linear-gradient-38" x1="221.94" y1="135.34" x2="221.94" y2="175.13" xlink:href="#linear-gradient-7"/><linearGradient id="linear-gradient-39" x1="-10752.86" y1="-906.32" x2="-10760.86" y2="-862.08" gradientTransform="matrix(-0.99, -0.11, -0.11, 0.99, -10588.49, -179.51)" xlink:href="#linear-gradient-6"/><linearGradient id="linear-gradient-40" x1="-10744.73" y1="-897.07" x2="-10730.12" y2="-897.07" gradientTransform="matrix(-0.99, -0.11, -0.11, 0.99, -10588.49, -179.51)" xlink:href="#linear-gradient-12"/><linearGradient id="linear-gradient-41" x1="159.58" y1="205.05" x2="200.63" y2="173.41" gradientTransform="matrix(1, 0, 0, 1, 0, 0)" xlink:href="#linear-gradient-6"/><linearGradient id="linear-gradient-42" x1="-10711.64" y1="-893.89" x2="-10743.22" y2="-854.6" gradientTransform="matrix(-0.99, -0.11, -0.11, 0.99, -10588.49, -179.51)" xlink:href="#linear-gradient-12"/><linearGradient id="linear-gradient-43" x1="-10705.65" y1="-889.07" x2="-10737.23" y2="-849.79" gradientTransform="matrix(-0.99, -0.11, -0.11, 0.99, -10588.49, -179.51)" xlink:href="#linear-gradient-12"/><linearGradient id="linear-gradient-44" x1="-10747.17" y1="-917.63" x2="-10777.75" y2="-861.44" gradientTransform="matrix(-0.99, -0.11, -0.11, 0.99, -10588.49, -179.51)" xlink:href="#linear-gradient-12"/><linearGradient id="linear-gradient-45" x1="-8740.79" y1="-3929.91" x2="-8754.31" y2="-3912.03" gradientTransform="matrix(-0.75, -0.66, -0.66, 0.75, -8940.78, -2749.01)" xlink:href="#linear-gradient-12"/><linearGradient id="linear-gradient-46" x1="-8751.12" y1="-3925.6" x2="-8734.97" y2="-3925.6" gradientTransform="matrix(-0.75, -0.66, -0.66, 0.75, -8940.78, -2749.01)" xlink:href="#linear-gradient-6"/><linearGradient id="linear-gradient-47" x1="-8760.59" y1="-3915.75" x2="-8749.75" y2="-3926.87" gradientTransform="matrix(-0.75, -0.66, -0.66, 0.75, -8940.78, -2749.01)" xlink:href="#linear-gradient-12"/><linearGradient id="linear-gradient-48" x1="141.68" y1="169.04" x2="169.93" y2="136.25" gradientTransform="translate(167.26 -82.22) rotate(50.65)" xlink:href="#linear-gradient-9"/><linearGradient id="linear-gradient-49" x1="171.36" y1="105.4" x2="169.79" y2="160.23" gradientTransform="translate(255.66 -64.91) rotate(74.52)" xlink:href="#linear-gradient-9"/><linearGradient id="linear-gradient-50" x1="170.97" y1="123.45" x2="167.74" y2="147.53" xlink:href="#linear-gradient-9"/></defs><g class="cls-1"><g id="Layer_2" data-name="Layer 2"><g id="Illustration"><path class="cls-2" d="M229.86,220.87a93.25,93.25,0,0,1-14.38,11.87c-46.91,33-102.43,23.39-114.23,21-17.42-3.47-51.1-10.17-75.44-38.25C-11,173-5.29,106.11,23.28,61.93,28.51,53.85,56.11,9,112.22,1.81c34-4.36,73.55,4.42,102.21,28C274.6,79.22,270.32,179.1,229.86,220.87Z"/><g class="cls-3"><path class="cls-4" d="M44.17,21.37a1,1,0,0,1-.26-1.31c.58-1,1.21-1.91,1.87-2.83A1,1,0,0,1,47.17,17l0,0a1,1,0,0,1,.2,1.37c-.62.87-1.22,1.78-1.77,2.7a1,1,0,0,1-1.36.34Zm5.26-6.89a.36.36,0,0,1-.09-.08,1,1,0,0,1,0-1.41c.78-.81,1.6-1.6,2.45-2.35a1,1,0,1,1,1.31,1.49c-.8.71-1.58,1.46-2.32,2.24A1,1,0,0,1,49.43,14.48Zm6.64-5.57a.88.88,0,0,1-.23-.24,1,1,0,0,1,.28-1.38C57.06,6.67,58,6.08,59,5.54A1,1,0,0,1,60,7.29C59,7.8,58.11,8.36,57.22,9A1,1,0,0,1,56.07,8.91ZM63.79,5a1,1,0,0,1-.33-.44A1,1,0,0,1,64,3.25c1.06-.4,2.14-.75,3.23-1.06a1,1,0,0,1,.53,1.92c-1,.29-2.06.63-3.06,1A1,1,0,0,1,63.79,5ZM72.2,2.86a1,1,0,0,1-.39-.66,1,1,0,0,1,.85-1.12C73.78.92,74.91.82,76,.76a1,1,0,0,1,.1,2c-1.07,0-2.15.15-3.21.3A1,1,0,0,1,72.2,2.86Zm8.66-.21A1,1,0,0,1,81.55.86c1.12.1,2.25.25,3.36.44a1,1,0,0,1-.34,2c-1.06-.19-2.13-.33-3.2-.42A1,1,0,0,1,80.86,2.65Zm30.58,20a1,1,0,0,1-.28-.32c-.51-.93-1.07-1.86-1.66-2.75a1,1,0,0,1,.28-1.38,1,1,0,0,1,1.38.27c.62.94,1.21,1.92,1.75,2.91a1,1,0,0,1-1.47,1.27ZM89.35,4.37a1,1,0,0,1,.91-1.74c1.07.34,2.14.74,3.18,1.18a1,1,0,1,1-.77,1.83c-1-.41-2-.79-3-1.12A1.05,1.05,0,0,1,89.35,4.37Zm17.1,11.19-.15-.13c-.71-.8-1.46-1.58-2.24-2.32a1,1,0,0,1,0-1.41,1,1,0,0,1,1.4,0c.82.77,1.62,1.6,2.36,2.44a1,1,0,0,1-.08,1.4A1,1,0,0,1,106.45,15.56Zm-9.2-7.62a1,1,0,0,1,1.11-1.65c1,.58,1.92,1.21,2.83,1.86l0,0A1,1,0,0,1,100,9.77c-.87-.63-1.78-1.22-2.69-1.77Z"/><path class="cls-4" d="M114.22,29.06a1,1,0,0,1-.35-.48c-.16-.49-.33-1-.51-1.46a1,1,0,0,1,.58-1.28,1,1,0,0,1,1.28.58q.28.76.54,1.53a1,1,0,0,1-1.54,1.11Z"/></g><g class="cls-3"><path class="cls-4" d="M111.73,59.29a1,1,0,0,1-.28-1.25c.24-.46.47-.92.69-1.39a1,1,0,0,1,1.8.85c-.23.49-.48,1-.73,1.46a1,1,0,0,1-1.35.42A1,1,0,0,1,111.73,59.29Z"/><path class="cls-4" d="M54.2,72.25c-.37-.27-.73-.55-1.09-.84a1,1,0,1,1,1.25-1.55c.83.66,1.68,1.3,2.55,1.88a1,1,0,0,1,.26,1.38,1,1,0,0,1-1.38.27C55.26,73,54.72,72.64,54.2,72.25Zm-5-4.41-.12-.11c-.77-.81-1.5-1.66-2.19-2.52a1,1,0,0,1,.15-1.4,1,1,0,0,1,1.4.16c.66.82,1.36,1.62,2.08,2.39a1,1,0,0,1-1.32,1.48ZM60.32,76a1,1,0,0,1,1-1.69c.94.47,1.92.9,2.9,1.28a1,1,0,1,1-.73,1.85c-1-.4-2.06-.85-3.05-1.34ZM44.11,61a.92.92,0,0,1-.26-.29c-.56-1-1.1-1.94-1.58-2.94a1,1,0,1,1,1.79-.86c.46.94,1,1.88,1.5,2.79A1,1,0,0,1,44.11,61ZM68.34,78.92a1,1,0,0,1-.37-1,1,1,0,0,1,1.2-.74c1,.25,2.07.46,3.11.62a1,1,0,0,1-.3,2c-1.1-.17-2.2-.38-3.28-.64A.92.92,0,0,1,68.34,78.92ZM76.8,80a1,1,0,0,1-.4-.81,1,1,0,0,1,1-1c1,0,2.12,0,3.17-.08a1,1,0,1,1,.13,2c-1.1.08-2.22.11-3.33.09A1,1,0,0,1,76.8,80Zm8.49-.8a1,1,0,0,1-.38-.59,1,1,0,0,1,.77-1.18c1-.21,2.07-.47,3.08-.77a1,1,0,1,1,.56,1.91c-1.06.31-2.15.59-3.23.81A1,1,0,0,1,85.29,79.19Zm8.11-2.63a1,1,0,0,1,.19-1.7c1-.44,1.91-.92,2.83-1.43a1,1,0,0,1,1.36.39,1,1,0,0,1-.39,1.35c-1,.54-2,1-3,1.5A1,1,0,0,1,93.4,76.56Zm7.34-4.35a.9.9,0,0,1-.19-.2,1,1,0,0,1,.19-1.39c.84-.63,1.66-1.31,2.45-2a1,1,0,0,1,1.33,1.49c-.83.74-1.7,1.45-2.58,2.12A1,1,0,0,1,100.74,72.21ZM107,66.36l0,0a1,1,0,0,1-.12-1.4c.51-.6,1-1.21,1.46-1.83l.5-.67a1,1,0,0,1,1.39-.23,1,1,0,0,1,.23,1.39c-.18.23-.35.47-.53.71q-.73,1-1.53,1.92A1,1,0,0,1,107,66.36Z"/><path class="cls-4" d="M40.59,53.24a1,1,0,0,1-.35-.49c-.17-.51-.33-1-.47-1.56A1,1,0,0,1,40.46,50a1,1,0,0,1,1.22.69c.14.5.29,1,.45,1.48a1,1,0,0,1-.64,1.26A1,1,0,0,1,40.59,53.24Z"/></g><path class="cls-5" d="M48.59,44.81a.47.47,0,0,0,.33.43l5.42,1.63a24.59,24.59,0,0,0,3.35,7.25L55.42,59.3a.46.46,0,0,0,.11.53l5,4.6a.45.45,0,0,0,.54.07l5-2.68a24.6,24.6,0,0,0,7.5,2.76l2,5.27a.48.48,0,0,0,.46.29l6.78-.27a.47.47,0,0,0,.43-.33l1.62-5.42a24.77,24.77,0,0,0,7.26-3.35L97.32,63a.46.46,0,0,0,.53-.11l4.6-5a.49.49,0,0,0,.07-.54l-2.68-5a24.62,24.62,0,0,0,2.75-7.49l5.27-2.06a.47.47,0,0,0,.3-.46l-.27-6.78a.48.48,0,0,0-.34-.43l-5.42-1.62a24.74,24.74,0,0,0-3.34-7.26l2.27-5.18a.46.46,0,0,0-.11-.52L96,16a.49.49,0,0,0-.54-.07l-5,2.68a24.67,24.67,0,0,0-7.5-2.75L80.88,10.6a.45.45,0,0,0-.45-.3l-6.78.28a.46.46,0,0,0-.43.33l-1.63,5.42a24.34,24.34,0,0,0-7.25,3.35L59.16,17.4a.48.48,0,0,0-.53.12l-4.6,5A.45.45,0,0,0,54,23l2.68,5a24.7,24.7,0,0,0-2.76,7.5l-5.27,2.06a.46.46,0,0,0-.29.45Z"/><path class="cls-6" d="M74.14,45.68A6.82,6.82,0,0,1,81.5,34.23a6.82,6.82,0,0,1,2.73,9.25A6.82,6.82,0,0,1,75,46.22,6,6,0,0,1,74.14,45.68Zm7.25-9.63a4.5,4.5,0,0,0-.65-.42,5.27,5.27,0,1,0,.65.42Z"/><path class="cls-7" d="M68.33,53.64A17.23,17.23,0,0,1,67,52.54h0l-.39-.38a17,17,0,0,1-1.76-2l0,0a.27.27,0,0,0-.07-.08,1.63,1.63,0,0,0-.11-.17.41.41,0,0,1,0-.47l.09-.08a.4.4,0,0,1,.56.09A15.58,15.58,0,0,0,67.54,52,16,16,0,0,0,90.13,51a14,14,0,0,0,1.05-1.26A16,16,0,0,0,66.63,29.37c-.37.4-.71.81-1,1.24a16.09,16.09,0,0,0-2.86,6.33.3.3,0,0,1-.07.15.38.38,0,0,1-.4.15.4.4,0,0,1-.31-.47,16.65,16.65,0,0,1,3-6.63,15.13,15.13,0,0,1,1.09-1.31A16.78,16.78,0,0,1,91.82,50.26a15.21,15.21,0,0,1-1.11,1.32,16.77,16.77,0,0,1-22.38,2.06Z"/><g class="cls-3"><path class="cls-4" d="M1.27,21.94a.6.6,0,0,1-.2-.7c.18-.49.38-1,.59-1.46a.62.62,0,0,1,1.13.5c-.21.46-.4.92-.57,1.39a.61.61,0,0,1-.79.36A.51.51,0,0,1,1.27,21.94Z"/><path class="cls-4" d="M3.33,17.69a.61.61,0,0,1-.15-.81,25.82,25.82,0,0,1,1.51-2.24L5,14.19a.65.65,0,0,1,.87-.11A.63.63,0,0,1,6,15l-.33.43a24.24,24.24,0,0,0-1.44,2.14.62.62,0,0,1-.85.2Zm3.94-5-.07-.06a.62.62,0,0,1,0-.87A26.46,26.46,0,0,1,9.66,9.58a.61.61,0,0,1,.75,1,28.49,28.49,0,0,0-2.34,2.06A.61.61,0,0,1,7.27,12.67Zm5-3.92a.52.52,0,0,1-.16-.17.62.62,0,0,1,.22-.85,27.47,27.47,0,0,1,2.91-1.49.62.62,0,0,1,.81.32.62.62,0,0,1-.32.81A24.24,24.24,0,0,0,13,8.79.6.6,0,0,1,12.31,8.75ZM18.16,6.2a.66.66,0,0,1-.22-.32.61.61,0,0,1,.41-.76,27.28,27.28,0,0,1,3.19-.74.63.63,0,0,1,.71.51.61.61,0,0,1-.51.7,24.8,24.8,0,0,0-3,.71A.64.64,0,0,1,18.16,6.2Zm6.29-1A.62.62,0,0,1,24.79,4a29.69,29.69,0,0,1,3.27.06A.62.62,0,0,1,28,5.33a27.12,27.12,0,0,0-3.12-.06A.61.61,0,0,1,24.45,5.15Zm6.36.51a.62.62,0,0,1,.49-1.1,26.32,26.32,0,0,1,3.16.86.61.61,0,1,1-.4,1.16,25.67,25.67,0,0,0-3-.81A.66.66,0,0,1,30.81,5.66Zm6,2a.61.61,0,0,1,.63-1,25.66,25.66,0,0,1,2.85,1.6.62.62,0,0,1-.66,1A25.17,25.17,0,0,0,37,7.77Zm7.67,5.67-.08-.07a24.73,24.73,0,0,0-1.95-1.88l-.31-.27a.61.61,0,0,1-.08-.86.6.6,0,0,1,.86-.08l.33.28a25.46,25.46,0,0,1,2.05,2,.61.61,0,0,1-.82.91Z"/></g><g class="cls-3"><path class="cls-4" d="M10.28,52A.62.62,0,1,1,11,51a25.74,25.74,0,0,0,2.58,1.66.62.62,0,0,1,.24.83.61.61,0,0,1-.84.24A27.69,27.69,0,0,1,10.28,52ZM7.85,50l0,0a27,27,0,0,1-2.21-2.33.61.61,0,1,1,.94-.79,26,26,0,0,0,2.11,2.22.61.61,0,0,1-.79.94Zm7.9,5.07a.61.61,0,0,1,.6-1.06,23.69,23.69,0,0,0,2.91,1,.62.62,0,0,1-.32,1.19,27.33,27.33,0,0,1-3.05-1ZM3.81,45.19A1.07,1.07,0,0,1,3.67,45a25.82,25.82,0,0,1-1.59-2.8.61.61,0,1,1,1.1-.54A25.14,25.14,0,0,0,4.7,44.36a.62.62,0,0,1-.18.85A.63.63,0,0,1,3.81,45.19Zm18,11.52a.59.59,0,0,1-.24-.58.61.61,0,0,1,.69-.52,26.12,26.12,0,0,0,3.06.25.62.62,0,1,1,0,1.23,24.37,24.37,0,0,1-3.2-.27A.54.54,0,0,1,21.81,56.71Zm6.27.14a.59.59,0,0,1-.24-.43.61.61,0,0,1,.55-.67,25.48,25.48,0,0,0,3-.48.62.62,0,0,1,.73.47.6.6,0,0,1-.46.73,26.6,26.6,0,0,1-3.18.5A.59.59,0,0,1,28.08,56.85Zm6.13-1.36a.54.54,0,0,1-.21-.28.62.62,0,0,1,.37-.79,25.23,25.23,0,0,0,2.83-1.19.61.61,0,0,1,.55,1.1,26.65,26.65,0,0,1-3,1.25A.61.61,0,0,1,34.21,55.49Z"/><path class="cls-4" d="M1.05,39.52a.56.56,0,0,1-.21-.29c-.18-.5-.33-1-.47-1.5a.61.61,0,1,1,1.18-.33c.13.47.28,1,.45,1.43a.61.61,0,0,1-.38.78A.6.6,0,0,1,1.05,39.52Z"/></g><path class="cls-5" d="M6.22,33.48a.31.31,0,0,0,.22.28l3.63,1.09a16.48,16.48,0,0,0,2.24,4.86l-1.52,3.46a.33.33,0,0,0,.08.36l3.34,3.08a.3.3,0,0,0,.35,0l3.34-1.79a16.29,16.29,0,0,0,5,1.84l1.38,3.53a.33.33,0,0,0,.31.2l4.53-.19a.3.3,0,0,0,.29-.22l1.09-3.62a16.68,16.68,0,0,0,4.85-2.24l3.47,1.51a.29.29,0,0,0,.35-.07l3.08-3.34a.32.32,0,0,0,.05-.36l-1.8-3.33a16.54,16.54,0,0,0,1.85-5l3.53-1.38a.29.29,0,0,0,.19-.3l-.18-4.54a.3.3,0,0,0-.22-.28L42.05,26a16.31,16.31,0,0,0-2.24-4.85l1.52-3.47a.32.32,0,0,0-.07-.35l-3.34-3.08a.32.32,0,0,0-.36-.05L34.23,16a16.61,16.61,0,0,0-5-1.84l-1.38-3.53a.33.33,0,0,0-.3-.2L23,10.57a.31.31,0,0,0-.29.22l-1.09,3.63a16.54,16.54,0,0,0-4.85,2.24l-3.47-1.52a.29.29,0,0,0-.35.07L9.86,18.55a.3.3,0,0,0,0,.36l1.79,3.33a16.35,16.35,0,0,0-1.84,5L6.24,28.64a.3.3,0,0,0-.2.3Z"/><path class="cls-8" d="M23.26,34.12a4.68,4.68,0,0,1-1.66-2.4A4.58,4.58,0,0,1,22,28.19a4.65,4.65,0,1,1,5.4,6.67,4.6,4.6,0,0,1-3.54-.37A5.72,5.72,0,0,1,23.26,34.12Zm4.86-6.45a3.87,3.87,0,0,0-.43-.27,3.42,3.42,0,1,0-3.26,6h0a3.42,3.42,0,0,0,3.69-5.74Z"/><path class="cls-9" d="M19.21,39.66c-.31-.24-.61-.49-.9-.76a11.91,11.91,0,0,1-1.57-1.76l-.06-.09a.63.63,0,0,1,0-.72l.14-.14a.63.63,0,0,1,.86.15A10.4,10.4,0,0,0,19.14,38h0l.09.08a10.35,10.35,0,0,0,7.25,2.66h.09a10.26,10.26,0,0,0,7.19-3.32,8.69,8.69,0,0,0,.68-.82A10.34,10.34,0,1,0,16,28.28a.66.66,0,0,1-.11.24.62.62,0,0,1-1.1-.49,11.56,11.56,0,0,1,2.08-4.58,10.64,10.64,0,0,1,.75-.91A11.58,11.58,0,0,1,35.43,37.33c-.24.31-.49.62-.76.91A11.6,11.6,0,0,1,19.21,39.66Z"/><path class="cls-4" d="M245.27,22c-.71-.64-1.67-1.59-2.24-1-9.28,9.19-31.44,36.34-24.45,80.71,8.76,55.67-2.88,77-17.75,90.5a44.58,44.58,0,0,0,16.84-3.06C272.23,167.33,260.59,35.59,245.27,22Z"/><path class="cls-10" d="M238.53,40c-1,6.33-1.9,12.68-2.54,19s-1.15,12.71-1.42,19.07-.35,12.7-.19,19,.55,12.65,1,19,.85,12.72.62,19.19a63.49,63.49,0,0,1-3.52,19.27c-.56,1.56-1.16,3.11-1.84,4.62s-1.38,3-2.13,4.5a73,73,0,0,1-5.17,8.59A74.6,74.6,0,0,1,209.51,187a1.3,1.3,0,0,1-1.8-.1,1.21,1.21,0,0,1,.15-1.72h0c1.24-1.07,2.47-2.16,3.65-3.29.6-.56,1.17-1.14,1.75-1.72s1.15-1.16,1.69-1.76a70.94,70.94,0,0,0,6.08-7.57,74.21,74.21,0,0,0,8.77-17,62.55,62.55,0,0,0,2.43-9.14,68.37,68.37,0,0,0,1-9.36c.27-6.28-.11-12.61-.47-19s-.66-12.72-.69-19.12c0-3.19,0-6.39.1-9.59,0-1.6.11-3.2.18-4.8s.18-3.19.28-4.79q.66-9.58,1.93-19.15c.88-6.36,1.93-12.71,3.24-19a.36.36,0,0,1,.4-.28A.33.33,0,0,1,238.53,40Z"/><path class="cls-11" d="M199.34,160a2.15,2.15,0,0,1-3.8-1c-3-20.39-13.64-101.63,1.32-155.34a5,5,0,0,1,8.56-1.93C221.78,20.84,262.1,81.45,199.34,160Z"/><path class="cls-10" d="M204.61,28.68c.76,2.61,1.34,5.26,1.87,7.92s1,5.34,1.35,8c.78,5.37,1.31,10.78,1.66,16.19S210,71.67,210,77.1s-.19,10.86-.5,16.29l-.26,4.06-.33,4.06-.17,2-.21,2-.42,4.05c-.65,5.4-1.34,10.79-2.25,16.15q-2.62,16.08-6.71,31.9a1.1,1.1,0,1,1-2.14-.55h0q4.29-15.65,7.18-31.63c1-5.32,1.77-10.67,2.5-16l.48-4,.24-2,.2-2,.4-4,.32-4c.39-5.4.68-10.8.76-16.22s0-10.82-.25-16.23-.7-10.81-1.39-16.18c-.33-2.69-.75-5.36-1.22-8s-1-5.32-1.74-7.93h0s0-.07,0-.07A.05.05,0,0,1,204.61,28.68Z"/><path class="cls-12" d="M20.26,51a9.68,9.68,0,0,0-8.84,9.63c-.09,30.67-.23,136.44,1.76,173.87a7.54,7.54,0,0,0,7.44,7.13c19.64.21,76.15.6,108.22-1.46a12.66,12.66,0,0,0,11.87-12.65c0-32.18-.55-122.7-5-164.07a10.34,10.34,0,0,0-9.48-9.21C104.85,52.61,48,48.63,20.26,51Z"/><path class="cls-13" d="M19.3,68.71c-.38,26.23-1.48,113.49.43,145.69A9,9,0,0,0,28.19,223c18.59.65,66.26,1.9,93.42-1.08a10.07,10.07,0,0,0,8.76-9.92c.68-26.76,2.51-108,.65-139.88a9.91,9.91,0,0,0-9-9.46c-20.13-1.36-71.82-4.49-94.92-2.56A8.65,8.65,0,0,0,19.3,68.71Z"/><path class="cls-14" d="M23.05,72.77c-.36,25.08-1.38,108.51.45,139.3a8.53,8.53,0,0,0,8,8.21c17.6.62,62.73,1.83,88.45-1a9.59,9.59,0,0,0,8.29-9.48c.63-25.59,2.35-103.29.58-133.74A9.43,9.43,0,0,0,120.25,67c-19-1.3-68-4.31-89.85-2.47A8.22,8.22,0,0,0,23.05,72.77Z"/><path class="cls-15" d="M64.22,55.6a1.35,1.35,0,0,0,1.31,1.33c3.58.11,13.66.42,18.16.58a1.36,1.36,0,0,0,1.38-1.65,1.38,1.38,0,0,0-1.27-1.22,174.62,174.62,0,0,0-18.31-.43A1.4,1.4,0,0,0,64.22,55.6Z"/><path class="cls-16" d="M115.61,41.27a10.59,10.59,0,0,0-9.67,10.54c-.1,33.53-.25,149.22,1.93,190.16a8.24,8.24,0,0,0,8.13,7.8c21.49.23,83.29.65,118.37-1.59a13.85,13.85,0,0,0,13-13.84c0-35.2-.6-134.2-5.42-179.45a11.3,11.3,0,0,0-10.37-10.07C208.12,43,145.9,38.64,115.61,41.27Z"/><path class="cls-11" d="M114.56,60.6c-.42,28.69-1.62,124.12.48,159.35a9.77,9.77,0,0,0,9.24,9.38c20.33.71,72.47,2.08,102.18-1.19A11,11,0,0,0,236,217.3c.74-29.27,2.75-118.16.71-153A10.83,10.83,0,0,0,226.86,54c-22-1.49-78.55-4.91-103.81-2.8A9.45,9.45,0,0,0,114.56,60.6Z"/><path class="cls-5" d="M118.11,64.81c-.38,27.27-1.44,118,.53,151.5a9.21,9.21,0,0,0,8.59,8.93c18.9.69,67.36,2,95-1.07a10.36,10.36,0,0,0,8.9-10.3c.68-27.84,2.49-112.35.58-145.47a10.21,10.21,0,0,0-9.2-9.84c-20.46-1.43-73-4.71-96.48-2.72A8.88,8.88,0,0,0,118.11,64.81Z"/><path class="cls-15" d="M163.69,46.26a1.49,1.49,0,0,0,1.44,1.46c3.91.11,14.93.45,19.86.63a1.48,1.48,0,0,0,1.5-1.8,1.51,1.51,0,0,0-1.38-1.34,191.81,191.81,0,0,0-20-.47A1.53,1.53,0,0,0,163.69,46.26Z"/><rect class="cls-17" x="38.13" y="101.49" width="56.4" height="22.56" rx="11.28"/><path class="cls-18" d="M50.51,114.07h-2v3.13a1.48,1.48,0,0,1-.32,1,1,1,0,0,1-.8.34,1,1,0,0,1-.81-.34,1.44,1.44,0,0,1-.31-1V108.7a1.37,1.37,0,0,1,.34-1,1.47,1.47,0,0,1,1.07-.32h2.87a7.56,7.56,0,0,1,2,.19,2.88,2.88,0,0,1,1.17.63,2.81,2.81,0,0,1,.75,1.07,3.59,3.59,0,0,1,.26,1.42,3.15,3.15,0,0,1-1,2.56A4.72,4.72,0,0,1,50.51,114.07ZM50,109h-1.5v3.37H50a4.49,4.49,0,0,0,1.32-.16,1.5,1.5,0,0,0,.81-.54,1.61,1.61,0,0,0,.28-1A1.64,1.64,0,0,0,52,109.5,2.84,2.84,0,0,0,50,109Z"/><path class="cls-18" d="M58.71,108.5v8h4.54a1.17,1.17,0,0,1,.83.26.88.88,0,0,1,.29.66.85.85,0,0,1-.29.66,1.21,1.21,0,0,1-.83.25h-5.4a1.45,1.45,0,0,1-1.06-.32,1.48,1.48,0,0,1-.32-1v-8.5a1.5,1.5,0,0,1,.31-1,1,1,0,0,1,.8-.34,1.05,1.05,0,0,1,.82.34A1.43,1.43,0,0,1,58.71,108.5Z"/><path class="cls-18" d="M72.7,117.12l-.52-1.38h-4.5l-.52,1.41a4.71,4.71,0,0,1-.53,1.12.82.82,0,0,1-.72.29,1,1,0,0,1-.74-.31.93.93,0,0,1-.33-.7,1.54,1.54,0,0,1,.08-.46,7.06,7.06,0,0,1,.25-.68L68,109.24l.29-.74a4,4,0,0,1,.37-.72,1.39,1.39,0,0,1,.5-.46,1.76,1.76,0,0,1,1.55,0,1.59,1.59,0,0,1,.51.45,3.46,3.46,0,0,1,.32.6l.34.86,2.88,7.12a3.54,3.54,0,0,1,.34,1.19,1,1,0,0,1-.32.7,1,1,0,0,1-.77.32,1,1,0,0,1-.45-.09.9.9,0,0,1-.32-.26,1.86,1.86,0,0,1-.27-.5C72.86,117.49,72.77,117.29,72.7,117.12Zm-4.43-3.06h3.3l-1.66-4.56Z"/><path class="cls-18" d="M82.55,109.17H80.11v8a1.48,1.48,0,0,1-.31,1,1.13,1.13,0,0,1-1.61,0,1.43,1.43,0,0,1-.31-1v-8H75.44a1.22,1.22,0,0,1-.85-.25.84.84,0,0,1-.28-.66.82.82,0,0,1,.29-.68,1.22,1.22,0,0,1,.84-.25h7.11a1.24,1.24,0,0,1,.86.25.89.89,0,0,1,.29.68.85.85,0,0,1-.29.66A1.26,1.26,0,0,1,82.55,109.17Z"/><path class="cls-18" d="M85.11,117.2v-8.7a1.45,1.45,0,0,1,.31-1,1,1,0,0,1,.8-.34,1.05,1.05,0,0,1,.82.34,1.43,1.43,0,0,1,.31,1v8.7a1.43,1.43,0,0,1-.31,1,1.05,1.05,0,0,1-.82.34,1,1,0,0,1-.8-.34A1.52,1.52,0,0,1,85.11,117.2Z"/><path class="cls-19" d="M178.22,79.69c-36.43-22.51-67.53-22.31-103.31-5.13a6.61,6.61,0,0,0-3.75,6v1.48A6.6,6.6,0,0,0,80,88.19c30.94-11.32,54.12-17.3,91.62,2.92A6.59,6.59,0,0,0,181.32,86h0A6.58,6.58,0,0,0,178.22,79.69Z"/><path class="cls-20" d="M171.8,62.29l19.48,29.84a1.44,1.44,0,0,1-1.08,2.22L156,97.28a1.67,1.67,0,0,1-1.65-2.36c8.16-10.49,12.93-21.33,14.92-32.45A1.43,1.43,0,0,1,171.8,62.29Z"/><path class="cls-21" d="M54.13,203l-8.2,2.06,2,15.38a17.49,17.49,0,0,0-4.1,7.17c-1,4.1-2,21.33-2,21.33L40,250.13l-.23,1,5.66,7.61-.94-6.06c-.15-1,.11-2.91,0-2.95,3.07-8.21,9.65-31.31,9.65-31.31Z"/><path class="cls-22" d="M56.53,251.22h-.26c.39-4.94,2.2-26.71,4-34.87,2.05-9.22-3.08-27.68-3.08-27.68L48,197.9l5.13,17.43c-3.51,5.27.57,36.13.48,36.12v.07l-1.34,1.84.17,1,8.17,4.83L57.38,254A5.84,5.84,0,0,1,56.53,251.22Z"/><path class="cls-23" d="M46.15,147.74s-18,20.25,0,30.64L48,177.05s-8.92-8.54,0-19Z"/><path class="cls-24" d="M61.14,259.93H58.53a1.57,1.57,0,0,1-1.25-.61c-.81-1.06-2.5-3.12-3.3-3.17-1.09-.07-.95,3.78-.95,3.78h-.6l-.77-4.79a2.82,2.82,0,0,1,1.48-3h0a4,4,0,0,0,1.59,2.64c1.35.81,5.47,3.72,5.47,3.72a3.39,3.39,0,0,1,1.06,0A.69.69,0,0,1,61.14,259.93Z"/><path class="cls-25" d="M45.59,259.64l-2.4-1a1.55,1.55,0,0,1-.91-1c-.34-1.29-1.1-3.84-1.82-4.21-1-.48-2.34,3.12-2.34,3.12l-.56-.23,1.15-4.72a2.84,2.84,0,0,1,2.52-2.15h0a4,4,0,0,0,.44,3.05c.93,1.27,3.61,5.55,3.61,5.55a3.84,3.84,0,0,1,1,.43A.69.69,0,0,1,45.59,259.64Z"/><path class="cls-26" d="M59.56,173.07A33.17,33.17,0,0,0,59.7,180c.44,5.08,2.56,17,2.13,28.42,0,0-6,1.4-16.44.74,0,0-4.4-17.82-3.33-24.6S49,172.93,49,172.93Z"/><polygon class="cls-27" points="55.13 139.11 55.86 147.74 48.89 147.74 50.62 134.57 55.13 139.11"/><path class="cls-28" d="M46.82,146.55c2.41-.13,7.79-.38,11.6-.17,2,.11,4.46.66,4.87,2.63l.16,5.34a10.74,10.74,0,0,1-.16,5l-3.73,13.71s-3.32,2-10.61-.14c0,0-6.4-15.27-3.78-25A1.8,1.8,0,0,1,46.82,146.55Z"/><path class="cls-29" d="M61.67,147c.37-.09.75-.15,1.13-.21,4.23-.71,8.14-2.28,12.27-3.29.52-.12,2.73-.26,3-.8,2-4.45,1.87-9.74,2.58-14.5v0a1.06,1.06,0,0,1,1.2-.9,1.08,1.08,0,0,1,.83.65A30.21,30.21,0,0,1,85,139c0,3.44-.52,6.94-3.49,9.1s-8.18,5.11-11.65,5.9c-2.47.57-9,3.21-10.72.15a5.12,5.12,0,0,1-.52-2.25,6.91,6.91,0,0,1,.32-2.83A3.42,3.42,0,0,1,61.67,147Z"/><path class="cls-30" d="M81.61,129.49l-2.39-2.13.59-6.73s1.24-.12.82,2.64a2.39,2.39,0,0,1,2.38.33C84.05,124.52,83.45,130.19,81.61,129.49Z"/><path class="cls-31" d="M56.5,128.52c.28.08,3.83,6.34,2.92,9.55s-6.55,1.24-8.87-2.51S49.13,126.3,56.5,128.52Z"/><path class="cls-32" d="M43.8,136.54c.52,5.6-3.48,5.24-5.3,8.35-2.94,5.05-10,2.9-14.6,8.24-3.33,3.85-3.29,11.11.32,15.89,5,6.62,15.26,6.86,19.42,3.12,4-3.57,1.34-9.87,6.81-14.27,2.32-1.86,3.83-1.57,4.94-3.62,1.93-3.61-.44-8.75-1.36-10.73-2-4.29-3.73-4.65-3.61-6.84.24-4.26,7-5.44,6.72-8.31-.25-2.62-6.4-5.86-10.62-3.77C40,127.82,43.57,134,43.8,136.54Z"/><path class="cls-4" d="M24.16,165.85a.18.18,0,0,1-.21-.1c-1.77-3.51-2.08-6.65-.92-9.35,1.92-4.47,7.31-6.14,7.37-6.15a.18.18,0,0,1,.23.12.19.19,0,0,1-.12.24c-.06,0-5.28,1.63-7.14,5.94-1.11,2.59-.8,5.63.91,9a.19.19,0,0,1-.08.26Z"/><path class="cls-4" d="M42.9,164.42h0a.11.11,0,0,1-.1-.1c.09-3.56,1.08-6.24,2.94-8a9.13,9.13,0,0,1,4.06-2.07,5.06,5.06,0,0,0,3-1.65c1.41-2,.41-5.81-3-11.3a.11.11,0,0,1,0-.13.1.1,0,0,1,.13,0c3.44,5.55,4.43,9.42,3,11.49a5.13,5.13,0,0,1-3.07,1.73,9.13,9.13,0,0,0-4,2c-1.81,1.71-2.78,4.35-2.87,7.85A.09.09,0,0,1,42.9,164.42Z"/><path class="cls-4" d="M46.27,133.89h0a.08.08,0,0,1-.08-.1c.21-2.23,2.28-2.39,4.47-2.56a9.48,9.48,0,0,0,3.92-.85c.82-.46,1.24-1,1.27-1.56,0-1-1.1-1.77-1.11-1.78a.09.09,0,0,1,0-.13.09.09,0,0,1,.13,0s1.24.87,1.19,2a2.25,2.25,0,0,1-1.36,1.72,9.81,9.81,0,0,1-4,.87c-2.21.17-4.11.32-4.31,2.39A.08.08,0,0,1,46.27,133.89Z"/><circle class="cls-33" cx="135.41" cy="143.52" r="12.1" transform="translate(-55.03 195.19) rotate(-61.85)"/><circle class="cls-34" cx="135.41" cy="143.52" r="11.69" transform="translate(-48.81 72.82) rotate(-25.67)"/><path class="cls-35" d="M125.76,139.12a.53.53,0,0,1-.2-.05.46.46,0,0,1-.2-.61,11.21,11.21,0,0,1,10-6.19,10.65,10.65,0,0,1,2,.19.44.44,0,0,1,.36.52.46.46,0,0,1-.53.37,10.46,10.46,0,0,0-1.86-.17,10.3,10.3,0,0,0-9.24,5.69A.45.45,0,0,1,125.76,139.12Z"/><circle class="cls-36" cx="135.66" cy="143.78" r="9.9" transform="translate(-61.93 138.04) rotate(-45)"/><path class="cls-37" d="M138.83,147.93l-.36.18a3.64,3.64,0,0,1-1.63.33,3.81,3.81,0,0,1-3-1.26A4.58,4.58,0,0,1,133,146h3.36V144.4h-3.81a5.44,5.44,0,0,1,0-.57c0-.23,0-.46,0-.68h3.8v-1.62H133a4.52,4.52,0,0,1,.77-1.11,3.75,3.75,0,0,1,3-1.29,4.39,4.39,0,0,1,1.47.27l.73-1.6a4.92,4.92,0,0,0-2.07-.47,5.68,5.68,0,0,0-4.75,2.21,6.84,6.84,0,0,0-1.13,2h-1.56v1.62h1.2q0,.34,0,.69a5.15,5.15,0,0,0,0,.56h-1.19V146H131a6.32,6.32,0,0,0,1.48,2.42,5.59,5.59,0,0,0,4.31,1.78,6.27,6.27,0,0,0,2.4-.48Z"/><circle class="cls-38" cx="187.53" cy="176.67" r="21.67" transform="matrix(0.25, -0.97, 0.97, 0.25, -30.9, 313.31)"/><circle class="cls-39" cx="187.53" cy="176.67" r="20.95" transform="translate(-70 184.35) rotate(-45)"/><path class="cls-35" d="M170.25,168.43a.46.46,0,0,1-.2-.05.45.45,0,0,1-.2-.61,19.7,19.7,0,0,1,17.68-10.89,20.26,20.26,0,0,1,3.57.32.46.46,0,0,1-.17.9,18.38,18.38,0,0,0-3.4-.31,18.8,18.8,0,0,0-16.87,10.39A.45.45,0,0,1,170.25,168.43Z"/><circle class="cls-36" cx="187.98" cy="177.13" r="17.73" transform="translate(-30.1 315.52) rotate(-75.69)"/><path class="cls-40" d="M194.15,185c-.23.13-.45.24-.67.34a7,7,0,0,1-3.08.61,7.19,7.19,0,0,1-5.71-2.36,9.11,9.11,0,0,1-1.52-2.18h6.33v-3.05h-7.17a9.82,9.82,0,0,1-.06-1.09c0-.43,0-.85.07-1.26h7.16v-3.05h-6.27a9,9,0,0,1,1.46-2.09,7.05,7.05,0,0,1,5.69-2.43,7.75,7.75,0,0,1,2.76.51l1.38-3a9.31,9.31,0,0,0-3.9-.88,10.69,10.69,0,0,0-8.94,4.15,13,13,0,0,0-2.13,3.76h-2.94V176h2.26q-.06.63-.06,1.29c0,.36,0,.71,0,1.06h-2.24v3.05h2.84a12.12,12.12,0,0,0,2.79,4.55,10.53,10.53,0,0,0,8.11,3.35,11.72,11.72,0,0,0,4.52-.9Z"/><circle class="cls-41" cx="147.97" cy="173.47" r="15.88" transform="translate(-30.34 315.58) rotate(-88.09)"/><circle class="cls-42" cx="147.97" cy="173.47" r="15.35" transform="translate(-80 177.92) rotate(-50.65)"/><path class="cls-35" d="M135.31,167.55a.41.41,0,0,1-.21-.05.46.46,0,0,1-.2-.61,14.63,14.63,0,0,1,15.7-7.8.45.45,0,1,1-.16.89,13.77,13.77,0,0,0-14.73,7.32A.45.45,0,0,1,135.31,167.55Z"/><circle class="cls-36" cx="148.3" cy="173.81" r="12.99" transform="translate(-29.24 29.99) rotate(-10.52)"/><path class="cls-43" d="M153,179.28l-.47.23a4.85,4.85,0,0,1-2.15.43,5,5,0,0,1-4-1.65,6.27,6.27,0,0,1-1.06-1.53h4.42v-2.13h-5a6.34,6.34,0,0,1,0-.76,8.49,8.49,0,0,1,.05-.88h5v-2.13h-4.38a5.82,5.82,0,0,1,1-1.46,4.93,4.93,0,0,1,4-1.7,5.66,5.66,0,0,1,1.93.35l1-2.1a6.43,6.43,0,0,0-2.73-.62,7.44,7.44,0,0,0-6.24,2.9,9,9,0,0,0-1.49,2.63h-2.06V173h1.58c0,.3,0,.6,0,.91s0,.49,0,.73h-1.57v2.13h2a8.33,8.33,0,0,0,1.95,3.18,7.35,7.35,0,0,0,5.67,2.35,8.22,8.22,0,0,0,3.16-.64Z"/><path class="cls-44" d="M221,252s1.17,1.65,1.68,6.41a.78.78,0,0,1-.73.87l-8.46.43A.51.51,0,0,1,213,259a13.64,13.64,0,0,1,5-7.36Z"/><path class="cls-45" d="M222.16,249.38l-.93,3.94a.76.76,0,0,1-.73.59,6.83,6.83,0,0,1-1.78-.22,1.23,1.23,0,0,1-.87-1.34l.43-3.85Z"/><path class="cls-46" d="M201.69,252.26a11.83,11.83,0,0,1,1.79,5.93A1.5,1.5,0,0,1,202,259.7l-13.15.46a.63.63,0,0,1-.4-1.13c2.42-1.84,7.2-5.27,10.69-6.68Z"/><path class="cls-47" d="M202,248.07l-.34,5.05a1,1,0,0,1-1.09,1,3.36,3.36,0,0,1-1.21-.32,1.17,1.17,0,0,1-.69-1.11l.23-6.1Z"/><path class="cls-48" d="M228.2,181.38s3.18,3.51,3.42,7.33-9.17,64.42-9.17,64.42-3.6.19-5.29-1.12c0,0,2.29-39.75,1.68-49.07,0,0-13.22,40-16.44,47.09,0,0-3.45,0-4.47-.74,0,0,8.23-52.81,12.13-61.92Z"/><path class="cls-49" d="M219.13,201.8a.52.52,0,0,0,.48-.33l2.08-5.4,3.29-1.62a.52.52,0,1,0-.45-.93l-3.48,1.72a.51.51,0,0,0-.25.27l-2.15,5.59a.51.51,0,0,0,.3.66A.39.39,0,0,0,219.13,201.8Z"/><path class="cls-50" d="M197.31,142.27c15,.44,18.55,4,18.55,4l-8.42,10.47s-14.58-1.93-24.13-11.18a25.62,25.62,0,0,0,4.89-5.79A19.76,19.76,0,0,0,197.31,142.27Z"/><path class="cls-51" d="M176.49,117.82a.46.46,0,0,1,.89-.07l1.44,4.26a4.19,4.19,0,0,1,.05,2.55l-.93,2.28a4.08,4.08,0,0,0,.47,3.33,28.46,28.46,0,0,0,9.79,9.56,25.62,25.62,0,0,1-4.89,5.79,25.83,25.83,0,0,1-7.53-13.4A2,2,0,0,1,174.6,130Z"/><path class="cls-52" d="M191.68,148.26c5.87-5,16.13-6.48,22-6.87a5.33,5.33,0,0,1,5.54,4c1.81,7.28,6.82,26.24,7.84,29.52.83,2.68,1.72,5.32,2.29,7a1.88,1.88,0,0,1-1.15,2.4c-5.12,1.79-14.16,3.46-17.82,4.09A1.22,1.22,0,0,1,209,187a4,4,0,0,0-.32-2l-10.9-23.87c-9.41,8.33-16.83,8.35-22.22,5.69a43.19,43.19,0,0,0,2.85-8.58C186.86,157.78,191.68,148.26,191.68,148.26Z"/><path class="cls-53" d="M164.83,155.17l1.72-1.84c4.48,3.89,8.45,5.14,11.84,4.94a43.19,43.19,0,0,1-2.85,8.58C168.43,163.34,164.83,155.17,164.83,155.17Z"/><path class="cls-54" d="M165.88,155.32l-8.49-.62-7.29-5.22c1.2-.58,7.35,1.56,7.35,1.56s6.72-.25,8.5,0c1.49.16,1,2.27.84,3,0,.15-.07.24-.07.24Z"/><path class="cls-55" d="M206.93,130.14l3.23,11.38s-5.53,3-9.61,2.16l-1.12-10Z"/><path class="cls-56" d="M200.23,121.87c-.12.13-4.51,11.06-4.51,11.06l6.29,2.38,5.71-9.74S202.21,119.64,200.23,121.87Z"/><path class="cls-57" d="M205.1,126.85l-2.6,5.37a.75.75,0,0,1-.13.18c-.31.35-1.46,1.48-2.54.23A7.44,7.44,0,0,0,197,130.2a.82.82,0,0,0-1,.48,35.52,35.52,0,0,0-1.7,5.32.84.84,0,0,0,.57,1,26.74,26.74,0,0,0,6.13,1.21.85.85,0,0,0,.75-.4c.77-1.28,3.12-5.16,4-6.14s2.38-.71,3.06-.57a.83.83,0,0,0,.63-.13,2.17,2.17,0,0,0,.52-3.43.84.84,0,0,1,.15-1.19,2.16,2.16,0,0,0,.64-3.16,3,3,0,0,0-3.52-1.27.86.86,0,0,1-1-.48.64.64,0,0,0-.64-.4.81.81,0,0,1-.77-.93,2.48,2.48,0,0,0-1.62-2.79c-2.73-1.2-4.8,1.33-5.21,3.35s2.63,3.16,4.48,3.23c1.41,0,2.29,1.55,2.64,2.27A.84.84,0,0,1,205.1,126.85Z"/><path class="cls-58" d="M204.74,133.58s.86-3.49,2.35-3.49,2.79,1.36,1.1,3.18C206.09,135.54,204.74,133.58,204.74,133.58Z"/><circle class="cls-59" cx="170.5" cy="135.59" r="21.06" transform="translate(-42.45 181.48) rotate(-50.65)"/><circle class="cls-60" cx="170.5" cy="135.59" r="20.36" transform="translate(-5.69 263.71) rotate(-74.52)"/><path class="cls-35" d="M153.71,127.59a.54.54,0,0,1-.21,0,.46.46,0,0,1-.2-.61A19.23,19.23,0,0,1,174,116.66a.44.44,0,0,1,.36.52.45.45,0,0,1-.52.37,18.35,18.35,0,0,0-19.69,9.79A.45.45,0,0,1,153.71,127.59Z"/><circle class="cls-36" cx="170.94" cy="136.03" r="17.23"/><path class="cls-61" d="M177.22,143.86c-.23.12-.45.24-.67.33a7,7,0,0,1-3.08.62,7.18,7.18,0,0,1-5.71-2.37,8.61,8.61,0,0,1-1.51-2.18h6.33v-3H165.4a9.54,9.54,0,0,1-.05-1.08,10.46,10.46,0,0,1,.07-1.27h7.16v-3.05h-6.27a8.9,8.9,0,0,1,1.45-2.09,7.06,7.06,0,0,1,5.7-2.43,7.83,7.83,0,0,1,2.76.51l1.37-3a9.11,9.11,0,0,0-3.9-.89,10.65,10.65,0,0,0-8.93,4.15,13,13,0,0,0-2.14,3.76h-2.94v3.05H162c0,.43-.07.86-.07,1.3s0,.7.05,1.05h-2.25v3h2.85a12.08,12.08,0,0,0,2.79,4.56,10.52,10.52,0,0,0,8.11,3.35,11.77,11.77,0,0,0,4.52-.91Z"/></g></g></g></svg>