<svg xmlns="http://www.w3.org/2000/svg" viewBox="0 0 198.09 198.09"><defs><style>.cls-1{fill:#4046b3;}</style></defs><g id="Layer_2" data-name="Layer 2"><g id="Capa_1" data-name="Capa 1"><path class="cls-1" d="M99.05,0a99,99,0,1,0,99,99.05A99.16,99.16,0,0,0,99.05,0Zm0,191.15a92.1,92.1,0,1,1,92.1-92.1A92.2,92.2,0,0,1,99.05,191.15Z"/><path class="cls-1" d="M97,126.69a6.68,6.68,0,0,0-6.72,6.46,6.45,6.45,0,0,0,1.86,4.79,6.36,6.36,0,0,0,4.6,2.05,6.69,6.69,0,0,0,6.84-6.58,6.34,6.34,0,0,0-1.87-4.67A6.45,6.45,0,0,0,97,126.69Z"/><path class="cls-1" d="M117.37,66.49q-6.77-5.83-18.16-6.06a41.63,41.63,0,0,0-10.42,1,33.3,33.3,0,0,0-9.36,3.95q-2.82,1.62-2.87,4.2a4.22,4.22,0,0,0,1.28,3.15,4.28,4.28,0,0,0,3.1,1.41,4.87,4.87,0,0,0,2.81-.85,24,24,0,0,1,6.7-2.6,30.38,30.38,0,0,1,7.68-.8q16,.3,15.74,12.49A8.57,8.57,0,0,1,111.75,88a40.76,40.76,0,0,1-6.37,5.68,69,69,0,0,0-6.53,5.63,23.56,23.56,0,0,0-4.32,6.24,20.61,20.61,0,0,0-2,8.79,4.07,4.07,0,0,0,1.34,3.1,5.05,5.05,0,0,0,3.5,1.36,5.14,5.14,0,0,0,3.49-1.22,4,4,0,0,0,1.51-3.05A11.85,11.85,0,0,1,105,107a42.91,42.91,0,0,1,7.34-6.74,62.65,62.65,0,0,0,6-5.08,20.4,20.4,0,0,0,3.91-5.51A17.57,17.57,0,0,0,123.94,82Q124.14,72.32,117.37,66.49Z"/><path class="cls-1" d="M99.05,17.13A82,82,0,0,0,17.13,99.05a3.41,3.41,0,0,0,6.82,0A75.18,75.18,0,0,1,99,24a3.41,3.41,0,1,0,0-6.82Z"/><path class="cls-1" d="M153.66,191.21H105.87a3.41,3.41,0,0,0,0,6.82h47.79a3.41,3.41,0,1,0,0-6.82Z"/></g></g></svg>