<svg xmlns="http://www.w3.org/2000/svg" xmlns:xlink="http://www.w3.org/1999/xlink" viewBox="0 0 259.05 260"><defs><style>.cls-1{isolation:isolate;}.cls-2{fill:url(#linear-gradient);}.cls-3,.cls-34{fill:#91b3fa;}.cls-10,.cls-11,.cls-14,.cls-23,.cls-4,.cls-49,.cls-8{fill:#fff;}.cls-34,.cls-4{opacity:0.24;}.cls-5{opacity:0.84;}.cls-6{fill:#bdd0fb;}.cls-7{fill:#7d97f4;}.cls-8{opacity:0.11;}.cls-9{opacity:0.68;}.cls-10{mix-blend-mode:soft-light;}.cls-12{fill:url(#linear-gradient-2);}.cls-13{fill:url(#linear-gradient-3);}.cls-14{opacity:0.8;}.cls-15{fill:url(#linear-gradient-4);}.cls-16{fill:url(#linear-gradient-5);}.cls-17{fill:url(#linear-gradient-6);}.cls-18{fill:url(#linear-gradient-7);}.cls-19{fill:url(#linear-gradient-8);}.cls-20{fill:url(#linear-gradient-9);}.cls-21{fill:url(#linear-gradient-10);}.cls-22{fill:url(#linear-gradient-11);}.cls-23{opacity:0.37;}.cls-24{fill:url(#linear-gradient-12);}.cls-25{fill:url(#linear-gradient-13);}.cls-26{fill:url(#linear-gradient-14);}.cls-27{fill:url(#linear-gradient-15);}.cls-28{fill:url(#linear-gradient-16);}.cls-29{fill:url(#linear-gradient-17);}.cls-30{fill:url(#linear-gradient-18);}.cls-31{fill:url(#linear-gradient-19);}.cls-32{fill:url(#linear-gradient-20);}.cls-33{fill:url(#linear-gradient-21);}.cls-35{fill:url(#linear-gradient-22);}.cls-36{fill:url(#linear-gradient-23);}.cls-37{fill:url(#linear-gradient-24);}.cls-38{fill:url(#linear-gradient-25);}.cls-39{fill:url(#linear-gradient-26);}.cls-40{fill:url(#linear-gradient-27);}.cls-41{fill:url(#linear-gradient-28);}.cls-42{fill:url(#linear-gradient-29);}.cls-43{fill:url(#linear-gradient-30);}.cls-44{fill:url(#linear-gradient-31);}.cls-45{fill:url(#linear-gradient-32);}.cls-46{fill:url(#linear-gradient-33);}.cls-47{fill:url(#linear-gradient-34);}.cls-48{fill:url(#linear-gradient-35);}.cls-49{opacity:0.7;}.cls-50{fill:url(#linear-gradient-36);}.cls-51{fill:url(#linear-gradient-37);}.cls-52{fill:url(#linear-gradient-38);}.cls-53{fill:url(#linear-gradient-39);}.cls-54{fill:url(#linear-gradient-40);}.cls-55{fill:url(#linear-gradient-41);}.cls-56{fill:url(#linear-gradient-42);}.cls-57{fill:url(#linear-gradient-43);}.cls-58{fill:url(#linear-gradient-44);}.cls-59{fill:url(#linear-gradient-45);}.cls-60{fill:url(#linear-gradient-46);}.cls-61{fill:url(#linear-gradient-47);}.cls-62{fill:url(#linear-gradient-48);}.cls-63{fill:url(#linear-gradient-49);}.cls-64{fill:url(#linear-gradient-50);}.cls-65{fill:url(#linear-gradient-51);}.cls-66{fill:url(#linear-gradient-52);}.cls-67{fill:url(#linear-gradient-53);}.cls-68{fill:url(#linear-gradient-54);}</style><linearGradient id="linear-gradient" x1="290.09" y1="336.04" x2="60.54" y2="50.96" gradientUnits="userSpaceOnUse"><stop offset="0" stop-color="#dae3fe"/><stop offset="1" stop-color="#e9effd"/></linearGradient><linearGradient id="linear-gradient-2" x1="24.41" y1="61.31" x2="53.31" y2="61.31" gradientUnits="userSpaceOnUse"><stop offset="0" stop-color="#4f52ff"/><stop offset="1" stop-color="#4042e2"/></linearGradient><linearGradient id="linear-gradient-3" x1="24.38" y1="76.29" x2="53.31" y2="76.29" xlink:href="#linear-gradient-2"/><linearGradient id="linear-gradient-4" x1="131.49" y1="11.14" x2="152.52" y2="11.14" xlink:href="#linear-gradient-2"/><linearGradient id="linear-gradient-5" x1="131.47" y1="22.05" x2="152.52" y2="22.05" xlink:href="#linear-gradient-2"/><linearGradient id="linear-gradient-6" x1="3214.12" y1="-660.96" x2="3179.98" y2="-615.59" gradientTransform="matrix(1, 0, 0, -1, -2425.06, 306.98)" gradientUnits="userSpaceOnUse"><stop offset="0" stop-color="#09005d"/><stop offset="1" stop-color="#1a0f91"/></linearGradient><linearGradient id="linear-gradient-7" x1="3189.2" y1="-679.71" x2="3155.06" y2="-634.34" gradientTransform="matrix(1, 0, 0, -1, -2422.25, 206.97)" xlink:href="#linear-gradient-6"/><linearGradient id="linear-gradient-8" x1="3171.34" y1="-693.15" x2="3137.2" y2="-647.78" gradientTransform="matrix(1, 0, 0, -1, -2423.83, 130.53)" xlink:href="#linear-gradient-6"/><linearGradient id="linear-gradient-9" x1="-2580.98" y1="-551.82" x2="-2615.12" y2="-506.45" gradientTransform="translate(-2977.15 210.84) rotate(-180)" xlink:href="#linear-gradient-6"/><linearGradient id="linear-gradient-10" x1="3142.69" y1="-714.71" x2="3108.55" y2="-669.34" gradientTransform="matrix(1, 0, 0, -1, -2264.78, 222.61)" xlink:href="#linear-gradient-6"/><linearGradient id="linear-gradient-11" x1="171.14" y1="105.68" x2="204.81" y2="74.34" gradientUnits="userSpaceOnUse"><stop offset="0" stop-color="#ff928e"/><stop offset="1" stop-color="#fe7062"/></linearGradient><linearGradient id="linear-gradient-12" x1="214.14" y1="106.38" x2="250.62" y2="73.64" xlink:href="#linear-gradient-11"/><linearGradient id="linear-gradient-13" x1="147.42" y1="75.27" x2="174.55" y2="41.59" xlink:href="#linear-gradient-11"/><linearGradient id="linear-gradient-14" x1="179.89" y1="67.8" x2="211.69" y2="39.26" xlink:href="#linear-gradient-11"/><linearGradient id="linear-gradient-15" x1="217.57" y1="70.16" x2="247.03" y2="39.29" xlink:href="#linear-gradient-11"/><linearGradient id="linear-gradient-16" x1="140.12" y1="151.3" x2="167.72" y2="118.1" xlink:href="#linear-gradient-11"/><linearGradient id="linear-gradient-17" x1="172.28" y1="152.63" x2="211.57" y2="117.09" xlink:href="#linear-gradient-11"/><linearGradient id="linear-gradient-18" x1="213.44" y1="161.51" x2="248.52" y2="108.65" xlink:href="#linear-gradient-11"/><linearGradient id="linear-gradient-19" x1="137.66" y1="186.22" x2="123.32" y2="58.37" gradientTransform="matrix(1, 0, 0, 1, 0, 0)" xlink:href="#linear-gradient-6"/><linearGradient id="linear-gradient-20" x1="1573.41" y1="218.85" x2="1587.59" y2="217.16" gradientTransform="translate(-1508.48)" gradientUnits="userSpaceOnUse"><stop offset="0" stop-color="#cb236d"/><stop offset="1" stop-color="#4c246d"/></linearGradient><linearGradient id="linear-gradient-21" x1="1770.7" y1="65.22" x2="1619.77" y2="197.53" gradientTransform="translate(-1508.48)" xlink:href="#linear-gradient-2"/><linearGradient id="linear-gradient-22" x1="207.29" y1="232.91" x2="246.58" y2="164.16" xlink:href="#linear-gradient-11"/><linearGradient id="linear-gradient-23" x1="5306.8" y1="220.63" x2="5356.79" y2="221.89" gradientTransform="translate(-5028.48)" xlink:href="#linear-gradient-6"/><linearGradient id="linear-gradient-24" x1="216.14" y1="178.65" x2="243.81" y2="178.65" gradientTransform="matrix(1, 0, 0, 1, 0, 0)" xlink:href="#linear-gradient-6"/><linearGradient id="linear-gradient-25" x1="241.21" y1="178.68" x2="250.22" y2="178.68" gradientTransform="matrix(1, 0, 0, 1, 0, 0)" xlink:href="#linear-gradient-6"/><linearGradient id="linear-gradient-26" x1="216.52" y1="193.22" x2="225.58" y2="193.22" gradientUnits="userSpaceOnUse"><stop offset="0" stop-color="#e1473d"/><stop offset="1" stop-color="#e9605a"/></linearGradient><linearGradient id="linear-gradient-27" x1="5278.93" y1="137.85" x2="5222.54" y2="166.95" gradientTransform="translate(-5028.48)" xlink:href="#linear-gradient-2"/><linearGradient id="linear-gradient-28" x1="5240.72" y1="225.04" x2="5272.24" y2="225.04" gradientTransform="translate(251.15 -5036.21) rotate(87.8)" xlink:href="#linear-gradient-6"/><linearGradient id="linear-gradient-29" x1="5262.27" y1="215.56" x2="5246.25" y2="241.81" gradientTransform="translate(-872.69 -4919.83) rotate(75.47)" xlink:href="#linear-gradient-6"/><linearGradient id="linear-gradient-30" x1="5143.55" y1="225.04" x2="5175.07" y2="225.04" gradientTransform="translate(184.06 -4938.9) rotate(88.09)" xlink:href="#linear-gradient-6"/><linearGradient id="linear-gradient-31" x1="5165.09" y1="215.56" x2="5149.07" y2="241.81" gradientTransform="translate(-1229.37 -4756.83) rotate(72.23)" xlink:href="#linear-gradient-6"/><linearGradient id="linear-gradient-32" x1="5107.49" y1="225.04" x2="5139.02" y2="225.04" gradientTransform="translate(137.05 -4902.98) rotate(87.96)" xlink:href="#linear-gradient-6"/><linearGradient id="linear-gradient-33" x1="1640.22" y1="199.79" x2="1578.4" y2="242.01" gradientTransform="translate(-1451.73 -253.91) rotate(9.22)" xlink:href="#linear-gradient-11"/><linearGradient id="linear-gradient-34" x1="5129.04" y1="215.56" x2="5113.02" y2="241.81" gradientTransform="translate(-972.5 -4790.86) rotate(75.47)" xlink:href="#linear-gradient-6"/><linearGradient id="linear-gradient-35" x1="5275.04" y1="214.78" x2="5280.08" y2="202.75" gradientTransform="translate(-5028.48)" xlink:href="#linear-gradient-26"/><linearGradient id="linear-gradient-36" x1="3762.73" y1="303.54" x2="3776.27" y2="303.54" gradientTransform="matrix(1, 0.01, -0.02, 0.79, -3741.3, -19.56)" xlink:href="#linear-gradient-6"/><linearGradient id="linear-gradient-37" x1="3796.64" y1="287.56" x2="3747.36" y2="326.25" gradientTransform="matrix(1, 0.01, -0.02, 0.79, -3741.3, -19.56)" xlink:href="#linear-gradient-2"/><linearGradient id="linear-gradient-38" x1="-1876.69" y1="252.99" x2="-1845.55" y2="266.45" gradientTransform="matrix(-1, 0, 0, 1, -1825.99, 0)" xlink:href="#linear-gradient-2"/><linearGradient id="linear-gradient-39" x1="1862.51" y1="256.43" x2="1895.18" y2="245.66" gradientTransform="translate(-1829.71)" xlink:href="#linear-gradient-6"/><linearGradient id="linear-gradient-40" x1="-1811.1" y1="125.88" x2="-1874.67" y2="274.28" gradientTransform="matrix(-1, 0, 0, 1, -1825.99, 0)" xlink:href="#linear-gradient-6"/><linearGradient id="linear-gradient-41" x1="42.32" y1="223.82" x2="33.9" y2="169.57" xlink:href="#linear-gradient-2"/><linearGradient id="linear-gradient-42" x1="1852.4" y1="125.18" x2="1844.45" y2="159.52" gradientTransform="translate(-1829.71)" gradientUnits="userSpaceOnUse"><stop offset="0" stop-color="#febbba"/><stop offset="1" stop-color="#ff928e"/></linearGradient><linearGradient id="linear-gradient-43" x1="445.82" y1="-1094.09" x2="431.73" y2="-1075.44" gradientTransform="translate(0.84 1301.64) rotate(-21.06)" xlink:href="#linear-gradient-42"/><linearGradient id="linear-gradient-44" x1="435.06" y1="-1089.61" x2="450.66" y2="-1089.61" gradientTransform="translate(0.84 1301.64) rotate(-21.06)" xlink:href="#linear-gradient-6"/><linearGradient id="linear-gradient-45" x1="425.43" y1="-1079.41" x2="436.59" y2="-1090.85" gradientTransform="translate(0.84 1301.64) rotate(-21.06)" xlink:href="#linear-gradient-42"/><linearGradient id="linear-gradient-46" x1="17.6" y1="106.76" x2="21.66" y2="122.97" xlink:href="#linear-gradient-2"/><linearGradient id="linear-gradient-47" x1="28.39" y1="105.09" x2="25.58" y2="127.54" xlink:href="#linear-gradient-2"/><linearGradient id="linear-gradient-48" x1="72.07" y1="133.38" x2="23.43" y2="162.85" xlink:href="#linear-gradient-11"/><linearGradient id="linear-gradient-49" x1="3301.66" y1="-681.81" x2="3269.02" y2="-713.31" gradientTransform="matrix(-0.25, -0.97, -0.97, 0.25, 189.23, 3525.91)" xlink:href="#linear-gradient-42"/><linearGradient id="linear-gradient-50" x1="34.97" y1="141.77" x2="82.21" y2="109.03" xlink:href="#linear-gradient-2"/><linearGradient id="linear-gradient-51" x1="-1840.75" y1="173.82" x2="-1874.73" y2="171.26" gradientTransform="matrix(-1, 0, 0, 1, -1825.99, 0)" xlink:href="#linear-gradient-42"/><linearGradient id="linear-gradient-52" x1="2060.73" y1="460.48" x2="2075.28" y2="529.02" gradientTransform="matrix(0.99, -0.11, 0.11, 0.99, -2041.26, -87.51)" xlink:href="#linear-gradient-42"/><linearGradient id="linear-gradient-53" x1="169.11" y1="216.91" x2="114.85" y2="216.91" gradientTransform="translate(177.05 433.82) rotate(-180)" xlink:href="#linear-gradient-11"/><linearGradient id="linear-gradient-54" x1="-1950.33" y1="176.88" x2="-1865.85" y2="299.38" gradientTransform="matrix(1, 0, 0, -1, 2019.39, 433.91)" xlink:href="#linear-gradient-11"/></defs><g class="cls-1"><g id="Layer_2" data-name="Layer 2"><g id="Illustration"><path class="cls-2" d="M226.83,223.69a92.47,92.47,0,0,1-14.19,12c-46.28,33.27-101,23.58-112.68,21.21-17.19-3.5-50.42-10.26-74.44-38.56C-10.82,175.49-5.16,108.05,23,63.52c5.16-8.14,32.39-53.34,87.75-60.59,33.5-4.39,72.55,4.46,100.83,28.2C271,81,266.75,181.59,226.83,223.69Z"/><path class="cls-3" d="M35.38,138.3c.62-16.47,1.91-82-14.76-123.45-1.19-3-5.63-3.7-7-.83C5.72,30.66-20.84,82.17,32.44,139.43A1.71,1.71,0,0,0,35.38,138.3Z"/><path class="cls-4" d="M32.72,138.57a.91.91,0,0,1-.32-.42C20,106.08,16.1,80,15.07,63.75c-1.12-17.64.69-27.54.77-27.95a1,1,0,0,1,1.88.35c-.07.4-7.16,40.46,16.46,101.31a1,1,0,0,1-1.46,1.11Z"/><g class="cls-5"><path class="cls-6" d="M48,159.24a3.42,3.42,0,0,0,5.68,0c7.48-11.11,25.8-44.43,12.33-88.7C54.65,33.16,52,11.81,51.51,2A2.14,2.14,0,0,0,47.58,1C35,20-.8,86,48,159.24Z"/><path class="cls-4" d="M51,158.43a1,1,0,0,1-.47-1c.09-.58,8.78-58.89-4.59-111.19a1,1,0,0,1,1.94-.49c13.47,52.7,4.72,111.4,4.63,112a1,1,0,0,1-1.14.84A.92.92,0,0,1,51,158.43Z"/></g><ellipse class="cls-7" cx="126.81" cy="108.03" rx="99.42" ry="107.32" transform="translate(13.33 229.98) rotate(-87.49)"/><ellipse class="cls-8" cx="121.01" cy="100.86" rx="84.21" ry="79.55"/><g class="cls-9"><path class="cls-10" d="M154.23,108.51a300.6,300.6,0,0,1-4.32,52.39c-.78,4.32-1.69,8.62-2.77,12.88a121.1,121.1,0,0,1-3.87,12.59,59,59,0,0,1-5.77,11.88,23.65,23.65,0,0,1-4.33,5.05,12,12,0,0,1-2.83,1.82,8.33,8.33,0,0,1-6.66.17,11.67,11.67,0,0,1-2.9-1.73,22.71,22.71,0,0,1-4.42-5,57.62,57.62,0,0,1-5.85-11.83,118.23,118.23,0,0,1-3.91-12.59c-1.09-4.25-2-8.55-2.8-12.86-1.57-8.64-2.65-17.36-3.37-26.1s-1.08-17.52-1.13-26.29c0-4.38.1-8.77.26-13.15s.4-8.76.73-13.14c.64-8.75,1.61-17.47,3-26.13.73-4.32,1.57-8.63,2.58-12.9A123.55,123.55,0,0,1,109.59,31c.73-2.07,1.54-4.12,2.46-6.12a45.14,45.14,0,0,1,3.14-5.8,21.54,21.54,0,0,1,4.33-5,11.11,11.11,0,0,1,2.86-1.72,8.23,8.23,0,0,1,3.29-.58,8.64,8.64,0,0,1,3.25.76,12.67,12.67,0,0,1,2.83,1.76,24.6,24.6,0,0,1,4.42,4.92,59.21,59.21,0,0,1,6.06,11.69,119.66,119.66,0,0,1,4.16,12.5c1.17,4.23,2.16,8.51,3,12.81A275.17,275.17,0,0,1,154.23,108.51Zm-1.3,0c0-8.74-.31-17.48-1-26.19a252.43,252.43,0,0,0-3.42-26c-.8-4.29-1.74-8.56-2.86-12.78a120.38,120.38,0,0,0-4-12.46,58.32,58.32,0,0,0-5.88-11.64,23.67,23.67,0,0,0-4.27-4.87,12.71,12.71,0,0,0-2.71-1.73,8.17,8.17,0,0,0-3.1-.76,7.6,7.6,0,0,0-3.12.59,10.69,10.69,0,0,0-2.73,1.68,21.12,21.12,0,0,0-4.18,4.94,43.93,43.93,0,0,0-3,5.76c-.89,2-1.66,4-2.37,6.09a124.58,124.58,0,0,0-3.51,12.61c-1,4.26-1.75,8.56-2.42,12.87C103,65.29,102.08,74,101.53,82.72s-.75,17.46-.74,26.2.27,17.48.92,26.19,1.66,17.4,3.16,26c.75,4.3,1.63,8.58,2.68,12.81a120.33,120.33,0,0,0,3.78,12.52,57.26,57.26,0,0,0,5.68,11.7,21.78,21.78,0,0,0,4.23,4.84,10.6,10.6,0,0,0,2.71,1.64,7.52,7.52,0,0,0,3.06.59,7.78,7.78,0,0,0,3-.75,11.5,11.5,0,0,0,2.66-1.74,22.82,22.82,0,0,0,4.14-4.92,58.37,58.37,0,0,0,5.59-11.75,120.31,120.31,0,0,0,3.74-12.53c1-4.24,1.91-8.52,2.65-12.82,1.49-8.61,2.48-17.3,3.14-26S152.94,117.25,152.93,108.51Z"/><path class="cls-10" d="M198.47,108.51A127.53,127.53,0,0,1,193.93,142a107.75,107.75,0,0,1-14,30.7,88.56,88.56,0,0,1-10.7,13.1,75.46,75.46,0,0,1-13.17,10.6,63.6,63.6,0,0,1-15.37,7,57.39,57.39,0,0,1-33.41,0,63.61,63.61,0,0,1-15.38-7,75.23,75.23,0,0,1-13.19-10.6A89.13,89.13,0,0,1,68,172.73,108.25,108.25,0,0,1,54,142a121.53,121.53,0,0,1-3.4-16.6,125.29,125.29,0,0,1,0-33.8A121.56,121.56,0,0,1,54,75,107.75,107.75,0,0,1,68,44.32,87.9,87.9,0,0,1,78.76,31.24,74.59,74.59,0,0,1,91.94,20.66a63.86,63.86,0,0,1,15.37-7,57.11,57.11,0,0,1,33.36,0,63.55,63.55,0,0,1,15.35,7,74.45,74.45,0,0,1,13.16,10.58,87.23,87.23,0,0,1,10.7,13.09,107.59,107.59,0,0,1,14,30.68A127.84,127.84,0,0,1,198.47,108.51Zm-1.49,0a126.87,126.87,0,0,0-4.35-33.12A107.54,107.54,0,0,0,179.06,44.9a87.5,87.5,0,0,0-10.45-13.06,73.65,73.65,0,0,0-12.94-10.61,62.77,62.77,0,0,0-15.17-7,55.66,55.66,0,0,0-33,0,62.38,62.38,0,0,0-15.16,7A73.07,73.07,0,0,0,79.4,31.87,86.94,86.94,0,0,0,69,44.94,107.09,107.09,0,0,0,55.44,75.42a122,122,0,0,0-3.25,16.4,131.15,131.15,0,0,0-1.09,16.69,129.35,129.35,0,0,0,1.1,16.69,121.85,121.85,0,0,0,3.26,16.39A107.18,107.18,0,0,0,69,172.05a87.41,87.41,0,0,0,10.43,13,73,73,0,0,0,12.92,10.6,62.71,62.71,0,0,0,15.14,7,55.32,55.32,0,0,0,33,0,62.61,62.61,0,0,0,15.16-7,73.34,73.34,0,0,0,12.93-10.58,88.06,88.06,0,0,0,10.45-13,107,107,0,0,0,13.58-30.47A125.93,125.93,0,0,0,197,108.51Z"/><path class="cls-10" d="M37.08,70.16a.09.09,0,0,1-.1-.09.09.09,0,0,1,.1-.1l22.36-.18,22.37-.1,44.73-.09,44.74.09,22.37.12L216,70a.07.07,0,0,1,.07.07.07.07,0,0,1-.07.06l-22.36.2-22.37.11-44.74.09-44.73-.08-22.37-.11Z"/><path class="cls-10" d="M62.93,32.6a.09.09,0,0,1,.09-.09c5.3-.09,10.59-.12,15.88-.19l15.88-.1c5.3,0,10.59,0,15.88,0l15.88,0,31.76.09,15.88.11c5.3.07,10.59.11,15.88.2a.07.07,0,0,1,.07.06.07.07,0,0,1-.07.07c-5.29.09-10.58.13-15.88.19L158.3,33l-31.76.09-15.88,0c-5.29,0-10.58,0-15.88-.06l-15.88-.1c-5.29-.06-10.58-.09-15.88-.18A.09.09,0,0,1,62.93,32.6Z"/><path class="cls-10" d="M29.3,107.63a.1.1,0,0,1,0-.2l24.31-.18,24.31-.1,48.62-.08,48.63.09,24.31.11,24.31.19a.07.07,0,0,1,.06.07.07.07,0,0,1-.06.07l-24.31.19-24.31.11-48.63.09-48.62-.08-24.31-.1Z"/><path class="cls-10" d="M37.08,144.89l22.36-.18,22.37-.1,44.73-.08,44.74.09,22.37.11,22.36.2a.07.07,0,0,1,.07.06.07.07,0,0,1-.07.07l-22.36.19-22.37.11-44.74.1-44.73-.09-22.37-.1-22.36-.18a.09.09,0,0,1-.1-.1A.1.1,0,0,1,37.08,144.89Z"/><path class="cls-10" d="M193.61,182.46a.35.35,0,0,1-.35.34h-127a.35.35,0,1,1,0-.69h127A.35.35,0,0,1,193.61,182.46Z"/></g><path class="cls-11" d="M39.85,90.75a1,1,0,0,1-.34-.06,1.09,1.09,0,0,1-.69-1.38c.14-.42.28-.83.43-1.25a1.1,1.1,0,0,1,2.06.75c-.15.39-.29.79-.42,1.19A1.1,1.1,0,0,1,39.85,90.75Zm2-5.06a1.2,1.2,0,0,1-.45-.09,1.09,1.09,0,0,1-.55-1.44c.18-.4.36-.8.55-1.2a1.09,1.09,0,0,1,2,.93c-.18.38-.35.77-.53,1.15A1.08,1.08,0,0,1,41.83,85.69Zm2.41-4.85a1.07,1.07,0,0,1-.52-.14,1.09,1.09,0,0,1-.43-1.48c.21-.38.42-.76.64-1.14a1.09,1.09,0,0,1,1.89,1.09c-.21.36-.42.73-.62,1.1A1.1,1.1,0,0,1,44.24,80.84Zm2.81-4.64a1.09,1.09,0,0,1-.91-1.69c.24-.37.48-.73.73-1.09a1.09,1.09,0,0,1,1.8,1.23c-.24.35-.48.7-.71,1.06A1.09,1.09,0,0,1,47.05,76.2Zm3.14-4.42A1.08,1.08,0,0,1,49.33,70c.26-.35.53-.69.8-1a1.1,1.1,0,0,1,1.54-.18,1.08,1.08,0,0,1,.17,1.53l-.78,1A1.09,1.09,0,0,1,50.19,71.78Zm3.45-4.19a1.09,1.09,0,0,1-.82-1.81c.28-.32.57-.65.87-1a1.09,1.09,0,1,1,1.61,1.46l-.84,1A1.08,1.08,0,0,1,53.64,67.59Zm3.7-4a1.1,1.1,0,0,1-.78-1.86l.93-.92a1.09,1.09,0,0,1,1.54,0,1.1,1.1,0,0,1,0,1.55c-.31.29-.61.59-.91.9A1.09,1.09,0,0,1,57.34,63.63Zm3.92-3.74A1.1,1.1,0,0,1,60.53,58l1-.86a1.08,1.08,0,0,1,1.54.1,1.1,1.1,0,0,1-.1,1.54l-1,.85A1.11,1.11,0,0,1,61.26,59.89Zm4.13-3.53a1.09,1.09,0,0,1-.69-1.94l1-.81a1.08,1.08,0,0,1,1.53.18,1.09,1.09,0,0,1-.18,1.53l-1,.8A1.09,1.09,0,0,1,65.39,56.36Zm4.3-3.31a1.09,1.09,0,0,1-.88-.45A1.1,1.1,0,0,1,69,51.07l1.06-.76a1.1,1.1,0,0,1,1.53.25,1.09,1.09,0,0,1-.26,1.52l-1,.76A1.09,1.09,0,0,1,69.69,53.05Zm4.46-3.11a1.09,1.09,0,0,1-.61-2l1.1-.71a1.07,1.07,0,0,1,1.5.32,1.09,1.09,0,0,1-.32,1.51l-1.07.7A1.11,1.11,0,0,1,74.15,49.94Zm4.59-2.89a1.11,1.11,0,0,1-.94-.53,1.09,1.09,0,0,1,.38-1.5l1.12-.66a1.09,1.09,0,1,1,1.1,1.88l-1.1.65A1.06,1.06,0,0,1,78.74,47.05Zm4.71-2.68a1.1,1.1,0,0,1-.52-2.06l1.15-.61a1.09,1.09,0,0,1,1,1.93L84,44.24A1.18,1.18,0,0,1,83.45,44.37Zm4.82-2.47a1.09,1.09,0,0,1-.47-2.08L89,39.26a1.1,1.1,0,0,1,1.46.53,1.09,1.09,0,0,1-.52,1.45l-1.15.55A1.2,1.2,0,0,1,88.27,41.9Zm4.93-2.26a1.1,1.1,0,0,1-1-.66,1.08,1.08,0,0,1,.57-1.43c.4-.18.79-.35,1.19-.51a1.09,1.09,0,1,1,.85,2l-1.18.5A1.11,1.11,0,0,1,93.2,39.64Zm5-2a1.09,1.09,0,0,1-.39-2.11L99.06,35a1.1,1.1,0,0,1,1.4.65,1.08,1.08,0,0,1-.65,1.4l-1.2.45A1,1,0,0,1,98.23,37.6Zm5.11-1.81a1.08,1.08,0,0,1-1-.75,1.09,1.09,0,0,1,.69-1.38l1.24-.39a1.09,1.09,0,0,1,.66,2.08l-1.22.39A1,1,0,0,1,103.34,35.79Zm5.2-1.56a1.09,1.09,0,0,1-.29-2.14l1.26-.34a1.09,1.09,0,0,1,.55,2.11l-1.23.33A1,1,0,0,1,108.54,34.23Zm5.27-1.29a1.09,1.09,0,0,1-.23-2.16l1.27-.27a1.09,1.09,0,0,1,.44,2.14l-1.25.26ZM142,32.12l-.23,0-1.23-.26a1.09,1.09,0,0,1-.87-1.28,1.08,1.08,0,0,1,1.28-.86q.65.12,1.29.27a1.09,1.09,0,0,1-.24,2.15Zm-22.85-.18a1.1,1.1,0,0,1-1.08-.92,1.09,1.09,0,0,1,.91-1.25l1.29-.19a1.09,1.09,0,1,1,.31,2.16l-1.26.18Zm5.38-.67a1.09,1.09,0,0,1-.1-2.18l1.31-.11a1.11,1.11,0,0,1,1.17,1,1.1,1.1,0,0,1-1,1.17l-1.27.1Zm12.12,0h-.11l-1.26-.11a1.09,1.09,0,0,1,.17-2.18c.44,0,.88.07,1.31.12a1.09,1.09,0,0,1-.11,2.17Zm-6.7-.28a1.09,1.09,0,0,1,0-2.18h1.32a1.09,1.09,0,0,1,0,2.18h-1.29Z"/><circle class="cls-12" cx="38.86" cy="61.31" r="14.45"/><path class="cls-13" d="M53.28,60.53H24.41s-1.15,8,11.75,30a3.15,3.15,0,0,0,5.4,0C54.45,68.56,53.28,60.53,53.28,60.53Z"/><path class="cls-14" d="M38.85,92.52v.08h0a3.59,3.59,0,0,1-3.07-1.77c-7.53-12.84-10.3-21-11.29-25.5A14.58,14.58,0,0,1,24,62.21a6.73,6.73,0,0,1,0-1.57l0-.23a14.87,14.87,0,0,1,29.67.14c0,.11,0,.37,0,.8v0a14.72,14.72,0,0,1-.6,4.18c-1,4.54-3.8,12.58-11.21,25.2A3.52,3.52,0,0,1,38.85,92.52Zm-14-31.34a8.06,8.06,0,0,0,0,1h0a13.63,13.63,0,0,0,.47,3v0c1,4.48,3.71,12.49,11.2,25.25a2.7,2.7,0,0,0,2.33,1.33v0a2.86,2.86,0,0,0,2.35-1.35c7.36-12.54,10.11-20.51,11.11-25v0a13.83,13.83,0,0,0,.48-4l-.08-.06h0a6.76,6.76,0,0,1,.06-.7l0,0a14,14,0,0,0-28,.15v.42Z"/><circle class="cls-11" cx="38.91" cy="61.26" r="8.34"/><path class="cls-7" d="M38.91,70.07a8.81,8.81,0,1,1,8.8-8.81A8.82,8.82,0,0,1,38.91,70.07Zm0-16.68a7.88,7.88,0,1,0,7.87,7.87A7.88,7.88,0,0,0,38.91,53.39Z"/><path class="cls-11" d="M31,52.58a.12.12,0,0,1-.1,0,.14.14,0,0,1,0-.2,13,13,0,0,1,8.43-3.12.14.14,0,0,1,0,.28,12.69,12.69,0,0,0-8.25,3A.11.11,0,0,1,31,52.58Z"/><path class="cls-11" d="M26.52,62.3a.15.15,0,0,1-.14-.14,12.89,12.89,0,0,1,1.94-6.82.14.14,0,0,1,.19,0,.13.13,0,0,1,0,.19,12.63,12.63,0,0,0-1.9,6.67A.14.14,0,0,1,26.52,62.3Z"/><circle class="cls-15" cx="142" cy="11.14" r="10.52"/><path class="cls-16" d="M152.5,10.58h-21s-.84,5.83,8.54,21.82a2.3,2.3,0,0,0,3.94,0C153.36,16.42,152.5,10.58,152.5,10.58Z"/><path class="cls-14" d="M142,33.86v.06h0a2.6,2.6,0,0,1-2.23-1.29c-5.49-9.34-7.5-15.25-8.22-18.56a11.17,11.17,0,0,1-.36-2.27,6.33,6.33,0,0,1,0-1.15l0-.17a10.82,10.82,0,0,1,21.6.11,4.21,4.21,0,0,1,0,.58v0a10.75,10.75,0,0,1-.44,3c-.74,3.3-2.77,9.16-8.16,18.34A2.55,2.55,0,0,1,142,33.86ZM131.77,11.05c0,.16,0,.38,0,.72h0a9.86,9.86,0,0,0,.35,2.14v0c.71,3.26,2.7,9.09,8.15,18.38a2,2,0,0,0,1.7,1v0a2.07,2.07,0,0,0,1.7-1c5.36-9.13,7.36-14.93,8.1-18.19v0a9.93,9.93,0,0,0,.35-2.88l-.06,0h0a3,3,0,0,1,0-.51l0,0a10.2,10.2,0,0,0-20.37.11v.31Z"/><circle class="cls-11" cx="142.04" cy="11.11" r="6.07" transform="translate(2.88 41.64) rotate(-16.84)"/><path class="cls-7" d="M142,17.52a6.42,6.42,0,1,1,6.41-6.41A6.43,6.43,0,0,1,142,17.52Zm0-12.15a5.74,5.74,0,1,0,5.73,5.74A5.75,5.75,0,0,0,142,5.37Z"/><path class="cls-11" d="M136.28,4.78a.11.11,0,0,1-.08,0,.11.11,0,0,1,0-.15,9.47,9.47,0,0,1,6.14-2.27.11.11,0,0,1,.1.1.11.11,0,0,1-.1.11,9.24,9.24,0,0,0-6,2.22A.07.07,0,0,1,136.28,4.78Z"/><path class="cls-11" d="M133,11.86a.11.11,0,0,1-.1-.1,9.4,9.4,0,0,1,1.41-5,.1.1,0,0,1,.14,0,.11.11,0,0,1,0,.14,9.17,9.17,0,0,0-1.38,4.86A.11.11,0,0,1,133,11.86Z"/><rect class="cls-17" x="97.3" y="151" width="157.67" height="4.97" transform="translate(352.27 306.98) rotate(180)"/><rect class="cls-18" x="97.3" y="101.1" width="160.48" height="4.77" transform="translate(355.07 206.97) rotate(180)"/><rect class="cls-19" x="97.3" y="63.08" width="158.9" height="4.38" transform="translate(353.49 130.53) rotate(180)"/><path class="cls-20" d="M95.94,28.43h5a0,0,0,0,1,0,0v154a0,0,0,0,1,0,0h0a5,5,0,0,1-5-5V28.43A0,0,0,0,1,95.94,28.43Z" transform="translate(196.91 210.84) rotate(180)"/><path class="cls-21" d="M253.5,29.11H259a0,0,0,0,1,0,0V187.95a5.55,5.55,0,0,1-5.55,5.55h0a0,0,0,0,1,0,0V29.11A0,0,0,0,1,253.5,29.11Z" transform="translate(512.54 222.61) rotate(180)"/><path class="cls-22" d="M173.62,101a4.24,4.24,0,0,1-4.33-4.24V77.85a4.53,4.53,0,0,1,4.48-4.53c7.44-.08,22.8-.08,35.36,1a3.41,3.41,0,0,1,3.11,3.27l1.17,18.26a4.33,4.33,0,0,1-4.23,4.48Z"/><path class="cls-23" d="M189.62,89.4l5.11.55A1.15,1.15,0,0,0,196,88.72l-1.12-15.2c-2.14-.07-4.25-.12-6.29-.16V88.25A1.16,1.16,0,0,0,189.62,89.4Z"/><path class="cls-11" d="M191.71,86.76a.51.51,0,0,0,.51.49h0a.52.52,0,0,0,.49-.55L192,73.43l-1,0Z"/><path class="cls-24" d="M218.45,101a3.64,3.64,0,0,1-3.7-3.64V81.14a3.86,3.86,0,0,1,3.83-3.87c6.38-.07,19.53-.08,30.3.83a2.9,2.9,0,0,1,2.66,2.8l1,15.64a3.71,3.71,0,0,1-3.63,3.84Z"/><path class="cls-23" d="M232.16,91l4.38.47a1,1,0,0,0,1.09-1.05l-1-13c-1.84-.06-3.65-.1-5.39-.13V90.06A1,1,0,0,0,232.16,91Z"/><path class="cls-11" d="M234,88.78a.45.45,0,0,0,.44.42h0a.44.44,0,0,0,.41-.47l-.66-11.37-.88,0Z"/><path class="cls-25" d="M153.57,65.18c-1.46,0-2.66-1.48-2.66-3.35V46.92c0-2,1.23-3.55,2.76-3.57a199.46,199.46,0,0,1,21.82.77,2.49,2.49,0,0,1,1.92,2.58l.72,14.41c.05,1.9-1.12,3.5-2.61,3.53Z"/><path class="cls-23" d="M165.48,56l4,.44a.91.91,0,0,0,1-1l-.88-12-5-.12V55.14A.91.91,0,0,0,165.48,56Z"/><path class="cls-11" d="M167.14,54a.4.4,0,0,0,.4.38h0a.41.41,0,0,0,.39-.43l-.61-10.47-.82,0Z"/><path class="cls-26" d="M185.05,64.7c-1.7,0-3.1-1.71-3.1-3.89V43.49c0-2.27,1.43-4.12,3.21-4.15a230.65,230.65,0,0,1,25.35.9,2.88,2.88,0,0,1,2.23,3L213.58,60c.07,2.22-1.3,4.07-3,4.11Z"/><path class="cls-23" d="M198.89,54.09l4.69.5a1.05,1.05,0,0,0,1.16-1.13l-1-13.94c-2-.06-3.9-.11-5.77-.14V53A1.05,1.05,0,0,0,198.89,54.09Z"/><path class="cls-11" d="M200.81,51.67a.46.46,0,0,0,.47.44h0a.46.46,0,0,0,.44-.49L201,39.45l-.94,0Z"/><path class="cls-27" d="M221.66,65.49c-1.7,0-3.1-1.72-3.1-3.89V44.28c0-2.27,1.43-4.13,3.21-4.15a232.81,232.81,0,0,1,25.35.89,2.89,2.89,0,0,1,2.23,3l.84,16.74c.07,2.22-1.3,4.07-3,4.11Z"/><path class="cls-23" d="M235.5,54.87l4.69.51a1.05,1.05,0,0,0,1.16-1.13l-1-13.94c-2-.06-3.9-.11-5.77-.14V53.82A1,1,0,0,0,235.5,54.87Z"/><path class="cls-11" d="M237.42,52.46a.46.46,0,0,0,.47.44h0a.46.46,0,0,0,.44-.5l-.71-12.17-.94,0Z"/><path class="cls-28" d="M140.57,151.58c-2,.06-3.7-2.53-3.7-5.75V120.27c0-3.35,1.71-6.09,3.83-6.12,6.38-.11,19.54-.12,30.3,1.32,1.47.19,2.61,2.09,2.67,4.42l1,24.71c.08,3.27-1.56,6-3.63,6.06Z"/><path class="cls-23" d="M154.28,127.91l4.38.47a1,1,0,0,0,1.09-1.06l-1-13c-1.83-.06-3.64-.1-5.39-.13v12.75A1,1,0,0,0,154.28,127.91Z"/><path class="cls-11" d="M156.08,125.65a.43.43,0,0,0,.44.41h0a.44.44,0,0,0,.42-.46l-.66-11.37-.89,0Z"/><path class="cls-29" d="M179.67,151.31c-2,.06-3.7-2.52-3.7-5.74V120c0-3.36,1.7-6.09,3.83-6.12,6.38-.11,19.53-.12,30.3,1.31,1.47.2,2.61,2.1,2.66,4.43l1,24.71c.07,3.27-1.56,6-3.63,6.06Z"/><path class="cls-23" d="M193.38,127.64l4.38.48a1,1,0,0,0,1.09-1.06l-1-13c-1.83-.06-3.65-.1-5.39-.13v12.75A1,1,0,0,0,193.38,127.64Z"/><path class="cls-11" d="M195.17,125.39a.45.45,0,0,0,.44.41h0a.43.43,0,0,0,.41-.46L195.39,114l-.88,0Z"/><path class="cls-30" d="M218.86,151.79c-2,.07-3.7-2.83-3.7-6.42V116.8c0-3.75,1.71-6.81,3.83-6.85,6.38-.12,19.54-.13,30.3,1.48,1.47.22,2.61,2.34,2.66,4.94L253,144c.08,3.66-1.56,6.71-3.63,6.78Z"/><path class="cls-23" d="M232.57,125.33l4.38.53a1,1,0,0,0,1.09-1.18l-1-14.56c-1.83-.06-3.64-.11-5.39-.14v14.26A1.06,1.06,0,0,0,232.57,125.33Z"/><path class="cls-11" d="M234.37,122.81a.45.45,0,0,0,.44.46h0a.47.47,0,0,0,.41-.52L234.58,110l-.88,0Z"/><rect class="cls-31" x="74.47" y="211.71" width="133.48" height="12.25"/><path class="cls-32" d="M75.45,224H73.61a2.08,2.08,0,0,1-2.08-2.08V211.71h3.92Z"/><path class="cls-33" d="M206.48,141.64c0-2.92-3.09-5.37-6.43-5.37h-126c-3.34,0-6,2.45-6,5.37V208c0,2.91,2.65,5.4,6,5.4h126c3.34,0,6.43-2.49,6.43-5.4Z"/><path class="cls-34" d="M202.07,144.31c0-2.67-2.3-4.85-5.46-4.85H77.79c-3.15,0-6.26,2.18-6.26,4.85V205c0,2.67,3.11,5.25,6.26,5.25H196.61a5.41,5.41,0,0,0,5.46-5.25Z"/><path class="cls-35" d="M250.22,190,242,164.48a1.51,1.51,0,0,0-1.48-1H207.21V224h45Z"/><path class="cls-36" d="M252.43,214.68a2.78,2.78,0,0,0-1.6-.44l-34.67.67-.15,9.85,34.63.85c1.27,0,2.37-.61,2.37-1.47V215.8A1.25,1.25,0,0,0,252.43,214.68Z"/><path class="cls-37" d="M243.77,188.23l-5-19.84a1.62,1.62,0,0,0-1.5-1.26H217.7a1.71,1.71,0,0,0-1.56,1.73l.47,15.88a1.57,1.57,0,0,0,1.31,1.5l24.09,3.9a1.55,1.55,0,0,0,1.76-1.91Z"/><path class="cls-38" d="M242.77,167l-.26,0a1.55,1.55,0,0,0-1,.69,1.57,1.57,0,0,0-.2,1.25l5.46,20.27a1.56,1.56,0,0,0,1.78,1.13l1.72-.33Z"/><rect class="cls-39" x="216.52" y="191.38" width="9.06" height="3.67" rx="1.47"/><path class="cls-40" d="M209.53,145.6a2.2,2.2,0,0,0-1.57.48,2,2,0,0,0-.75,1.36v16h20.28S226.4,146.83,209.53,145.6Z"/><circle class="cls-41" cx="228.01" cy="225.04" r="15.76" transform="translate(-5.62 444.24) rotate(-87.8)"/><circle class="cls-7" cx="228.01" cy="225.04" r="12.8" transform="translate(-36.49 44.29) rotate(-10.28)"/><path class="cls-6" d="M238.76,229.76l-.12,0a.31.31,0,0,1-.17-.41,11,11,0,0,0-15.53-13.91.32.32,0,0,1-.43-.12.32.32,0,0,1,.12-.43A11.66,11.66,0,0,1,240,225a11.5,11.5,0,0,1-.92,4.53A.3.3,0,0,1,238.76,229.76Z"/><circle class="cls-42" cx="228.01" cy="225.04" r="5.87" transform="translate(-47.03 389.31) rotate(-75.47)"/><circle class="cls-43" cx="130.83" cy="225.04" r="15.76" transform="translate(-98.44 348.31) rotate(-88.09)"/><circle class="cls-7" cx="130.83" cy="225.04" r="12.8" transform="matrix(0.99, -0.16, 0.16, 0.99, -34.36, 23.86)"/><path class="cls-6" d="M141.58,229.76l-.12,0a.31.31,0,0,1-.16-.41,11,11,0,0,0-15.54-13.91.31.31,0,0,1-.42-.12.31.31,0,0,1,.12-.43A11.66,11.66,0,0,1,142.79,225a11.5,11.5,0,0,1-.92,4.53A.31.31,0,0,1,141.58,229.76Z"/><circle class="cls-44" cx="130.83" cy="225.04" r="5.87" transform="matrix(0.31, -0.95, 0.95, 0.31, -123.4, 280.95)"/><circle class="cls-45" cx="94.78" cy="225.04" r="15.76" transform="translate(-133.5 311.73) rotate(-87.96)"/><circle class="cls-46" cx="94.78" cy="225.04" r="12.8" transform="matrix(0.99, -0.16, 0.16, 0.99, -34.82, 18.09)"/><path class="cls-11" d="M105.53,229.76l-.12,0a.31.31,0,0,1-.17-.41,10.86,10.86,0,0,0,.87-4.29,11,11,0,0,0-16.4-9.62.32.32,0,0,1-.31-.55A11.66,11.66,0,0,1,106.73,225a11.5,11.5,0,0,1-.92,4.53A.3.3,0,0,1,105.53,229.76Z"/><circle class="cls-47" cx="94.78" cy="225.04" r="5.87" transform="translate(-146.84 260.34) rotate(-75.47)"/><rect class="cls-48" x="245.17" y="205.34" width="7.1" height="8.57" rx="1.56"/><path class="cls-14" d="M248.36,205.34v8.08h-1.28a2.14,2.14,0,0,1-1.91-1.82v-5.12c0-.86,1.05-1.14,1.91-1.14Z"/><path class="cls-49" d="M209.9,203.45a.31.31,0,0,1-.31-.31v-36a.32.32,0,0,1,.63,0v36A.31.31,0,0,1,209.9,203.45Z"/><path class="cls-6" d="M223.77,161.83a.3.3,0,0,1-.29-.21c-4.66-13.49-14.27-12.54-14.37-12.53a.3.3,0,0,1-.34-.27.32.32,0,0,1,.27-.35c.1,0,10.2-1,15,12.95a.32.32,0,0,1-.2.4Z"/><path class="cls-50" d="M28.21,258.77a1,1,0,0,0,0-.24c-1.41-4.79-8.9-7.83-8.9-7.83l-3,.16c-1.83,4.19-1.67,6.77-1.42,7.92l0,.09A90.15,90.15,0,0,0,28.21,258.77Z"/><path class="cls-51" d="M14.88,258.87a1.15,1.15,0,0,0,.93.77c3.51.62,9.11.2,11.47,0a1,1,0,0,0,.93-.85A90.15,90.15,0,0,1,14.88,258.87Z"/><path class="cls-52" d="M36.4,258a14.56,14.56,0,0,1-4.75-.68c0,.26,0,.53,0,.81a.53.53,0,0,0,.51.54l14.63-.1a.67.67,0,0,0,.54-1C45.41,257.74,40.52,258.09,36.4,258Z"/><path class="cls-53" d="M47.33,257.58a.6.6,0,0,0-.06-.11c-1.29-1.81-4.58-5.4-11.09-7l-3.12-.1a14.9,14.9,0,0,0-1.41,6.89,14.56,14.56,0,0,0,4.75.68C40.52,258.09,45.41,257.74,47.33,257.58Z"/><path class="cls-54" d="M30.93,178.23s6.58,36.72,6.44,72.71c0,.66-4.78,1.53-4.89.92-1-6.18-8-46.47-11.5-52.13,0,0-1.4,35.66-.68,51.77,0,.4-4.45,1-4.52.57-.75-5.24-5.81-41.68-5.63-64.14,0-1.26,1.19-11.82,1.19-11.82C18.77,177.4,24.44,179.65,30.93,178.23Z"/><path class="cls-55" d="M7.05,157.14c-4.34-9.57-4.8-16.29,0-19.15a8.36,8.36,0,0,1,.87-.17L14,137h0a77.79,77.79,0,0,1,10.52-1.45c5.09-.32,10.56,0,12.76,2.52a36.66,36.66,0,0,0,4.36,7.5c4.09,5.36,6.1,11.34,8.22,10.17.58-.31,1-2.45,1.45-3.41a11,11,0,0,1,7,3.21c-1.77,9.64-7.64,13.62-22,1.78-2.73,7.73-5.74,17.5-4.76,24.59a1.26,1.26,0,0,1-1,1.34c-3.28.49-13.69,1.73-18.76-.3-.3-.12-1.12-.28-1.12-.6A70.06,70.06,0,0,0,7.4,158.52,12.67,12.67,0,0,1,7.05,157.14Z"/><path class="cls-56" d="M16.68,127.86l-1,10s5.62,1.7,9.71-1.19l-2.87-9.09Z"/><path class="cls-57" d="M26.22,119.34c.07.17.35,12.46.35,12.46h-7l-2-11.61S25.1,116.43,26.22,119.34Z"/><path class="cls-58" d="M20,121.65a1,1,0,0,0-.31.84l.56,6.1a1.31,1.31,0,0,0,.06.27c.19.47.91,1.95,2.4,1.13a8.8,8.8,0,0,1,3.41-1.35,1,1,0,0,1,1,1,36.84,36.84,0,0,1-.27,5.55,1,1,0,0,1-1.06.86,28.31,28.31,0,0,1-6.22-1,1,1,0,0,1-.68-.78c-.3-1.61-1.15-6.12-1.59-7.36s-2-1.55-2.72-1.67a1,1,0,0,1-.68-.45,2.23,2.23,0,0,1,.71-3.41,1,1,0,0,0,.32-1.37,2.22,2.22,0,0,1,.6-3.22,3.15,3.15,0,0,1,3.79,0,1,1,0,0,0,1.25-.07.65.65,0,0,1,.65-.14c1.44.36,1.19-1.66,1.94-2.29,1-.88,2.16.41,2.58,1.35.24.53.4,1.08.66,1.6a5,5,0,0,0,1.78,2,.81.81,0,0,1,.31.27.5.5,0,0,1-.11.54,1.36,1.36,0,0,1-.5.31,6.27,6.27,0,0,1-4.57.18C22,120,20.59,121.07,20,121.65Z"/><path class="cls-59" d="M17.84,129s.13-3.62-1.33-4.18-3.23.31-2.24,2.71C15.49,130.54,17.84,129,17.84,129Z"/><path class="cls-60" d="M28.46,119.07c-2.17-11.4-18.35-6.64-14.64,3.54C19.43,121,26.1,118,28.46,119.07Z"/><path class="cls-61" d="M19.08,120.72l9.41,2.58a.7.7,0,0,0,.67-.17,6.59,6.59,0,0,1,4.5-1.89.2.2,0,0,0,.06-.38l-5.59-2.15h0c-2.92-.66-6,.27-9.06,1.78A.12.12,0,0,0,19.08,120.72Z"/><path class="cls-62" d="M16.48,171.07a5,5,0,0,1-5.14-5V143.58a5.39,5.39,0,0,1,5.32-5.39c8.85-.09,27.11-.1,42.05,1.16a4,4,0,0,1,3.69,3.89l1.4,21.7a5.15,5.15,0,0,1-5,5.33Z"/><path class="cls-23" d="M35.5,157.31l6.08.65a1.36,1.36,0,0,0,1.51-1.46l-1.32-18.08c-2.55-.08-5.06-.13-7.49-.18V156A1.37,1.37,0,0,0,35.5,157.31Z"/><path class="cls-11" d="M38,154.18a.6.6,0,0,0,.6.57h0a.61.61,0,0,0,.58-.64l-.92-15.78-1.23,0Z"/><path class="cls-63" d="M37.22,173.41a2.06,2.06,0,0,0,.27-2.54C32,168.89,24,169.05,18,161.51c-2.44,1.29-.47,2.06-3.14,6C27.47,175.56,37.22,173.41,37.22,173.41Z"/><path class="cls-64" d="M11.66,145.06c.07,9.07,2.93,16,16.53,23l-2.78,4.31c-6.62-.62-18.27-9.46-21.79-16a26.19,26.19,0,0,1-1.89-10.3C2.08,138.69,9.69,131.94,11.66,145.06Z"/><path class="cls-65" d="M37.1,173.37c3.32,1.23,5.6-.77,7.08-2.92a22.09,22.09,0,0,0-7.61.11Z"/><path class="cls-66" d="M64.17,150.27c-.85-.21-2.74-2.77-2.94-1.84s.37,2.13.28,2.53-.72,2.63-.21,3.56a40,40,0,0,1,1.45,3.94c.12.37.22.87.61.82s.7-.57.74-1C64.11,158.16,65,150.47,64.17,150.27Z"/><path class="cls-67" d="M59.84,182.83h57.38a0,0,0,0,1,0,0v56.86a11.3,11.3,0,0,1-11.3,11.3H59.84a0,0,0,0,1,0,0V182.83A0,0,0,0,1,59.84,182.83Z" transform="translate(177.05 433.82) rotate(180)"/><path class="cls-68" d="M69.12,182.9h55.15a0,0,0,0,1,0,0V251a0,0,0,0,1,0,0H81.93a12.8,12.8,0,0,1-12.8-12.8V182.9A0,0,0,0,1,69.12,182.9Z" transform="translate(193.4 433.91) rotate(180)"/><path class="cls-23" d="M98.43,202.58l-6.37.69a1.45,1.45,0,0,1-1.59-1.54l1.4-18.95c2.67-.08,5.3-.14,7.84-.19v18.56A1.43,1.43,0,0,1,98.43,202.58Z"/><path class="cls-11" d="M95.82,199.3a.64.64,0,0,1-.64.6h0a.65.65,0,0,1-.6-.68l1-16.54,1.29,0Z"/></g></g></g></svg>